<?xml version="1.0" encoding="utf-8"?>
<!-- Generator: Adobe Illustrator 27.2.0, SVG Export Plug-In . SVG Version: 6.00 Build 0)  -->
<svg version="1.1" id="Layer_1" xmlns="http://www.w3.org/2000/svg" xmlns:xlink="http://www.w3.org/1999/xlink" x="0px" y="0px"
	 viewBox="0 0 215.5 338.8" style="enable-background:new 0 0 215.5 338.8;" xml:space="preserve">
<style type="text/css">
	.st0{fill:#FFFFFF;}
</style>
<g>
	<rect x="19.1" y="13.5" transform="matrix(0.9938 0.111 -0.111 0.9938 19.4891 -10.9693)" width="178.3" height="312.1"/>
	<g>
		<g>
			<g>
				<g>
					<rect x="-40.6" y="87" transform="matrix(0.111 -0.9938 0.9938 0.111 -71.9511 258.0888)" width="297.9" height="164.5"/>
				</g>
			</g>
			<g>
				<g>
					<path class="st0" d="M45.3,14.9l158.5,17.7l-32.5,291L12.8,305.9L45.3,14.9 M40.9,9.4l-0.6,5l-32.5,291l-0.6,5l5,0.6
						l158.5,17.7l5,0.6l0.6-5l32.5-291l0.6-5l-5-0.6L45.8,9.9L40.9,9.4L40.9,9.4z"/>
				</g>
			</g>
		</g>
		<g>
			<g>
				<path class="st0" d="M76.9,85.3l-1.2-10.5l-12.6-1.4l-3.5,10L46.9,82l20-54.8l16,1.8l7.3,57.8L76.9,85.3z M73.4,40.3l-0.3,0
					l-7.4,23.4l9.6,1.1L73.4,40.3z"/>
			</g>
			<g>
				<path class="st0" d="M131.9,91.5l4.8-38.6l-0.3,0l-13.8,37.6l-9-1l-4.8-39.7l-0.2,0l-3.9,38.7l-11.5-1.3l6.3-56.3l16.1,1.8
					l5,37.3l0.3,0l12.9-35.3l17,1.9l-6.3,56.3L131.9,91.5z"/>
			</g>
			<g>
				<path class="st0" d="M175.4,75.8l-2.3,20.3l-12.5-1.4l2.3-20.3l-10.2-37.6l13.8,1.5l4.2,24l0.2,0l9.4-22.5l13.5,1.5L175.4,75.8z
					"/>
			</g>
		</g>
		<g>
			<g>
				<path class="st0" d="M39.8,147.1l6.9-61.7L60.8,87l-5.4,48.8l16.5,1.8l-1.4,12.9L39.8,147.1z"/>
			</g>
			<g>
				<path class="st0" d="M76.6,151.3l6.9-61.7l14,1.6l-6.9,61.7L76.6,151.3z"/>
			</g>
			<g>
				<path class="st0" d="M128.6,157.1l-17.7-2l-8-63.3l15.8,1.8l3.3,46.1l0.2,0l13.3-44.2l15.2,1.7L128.6,157.1z"/>
			</g>
			<g>
				<path class="st0" d="M149.2,159.4l6.9-61.7l29.8,3.3l-1.4,12.3l-16.5-1.8l-1.4,12.1l15.2,1.7l-1.3,11.5l-15.2-1.7l-1.5,13.2
					l17.5,2l-1.4,12.5L149.2,159.4z"/>
			</g>
		</g>
		<g>
			<g>
				<path class="st0" d="M54.2,280.4c-0.3,3.1-1,5.9-2,8.4c-1,2.5-2.3,4.5-3.9,6.2c-1.6,1.6-3.6,2.8-5.8,3.6
					c-2.3,0.7-4.9,0.9-7.9,0.6L23,297.8l4.6-41.5l11.7,1.3c3,0.3,5.5,1.1,7.5,2.3c2.1,1.2,3.7,2.8,4.9,4.8c1.2,2,2,4.3,2.4,6.9
					C54.6,274.3,54.6,277.2,54.2,280.4z M44.8,279.4c0.5-4.2,0.1-7.4-1.1-9.7c-1.2-2.3-2.9-3.6-5.2-3.8l-2.3-0.3l-2.8,25.1l2.3,0.3
					c2.3,0.3,4.2-0.6,5.9-2.6C43.3,286.4,44.3,283.4,44.8,279.4z"/>
			</g>
			<g>
				<path class="st0" d="M55.8,301.5l4.6-41.5l20.1,2.2l-0.9,8.3l-11.1-1.2l-0.9,8.2l10.2,1.1l-0.9,7.7l-10.2-1.1l-1,8.9l11.8,1.3
					l-0.9,8.4L55.8,301.5z"/>
			</g>
			<g>
				<path class="st0" d="M107.8,295.3c-0.2,2.2-0.8,4.1-1.7,5.5c-0.9,1.4-2,2.5-3.2,3.3c-1.3,0.8-2.7,1.3-4.2,1.6
					c-1.5,0.2-3,0.3-4.5,0.1l-13.8-1.5l4.6-41.5l12.4,1.4c1.3,0.1,2.6,0.4,4.1,0.9c1.4,0.4,2.7,1.1,3.8,2c1.1,0.9,2,2.1,2.6,3.6
					c0.6,1.5,0.8,3.4,0.6,5.6c-0.3,2.5-1,4.4-2.2,5.7c-1.2,1.4-2.5,2.3-4,2.8l0,0.1c0.8,0.3,1.5,0.7,2.2,1.3
					c0.7,0.6,1.4,1.3,1.9,2.2c0.5,0.9,0.9,1.9,1.2,3.1C107.9,292.6,107.9,293.9,107.8,295.3z M99,293.5c0.1-0.9,0-1.8-0.2-2.4
					c-0.2-0.7-0.6-1.3-1-1.7c-0.4-0.5-1-0.8-1.5-1.1c-0.6-0.3-1.2-0.4-1.8-0.5l-3.4-0.4L90,297.5l3.5,0.4c1.4,0.2,2.6-0.1,3.6-0.8
					C98.2,296.3,98.8,295.1,99,293.5z M100.1,276.7c0.2-1.6-0.1-2.8-1-3.6c-0.8-0.8-1.8-1.2-3.1-1.4l-3.2-0.4l-1,9l3.2,0.4
					c1.1,0.1,2.2-0.1,3.2-0.7C99.3,279.5,99.9,278.4,100.1,276.7z"/>
			</g>
			<g>
				<path class="st0" d="M138.1,301.7c-0.8,1.9-1.8,3.6-3.1,4.9c-1.3,1.4-2.9,2.4-4.8,3c-1.9,0.7-4.1,0.8-6.7,0.6
					c-2.5-0.3-4.6-1-6.3-2c-1.7-1.1-3-2.4-3.9-4c-0.9-1.6-1.6-3.4-1.8-5.5c-0.3-2-0.3-4.2,0-6.5l2.9-26.2l9.4,1.1l-2.8,25.3
					c-0.1,1.2-0.2,2.3-0.2,3.3c0,1,0.2,1.9,0.4,2.7c0.3,0.8,0.7,1.4,1.2,1.9c0.5,0.5,1.3,0.8,2.2,0.9c0.9,0.1,1.7,0,2.4-0.4
					c0.6-0.4,1.2-0.9,1.6-1.6c0.4-0.7,0.8-1.5,1-2.5c0.2-1,0.4-2.1,0.6-3.3l2.8-25.3l9.4,1l-2.9,26.2
					C139.3,297.6,138.8,299.7,138.1,301.7z"/>
			</g>
			<g>
				<path class="st0" d="M159.6,279.1l-3.7,33.5l-9.2-1l3.7-33.5l-7.6-0.9l0.9-8l24.5,2.7l-0.9,8L159.6,279.1z"/>
			</g>
		</g>
		<g>
			<g>
				<path class="st0" d="M78.8,174.8l-9.3,83.7l-23-2.6l9.3-83.7l-19-2.1l2.2-19.9l61,6.8l-2.2,19.9L78.8,174.8z"/>
			</g>
			<g>
				<path class="st0" d="M142.9,266.7l-29.7-3.3L99.7,157l26.5,3l5.6,77.4l0.3,0l22.4-74.2l25.5,2.8L142.9,266.7z"/>
				<path d="M143,266.9L143,266.9l-29.9-3.3l0-0.1L99.6,156.9l26.7,3l0,0.1l5.6,77.3l0.1,0l22.4-74.2l0.1,0l25.6,2.9l-0.1,0.1
					L143,266.9z M113.3,263.3l29.5,3.3l36.9-100.5l-25.2-2.8l-22.4,74.2l-0.5-0.1l0-0.1l-5.6-77.3l-26.2-2.9L113.3,263.3z"/>
			</g>
		</g>
	</g>
</g>
</svg>
