<?xml version="1.0" encoding="utf-8"?>
<!-- Generator: Adobe Illustrator 27.2.0, SVG Export Plug-In . SVG Version: 6.00 Build 0)  -->
<svg version="1.1" id="Layer_1" xmlns="http://www.w3.org/2000/svg" xmlns:xlink="http://www.w3.org/1999/xlink" x="0px" y="0px"
	 viewBox="0 0 82.4 116.1" style="enable-background:new 0 0 82.4 116.1;" xml:space="preserve">
<style type="text/css">
	.st0{fill:#ED1C24;}
</style>
<g>
	<g>
		<g>
			<path class="st0" d="M38.8,52.8c3.4-2.4,10.4-7,14.7-11.7c4.3-4.6,9-11.4,9.2-18.8c0.1-5.8-1.5-12.7-6.3-16.1
				c-1.8-1.3-3.2-1.4-5-1.1C44.3,6,40.2,11.5,35.7,16.5c-2.5-4.7-5.6-10-10.5-12.4c-6.1-3-13.6-0.7-18,5c-3.6,4.6-4.4,11.4-2.5,18.3
				c5,18.6,23.6,25.4,30.8,27.4C37.8,53.1,35.5,55.2,38.8,52.8z"/>
			<g>
				<path d="M39.8,54.5c9.6-6.7,19.7-13.9,23.6-25.5c1.8-5.5,1.5-11.8-0.6-17.2c-1-2.6-2.6-4.9-4.7-6.6c-2.6-2.1-5.5-2.3-8.6-1.5
					c-6.5,1.5-10.8,6.9-15,11.6c1,0.1,2,0.3,2.9,0.4C33.4,8.2,27.8,0.3,18.5,0.9C14.3,1.2,10.4,3.1,7.4,6c-3.2,3.2-5,7.4-5.4,11.9
					c-0.9,8.4,2.7,17,8,23.4c4.2,5,9.7,8.9,15.6,11.6c2.5,1.2,5.2,2.2,7.9,3.1c0.5,0.1,1,0.3,1.4,0.4c0.7,0.2,1.2,0.1,1.8-0.3
					c0.1-0.1,0.3-0.2,0.4-0.3c0.3-0.2,0.2,0,0.1-0.1c0,0-1.4-0.1-0.9,0.1c0.4,0.1,0.8,0.1,1.1,0C38.3,55.6,39.1,55,39.8,54.5
					c2-1.4,0.1-4.6-1.9-3.2c-0.3,0.2-1.3,0.7-1.6,1c-0.1,0.2,0.2-0.1,0.5-0.1c0.3,0,0.6,0.1,0.4,0c-1-0.2-1.8,0.3-2.6,0.9
					c0.5-0.1,1-0.1,1.4-0.2c-8.9-2.4-17.5-7.1-23.5-14.3c-4.2-5.1-7-11.9-6.9-18.6c0-3.6,1-7.3,3.3-10.1C11,7.3,14,5.5,17.3,4.9
					c8.4-1.6,13.4,6.2,16.8,12.6c0.5,1,2.2,1.3,2.9,0.4c3.2-3.6,6.4-7.9,11-9.9c2.1-0.9,5-1.7,7.1-0.3c1.9,1.2,3.2,3.2,4.1,5.3
					c1.9,4.5,2.2,10,0.7,14.7c-1.6,5.1-5,9.7-8.8,13.4c-4,3.9-8.7,7.1-13.3,10.3C35.9,52.6,37.8,55.9,39.8,54.5z"/>
			</g>
		</g>
	</g>
	<g>
		<path class="st0" d="M57.8,108c11.1-6.2,31.1-32.8,13.6-40.9c-8.8-4.1-16.2,4.2-16.8,7.3c-1.9-4-9.4-8.4-15.4-6.5
			c-5.1,1.6-13.9,9.2-4.9,23C42.4,103.2,57.8,108,57.8,108z"/>
		<g>
			<path d="M58.7,109.6c4.1-2.3,7.6-5.7,10.6-9.2c3.6-4.2,6.8-8.9,8.9-14c1.7-4.2,2.8-9.3,1.1-13.7c-2-5.1-7.5-8.6-13-8.5
				c-3.5,0.1-6.7,1.6-9.3,3.7c-1.8,1.5-3.8,3.7-4.3,6c1.1-0.1,2.3-0.3,3.4-0.4c-2.9-5.6-10.8-9-16.8-7.5c-4.2,1-7.9,4.3-9.6,8.2
				c-2.8,6.4-0.1,13.4,3.7,18.8c3.7,5.2,8.6,9.3,14.1,12.5c3.1,1.8,6.4,3.4,9.8,4.5c2.3,0.7,3.3-2.9,1-3.6c-2.3-0.7-4-1.5-6.2-2.7
				c-4.6-2.4-9-5.4-12.6-9.2c-3.9-4.1-7.9-10.1-7.1-16.1c0.5-3.7,3.1-6.6,6.3-8.2c0.7-0.3,1.8-0.7,2.9-0.8c1.6-0.1,3.2,0.2,4.8,0.8
				c2.6,0.9,5.3,2.7,6.5,5.2c0.7,1.4,3.1,1.1,3.4-0.4c0-0.1,0.1-0.3,0.1-0.4c0.1-0.3-0.1,0.2,0.1-0.2c0.2-0.4,0.4-0.8,0.7-1.1
				c0.5-0.8,1.2-1.5,1.9-2.2c1.7-1.6,4-2.9,6.4-3.1c4.2-0.5,8.9,2.2,10.3,5.9c1.4,3.6,0.3,7.8-1.1,11.4c-1.8,4.3-4.4,8.3-7.4,11.9
				c-3,3.5-6.4,7-10.4,9.3C54.7,107.5,56.6,110.8,58.7,109.6z"/>
		</g>
	</g>
</g>
</svg>
