<?xml version="1.0" encoding="utf-8"?>
<!-- Generator: Adobe Illustrator 27.2.0, SVG Export Plug-In . SVG Version: 6.00 Build 0)  -->
<svg version="1.1" id="Layer_1" xmlns="http://www.w3.org/2000/svg" xmlns:xlink="http://www.w3.org/1999/xlink" x="0px" y="0px"
	 viewBox="0 0 123.7 228" style="enable-background:new 0 0 123.7 228;" xml:space="preserve">
<path d="M119.1,210.1c-1.9-0.3-3.2-1.2-3.9-2.6l-4-11.1c-3-15.8-5.6-35-7.8-57.6c0-1.3,0.4-2,1.3-2h0.6l4.6,1.3v2
	c0,1.1,0.4,2.4,1.3,3.9c3.4,0,5.3-2.6,5.9-7.8l-0.6-1.4h0.6c0-3.4-4.1-5.2-12.4-5.2h-2c0-3-1.1-5.8-3.3-8.5
	c-1.8-1.7-5.5-8.7-11.1-21c-3.1-5.4-6.1-18-9.2-37.9c0-7.5-3.9-11.2-11.8-11.2h-0.6l-1.3,0.7c-4.4-0.7-6.6-1.5-6.6-2.6
	c3.1-0.5,4.6-2.9,4.6-7.2c-1.7-10.2-4.1-17.4-7.2-21.7c-0.3-0.5-0.7-1-1-1.5c0.2-0.3,0.4-0.5,0.5-0.8c3.7-6.4,0-14.4-6.5-17
	c-6.2-2.4-13.1-0.4-17.1,4.9c-1.9,2.5-3,5.6-3,8.7c0,1.4,0.2,2.9,0.6,4.2c-2.2,2.4-4.1,5.3-5.6,8.7l0.6,4l-1.3,3.2
	c0.5,3.7,0.7,6.8,0.7,9.2v0.7C19.4,52.1,17,56.5,17,57.6h0.7l1.3-0.7v0.7c0,2.2-0.7,3.3-2,3.3v1.9h1.4v-1.3H19v0.7
	c0,1.9-0.4,3.6-1.3,5.2c0.5,0.9,0.7,1.5,0.7,2l1.3-0.7c0.9,0,2.2,5,3.9,15.1c0,3.6-3.1,11.7-9.2,24.3c-5.2,6.2-7.8,10.8-7.8,13.7
	v6.6c0,5.3,3.4,7.9,10.3,7.9c2.9,0,10.1,3.4,21.7,10.3c1.5,1.5,9,3.5,22.3,5.9c0,1.1-1.5,2.2-4.6,3.3
	c-12.3,11.8-22.3,19.9-30.2,24.3c-2.7-1.7-5.7-2.6-9.2-2.6h-0.6c-6.1,5.2-11.6,8.6-16.4,10.3l0.7,1.4c1.1,0,3.2-1.1,6.5-3.3h4.6
	c-1,2.7-3.6,7.2-7.9,13.7c0,6.8,2.2,12.7,6.6,17.7c1.7,0,3-0.9,3.9-2.6v-5.2l-0.6-1.3c0.4,0,0.6-0.4,0.6-1.3
	c8.3-7.9,12.9-11.8,13.8-11.8c1.9-1.9,8.7-7.2,20.3-15.8c19.9-9.2,33-17.2,39.2-24.1c6.6,12.1,9.9,21.9,9.9,29.5
	c-3.9,4.2-5.9,7.2-5.9,9.1c1.7,4.2,2.8,9.9,3.3,17.1h1.3v-9.2c3.5,0,5.9,3.3,7.2,9.8c1.1,4.4,6.7,6.6,17,6.6h2
	c0.9,0,1.3-0.4,1.3-1.3V216C120.7,213.2,119.1,211.3,119.1,210.1z M59.6,45.1h0.6v1.3h-0.6V45.1z M85.8,142.7
	c-4.8-3.2-7.2-5.1-7.2-5.9l3.2,0.7h4V142.7z M46.4,119.9h-0.6v-2.7c7.9-13.8,11.8-21.4,11.8-22.8c7.4-4.3,11.1-7.6,11.1-9.8
	c0-2.9-0.4-6.2-1.3-9.9c0.5,0,0.7-0.4,0.7-1.3H70c0,1.3,1.1,4.2,3.3,8.5c0.8,11.2,5.1,22.8,13.1,34.8
	C69.9,116.9,56.6,118,46.4,119.9z"/>
</svg>
