<?xml-stylesheet type="text/css" href=../main.css?>

<!-- <?xml version="1.0" encoding="utf-8"?> -->
<!-- Generator: Adobe Illustrator 27.2.0, SVG Export Plug-In . SVG Version: 6.00 Build 0)  -->
<svg version="1.1" xmlns="http://www.w3.org/2000/svg" xmlns:xlink="http://www.w3.org/1999/xlink" x="0px" y="0px"
	 viewBox="0 0 277.2 234.1" style="enable-background:new 0 0 277.2 234.1;" xml:space="preserve">
<g>
	<path id="writing" d="M277.2,75c-6.3,24.5-25.7,38.1-43.5,53c-0.4,0.3-1,0.8-1.4,1.1c-10.4,7.7-10.7,7.8-6.8,20.4c5.7,18.2,7.4,36.9,7,55.8
		c-0.2,9.3-12.3,23.4-22.8,26.6c-2.2,0.7-4.3,1.4-6.5,2.1c-5.8-0.1-11.1-0.3-17-0.4c-4.7-1.8-9.5-3.5-14.1-5.5
		c-8-3.5-14.8-8.6-20.7-16.5c-0.4-0.5-1.1-0.3-1.2,0.3c0,0.1,0,0.2,0,0.3c-1.4-0.1-0.8,0-2.1-0.1v-6.2c0-0.4-0.4-0.7-0.7-0.6
		c-1.1,0.1-1.7,0.2-2.3,0.4c-10.6,5.6-27.7,2.4-36.9-11c-10.1-14.7-13.7-31.4-14.5-48.9c-0.1-3.1,0-6.2,0-9.6c0-0.3-0.3-0.6-0.6-0.7
		c-0.6,0-1.1-0.1-1.4,0.1c-9.6,4.4-19.3,8.8-28.8,13.5c-1.9,1-3.6,3.5-4.3,5.6c-2.9,9.5-5.3,19.1-7.9,28.7c-0.4,1.6-1.1,3.1-2.1,4.5
		c-0.4,0.5-1.1,0.2-1.2-0.4c-0.2-11.4,4-22,6-33.5c0.1-0.4-0.3-0.8-0.7-0.8c-3.7,0.4-7.2,0.8-10.6,1.1c-2.8,0.2-5.7,0.3-8.4,0
		c-6.5-0.6-9-5.2-5.5-10.6c5.1-8,12-14.1,20.2-18.8c1-0.6,2.2-0.8,3.5-0.8c0.6,0,0.9,0.8,0.4,1.1c-2.9,2.3-5.9,4.6-8.5,7.2
		c-4.1,4-8.4,8-11.7,12.7c-3.3,4.6-2,6.2,3.8,6.3c2.2,0,4.3-0.1,6.5-0.2c8.7-0.5,14.2-4,17.2-13.2C67,115.4,75.8,93.2,84,70.8
		c0.1-0.3,0.4-0.7,0.9-1.4c0.2-0.4,0.8-0.4,1-0.1c1.2,1.5,2.4,2.8,3.6,4.3c0.3,0.3,0.8,0.3,1,0c9.5-12.6,16.8-27,28.5-38.5
		c0.5-0.5,1.3,0,1.1,0.7c-11.3,29-21.8,58.1-22,90.8c0,0.5,0.6,0.8,1,0.5c4.6-3.1,8.4-5.8,12.3-8.5c2.7-1.9,5.5-3.8,8.4-5.4
		c1.4-0.7,3.8-1.4,4.8-0.7c1,0.8,1.4,3.2,1.2,4.8c-1,6.7-2.4,13.4-3.6,20c-0.2,1.3-0.2,2.6,0.7,4.2c3.6-11.6,7.2-23.2,10.8-34.8
		c1.6-0.2,1.8-0.2,3.4-0.4c1.1,1.8,2.4,3.6,3.1,5.5c1.4,3.7,2,7.7,3.4,11.4c2.5,6.2,5.6,6.9,9.6,1.7c3-3.8,4.9-8.5,7.2-12.9
		c0.7-1.3,1.2-2.6,1.7-4c1.3,0,1.4,0,2.6,0c0.4,0.9,0.7,1.8,0.8,2.7c0.2,3.6-0.2,7.3,0.1,10.9c0.2,1.7,1.2,3.4,2,5.1
		c0.1,0.3,0.5,0.5,0.8,0.3c1.7-0.7,3.8-1.1,4.9-2.4c2.8-3.2,5.1-6.9,7.5-10.4c0.9-1.2,1.6-2.5,2.5-3.7c1.3,0.2,1.5,0.2,2.8,0.4
		c0.7,2.6,1.4,5.2,2.3,7.7c0.6,1.7,1.7,3.3,2.6,4.8c0.2,0.3,0.6,0.4,0.9,0.2c1.7-0.9,3.6-1.5,4.8-2.9c9.1-10.3,11.7-22.7,11.4-36
		c0-2.1,0-4.3,0-6.4c0-0.3,0.2-0.6,0.6-0.6h0.3c0.3,0,0.6,0.2,0.7,0.5c3.3,17.4,6.7,34.7,10.1,52.8c0.1,0.4,0.5,0.6,0.9,0.5
		c2-0.7,3.1-1,4-1.6c16.5-11.4,31.7-24.2,43.1-40.9c4.3-6.2,6.5-13.2,6.7-20.9c0.2-7.6-4.3-14.7-11.3-17.8c-4.6-2-9.3-3.6-13.3-5
		c-0.6-0.2-0.5-1.2,0.2-1.3c8.7-0.7,21.2,6.4,25.2,16.1c0.5,1.3,1.1,2.6,1.6,4C276.8,68.2,277,71.5,277.2,75z M120.7,118.6
		c0.1-0.5-0.5-0.9-1-0.6c-7.6,4.9-14.9,9.6-22,14.4c-0.9,0.6-1.3,2.6-1.2,3.9c0.6,8.8,0.8,17.6,2.2,26.2c2.1,13.2,6,25.9,15.6,35.9
		c7.1,7.4,15.7,9.6,25.5,6.7c2-0.6,4.5-2.2,5.3-4c5-11,8-22.2-1.4-32.7c-2-2.2-3.8-4.6-5.7-6.9c-1.2-1.4-2.5-2.8-3.7-4.2
		c0.3-0.3,0.7-0.5,1-0.8c7.7,6.7,13.6,15,17.8,24.3c0.2,0.4,0.6,0.5,0.9,0.3c5.6-3.3,7.3-7.2,6.5-14c-1.1-9.2,0.4-18.7,1-28.1
		c0-0.7,1.2-1.4,2.2-2.1c0.3-0.2,0.7-0.1,0.9,0.2c0.6,1,1.3,1.9,1.2,2.8c-0.9,7.3-2.4,14.6-3.1,21.9c-0.3,2.8,0.6,5.8,1.2,9.5
		c0.1,0.5,0.6,0.7,1,0.4c2.4-1.7,4.1-2.8,5.7-4.1c6.4-5.6,12.4-11.5,19-16.8c3.7-2.9,8.1-5,12.3-7.3c4.5-2.4,9.2-4.4,13.5-7
		c1.1-0.7,2.2-2.9,2-4.1c-2-9-4.2-17.9-6.4-26.9c-0.1-0.5-0.8-0.7-1.2-0.2c-0.9,1.3-1.2,2.7-1.9,3.8c-3.1,5.4-5.8,11.2-9.8,15.8
		c-4.2,4.8-10.3,2.8-12.5-3.3c-0.2-0.7-0.4-1.4-0.6-2.5c-0.1-0.5-0.8-0.7-1.1-0.3c-1.6,1.8-2.9,3.2-4.2,4.6c-1.6,1.7-3,3.6-4.7,5.1
		c-5.1,4.3-8.9,3.4-11.9-2.5c-0.5-1-1-2-1.6-3.3c-0.2-0.4-0.8-0.5-1.1-0.1c-0.6,0.8-1.1,1.3-1.5,1.9c-7.6,9.9-14.2,9.1-19.1-2.5
		c-1.1-2.6-1.8-5.4-2.9-8.9c-0.2-0.6-1-0.6-1.2-0.1c-0.9,2.2-1.7,3.8-2.1,5.4c-2.6,9.4-5.1,18.8-7.8,28.2c-0.3,1-1.3,1.9-2.1,2.8
		c-0.2,0.2-0.6,0.3-0.9,0.1c-1-0.8-2.3-1.5-2.6-2.5c-0.8-2.3-1.5-4.8-1.4-7.2C119.2,133.2,120,126.3,120.7,118.6z M164.1,181.5
		c-0.3-0.2-0.7,0-0.9,0.3c-3.6,7.5-7.5,14.9-10.8,22.5c-0.7,1.7-0.3,4.6,0.8,6.2c7,10.3,17,17,28.8,20.1
		c25.6,6.6,45.4-5.9,47.6-32.2c1-12.1-1.1-23.8-3.8-35.4c-1.8-7.7-3.9-15.4-6-23.8c-0.1-0.4-0.6-0.6-1-0.4c-3.6,2.5-6.6,4.4-9.3,6.6
		c-0.8,0.7-1.5,2.2-1.4,3.3c0.7,11.5-5,20-12.5,27.6C185,187.1,178.3,188.2,164.1,181.5z M109.9,55.5c-1.3-0.7-0.9-0.4-2.1-1.1
		c-3,4.5-6,8.9-9,13.4c-5.1,7.6-10.9,15-5.6,25.3l0,0c-0.9,0.1-1.7-0.4-2.2-1.1l-2.8-4.2c-0.3-0.4-0.9-0.4-1.1,0.1
		c-9.8,18.3-18.8,36.5-24.6,56.3c-0.2,0.5,0.4,1,0.9,0.8c9.6-3.9,18.5-8.2,27.4-12.8c1.4-0.7,2.5-2.6,2.9-4.2
		c0.7-2.7,0.9-5.5,1.2-8.3c2.1-17.1,4.1-34.2,10-50.5C106.5,64.6,108.2,60,109.9,55.5z M204.8,150.6c0.1-0.5-0.4-0.9-0.9-0.7
		c-9,3.9-30.2,19.9-34.6,25.8c-2.6,3.5-1.8,6.3,2.5,7.3c2.1,0.5,4.7,0.4,6.8-0.4c12-4.5,19.8-13.2,24.7-24.8
		C204.2,155.8,204.4,153.4,204.8,150.6z"/>
</g>
<g>
	<path id="heart" fill="black" d="M40.9,24c0.4,0.3,1,0,1-0.5c0.9-10,6.1-16.6,14.4-21c7.5-4,14.8-3,21.6,1.6c4.3,2.9,6.5,10.2,3.9,16.3
		c-2.7,6.3-6.4,12.3-10.3,18c-4.7,7-10.3,13.4-15.2,20.3c-3.5,5-6.8,10.2-9.5,15.7c-2.4,5.1-4,10.6-5.9,15.9
		c-0.1,0.4-0.5,0.5-0.9,0.4c-4.1-2.1-4.2-6.2-4-10.4c0.4-8.5-3.7-14.9-9.9-20.2c-3.5-3-7.6-5.4-11.1-8.4c-3.8-3.2-7.7-6.4-10.8-10.2
		c-6.7-8.3-5.4-14.3,3.3-20.3c9.7-6.7,18.3-5.9,29.7,0.5C38.5,22.3,39.5,23.1,40.9,24z M39.2,75.4c0.1,0.5,0.8,0.7,1.1,0.2
		c8.2-11.5,16.9-23,24.8-34.9c5.3-7.9,10.2-16.2,13.8-24.9c2.5-5.9-1.3-10.5-7.7-12.1c-10.9-2.7-24.7,7-26.4,18.6
		c-0.7,4.4-1.5,8.7-2.4,13c-0.2,1-0.7,1.8-1.2,2.7c-0.3,0.5-1,0.4-1.2-0.1c-0.7-2-0.8-3.9-0.6-5.7c0.5-5-1.3-8.6-6.1-10.7
		c-9.3-4-17.8-3-25.4,3.6c-5.2,4.6-6,9.7-1.5,14.9c3.7,4.3,8.2,8.2,12.8,11.6C28,58.3,36.7,64.9,39.2,75.4z"/>
</g>
</svg>
