<svg width="455" height="961" viewBox="0 0 455 961" fill="none" xmlns="http://www.w3.org/2000/svg">
<path fill-rule="evenodd" clip-rule="evenodd" d="M388.435 970.878C391.447 973.562 394.177 975.995 396.577 978.156C398.031 979.464 398.176 981.728 396.902 983.212C395.627 984.696 393.416 984.838 391.962 983.53C389.575 981.382 386.845 978.949 383.82 976.255C348.458 944.753 272.843 877.393 235.31 808.683L241.419 805.2C278.302 872.722 352.951 939.253 388.435 970.878Z" fill="#C45584"/>
<path d="M2.06025 106.602C9.02926 64.9321 30.8768 32.8498 68.6868 14.1858C115.383 -8.85548 159.839 -0.441028 201.098 29.5108C202.021 30.1822 202.88 30.952 203.776 31.4891C201.205 32.9751 199.405 35.392 197.963 38.167C197.73 37.8895 197.479 37.6299 197.201 37.4061C184.043 27.085 169.415 19.5209 153.211 15.2063C124.197 7.48109 95.8283 9.15503 69.6363 24.2652C30.8231 46.6531 10.8208 81.1792 8.94864 125.758C7.38106 163.059 18.1212 197.567 35.2929 230.258C50.6194 259.431 71.3204 284.63 94.5116 307.77C120.354 333.559 146.904 358.65 172.675 384.511C192.167 404.079 209.867 425.223 224.155 448.998C227.872 455.184 231.213 461.602 235.361 469.05C236.167 467.635 236.445 466.669 237.081 466.087C250.732 453.671 263.747 440.441 278.232 429.081C308.078 405.7 341.983 389.032 376.022 372.731C402.097 360.244 428.155 347.72 452.215 331.5C489.398 306.427 519.791 275.213 538.36 233.919C562.537 180.156 564.248 126.286 537.079 72.7558C506.086 11.6615 429.669 -5.82091 375.645 35.8217C372.251 38.4355 369.492 40.9778 368.981 45.7311C368.909 46.4293 368.73 47.1275 368.488 47.8257C369.304 42.5174 368.39 36.4035 364.861 32.8856C364.377 32.5186 363.848 32.1247 363.302 31.7129C364.941 31.6055 366.894 31.7398 367.969 30.8625C384.388 17.4442 402.957 8.62689 423.927 5.64602C467.461 -0.539496 504.008 12.7356 531.31 47.4497C554.806 77.3211 565.018 112.384 565 150.034C564.964 210.986 540.528 261.786 497.872 304.359C470.515 331.652 437.784 351.077 403.369 367.969C372.08 383.321 340.263 397.634 310.56 416.057C284.708 432.089 260.863 450.511 240.61 473.355C239.042 475.128 238.012 476.515 239.078 479.183C254.978 518.972 252.577 558.368 236.391 597.478C225.391 624.055 210.1 648.233 194.451 672.178C192.087 675.795 191.728 678.919 192.669 682.929C201.743 721.77 216.756 758.319 235.173 793.561C237.806 798.601 240.511 803.614 243.405 809.003C245.474 812.861 239.866 816.334 237.484 812.664C237.385 812.512 237.287 812.35 237.188 812.171C217.553 776.58 200.757 739.825 189.874 700.537C188.62 695.998 187.375 691.46 185.96 686.34C184.965 687.53 184.311 688.121 183.881 688.855C176.285 701.665 168.277 714.25 161.263 727.373C152.378 743.988 145.516 761.434 143.599 780.456C142.569 790.679 143.241 800.749 145.668 810.668C146.188 812.78 144.674 814.875 142.497 814.991C139.201 815.161 138.95 813.935 137.911 808.833C133.11 785.424 137.804 763.251 146.698 741.642C155.02 721.439 166.208 702.775 178.238 684.639C182.26 678.57 184.598 672.948 182.081 665.679C180.881 662.224 180.881 658.348 180.397 654.66C175.927 620.42 177.36 586.557 187.205 553.293C195.249 526.107 208.237 501.454 225.973 479.362C228.562 476.139 229.243 473.499 227.147 469.918C222.874 462.587 219.121 454.933 214.552 447.799C196.852 420.112 174.458 396.39 151.115 373.501C127.278 350.128 102.842 327.347 79.5882 303.41C49.4817 272.42 25.3948 237.339 11.5553 195.911C1.8453 166.828 -3.03661 137.171 2.06922 106.611L2.06025 106.602ZM193.699 557.366C183.451 592.939 183.111 628.889 189.847 665.16C212.788 630.178 235.235 595.168 241.335 552.738C244.677 529.517 241.559 507.022 233.462 485.127C233.318 484.742 232.96 484.428 232.243 483.48C214.373 505.742 201.519 530.225 193.699 557.375V557.366Z" fill="#C45584"/>
<g id="headphones" onclick="togglePlay()">
<path d="M203.776 31.489C205.218 32.3483 206.75 32.5811 208.784 30.7549C209.357 30.2447 211.596 30.9877 212.671 31.7217C231.312 44.4061 247.749 59.3283 260.066 78.4577C268.145 91.0078 272.463 104.507 271.128 119.501C270.94 121.577 269.623 123.547 268.647 126.017C268.79 126.268 268.925 126.51 269.059 126.76C259.887 116.842 248.734 108.642 235.818 107.004C236.436 106.942 237.072 106.906 237.717 106.906C237.932 106.906 238.155 106.548 238.487 106.252C238.559 100.12 235.244 95.3046 231.858 90.5871C222.901 78.1265 213.71 65.8271 204.932 53.2412C202.8 50.1798 202.003 46.2053 200.417 42.7321C199.709 41.1835 199.029 39.4111 197.963 38.1489C199.414 35.3829 201.214 32.957 203.776 31.4711V31.489ZM209.93 47.4764C215.027 52.6862 220.169 57.8781 225.669 62.6493C227.854 64.5381 231.231 64.9857 233.73 66.6059C236.794 68.6021 239.804 70.8489 242.294 73.5075C245.51 76.936 248.179 80.8836 251.09 84.5985C251.69 85.3325 252.783 85.1266 251.959 83.7571C241.049 67.0445 228.669 51.5673 214.015 38.0057C212.214 36.3407 209.24 36.7435 208.148 38.9456C206.723 41.8191 207.297 44.782 209.93 47.4764Z" fill="#DD74A0"/>
<path d="M269.059 126.76C277.426 141.727 277.524 144.449 271.191 158.189C268.513 163.999 264.168 167.275 257.683 167.579C255.596 167.678 253.527 167.919 251.44 168.081C236.866 169.164 221.127 160.167 214.696 147.071C210.557 138.639 211.372 122.616 217.195 117.845C222.739 113.297 228.069 107.756 235.809 107.004C248.725 108.642 259.887 116.842 269.05 126.76H269.059ZM263.066 129.813C261.705 127.62 259.869 125.776 257.674 124.2C256.268 123.189 254.458 124.898 255.453 126.322C257.038 128.586 259.027 130.35 261.427 131.585C262.565 132.167 263.747 130.905 263.066 129.822V129.813Z" fill="#DD74A0"/>
<path d="M298.261 127.083C298.359 125.194 298.243 123.215 297.795 121.085C295.412 109.69 299.166 98.5092 304.612 88.4298C317.152 65.2542 333.948 45.8114 356.781 32.1245C358.348 31.1846 360.883 31.9186 362.953 31.7307C363.069 31.7217 363.185 31.7128 363.302 31.7038C363.848 32.1156 364.368 32.5094 364.861 32.8765C368.381 36.3944 369.303 42.5083 368.488 47.8166C367.772 49.8665 366.446 51.8806 365.21 53.6798C355.41 67.9128 345.369 81.9846 335.614 96.2445C333.993 98.6256 333.097 101.615 332.425 104.462C332.291 105.035 332.945 106.208 333.652 106.951C320.547 109.86 307.962 117.227 298.27 127.074L298.261 127.083Z" fill="#DD74A0"/>
<path d="M298.261 127.083C307.953 117.236 320.538 109.86 333.643 106.959C334.002 107.344 334.378 107.613 334.656 107.613C340.675 107.711 345.243 111.023 350.098 113.87C361.018 120.279 364.592 134.566 357.641 145.147C349.301 157.849 337.423 165.476 322.321 167.356C316.149 168.125 309.637 168.152 304.173 164.357C297.213 159.532 293.003 146.973 295.547 138.863C296.792 134.879 298.046 131.182 298.261 127.074V127.083ZM320.771 128.918C325.187 127.324 329.362 125.068 333.554 122.884C334.064 122.616 334.432 122.15 334.575 121.595C334.799 120.709 334.387 119.778 333.59 119.339C333.106 119.071 332.64 118.847 332.309 118.695C332.013 118.561 331.691 118.489 331.359 118.507C325.187 118.793 321.864 122.159 318.819 125.606C317.143 127.494 318.792 129.634 320.771 128.918Z" fill="#DD74A0"/>
</g>
</svg>
