<?xml version="1.0" encoding="utf-8"?>
<!-- Generator: Adobe Illustrator 27.2.0, SVG Export Plug-In . SVG Version: 6.00 Build 0)  -->
<svg version="1.1" xmlns="http://www.w3.org/2000/svg" xmlns:xlink="http://www.w3.org/1999/xlink" x="0px" y="0px"
	 viewBox="0 0 77.7 125" style="enable-background:new 0 0 77.7 125;" xml:space="preserve">
<style type="text/css">
	.st0{fill:#BBB5AF;}
	.st1{fill:#DCDCDC;}
	.st2{fill:#202020;}
	.st3{fill:#A6A6A6;}
	.st4{fill:#FF008E;}
	.st5{fill:#FFFFFF;}
	.st6{opacity:0.5;fill:url(#rect4690_00000164490289711162843640000014116800524468960909_);}
</style>
<g id="ipod" xmlns:cc="http://creativecommons.org/ns#" xmlns:svg="http://www.w3.org/2000/svg" xmlns:inkscape="http://www.inkscape.org/namespaces/inkscape" xmlns:dc="http://purl.org/dc/elements/1.1/" xmlns:sodipodi="http://sodipodi.sourceforge.net/DTD/sodipodi-0.dtd" xmlns:rdf="http://www.w3.org/1999/02/22-rdf-syntax-ns#" inkscape:output_extension="org.inkscape.output.svg.inkscape" inkscape:version="0.46" sodipodi:docname="ipod classic.svg" sodipodi:version="0.32">
</g>

<g id="amywinehousefrank">
</g>
<g id="screen">
	<g>
		<path id="rect3627" class="st0" d="M11.2,5.1h55.4c3.4,0,6.1,2.7,6.1,6.1v102.6c0,3.4-2.7,6.1-6.1,6.1H11.2
			c-3.4,0-6.1-2.7-6.1-6.1V11.2C5.1,7.8,7.8,5.1,11.2,5.1z"/>
		
			<path id="path4138" sodipodi:cx="229.21053" sodipodi:cy="833.67798" sodipodi:rx="127.10526" sodipodi:ry="108.1579" sodipodi:type="arc" class="st1" d="
			M59.8,86.1c0,11.8-9.4,21.3-20.9,21.3s-20.9-9.5-20.9-21.3l0,0c0-11.8,9.4-21.3,20.9-21.3S59.8,74.4,59.8,86.1z"/>
		
			<path id="path4236" sodipodi:cx="234.73685" sodipodi:cy="846.57269" sodipodi:rx="51.052631" sodipodi:ry="47.894737" sodipodi:type="arc" class="st0" d="
			M46.6,86c0,4.2-3.4,7.5-7.5,7.5c-4.2,0-7.5-3.4-7.5-7.5l0,0c0-4.2,3.4-7.5,7.5-7.5S46.6,81.8,46.6,86z"/>
		<path id="rect4240" class="st2" d="M11.8,10.2h54.5c0.7,0,1.3,0.6,1.3,1.3V53c0,0.7-0.6,1.3-1.3,1.3H11.8c-0.7,0-1.3-0.6-1.3-1.3
			V11.5C10.5,10.7,11.1,10.2,11.8,10.2z"/>
		

<g id="controls">
			<path id="path4200" inkscape:flatsided="true" inkscape:randomized="0" inkscape:rounded="0" sodipodi:arg1="2.070143" sodipodi:arg2="3.1173405" sodipodi:cx="529.95795" sodipodi:cy="724.11578" sodipodi:r1="18.652679" sodipodi:r2="23.172842" sodipodi:sides="3" sodipodi:type="star" class="st3" d="
			M34.6,102.3l-0.1-4.6l4,2.2L34.6,102.3z"/>
		<rect id="rect4204" x="40" y="97.7" class="st3" width="1.2" height="4.6"/>
		<rect id="rect4209" x="42.7" y="97.7" class="st3" width="1.2" height="4.6"/>
</g>


		<g id="title">
			<path class="st4" d="M39.9,34.5c0,0.4,0,0.7,0,1.1c0.1,0,0.2,0,0.3,0c0,1.1,0,2.3,0,3.5c-0.3,0-0.5,0-0.7,0c0-1.6,0-3.1,0-4.7
				H39.9z"/>
			<path class="st5" d="M25.2,26.9c-0.5,1.1-1,2.2-1.6,3.3c-0.5-1.1-1-2.2-1.6-3.3C21.7,28,21.3,29,21,30c-0.2,0-0.5,0-0.8,0
				c0.6-1.7,1.1-3.3,1.7-5c0.6,1.3,1.1,2.4,1.7,3.7c0.6-1.2,1.1-2.4,1.7-3.7c0.6,1.7,1.1,3.4,1.7,5c-0.3,0-0.5,0-0.8,0
				C25.9,29,25.5,28,25.2,26.9z"/>
			<path class="st5" d="M42.8,33.8c-0.2-1.2,0.4-2.3,1.6-2.7c1.1-0.4,2.4,0.1,2.9,1.2c0.5,1.1,0.2,2.4-0.8,3.1
				c-1,0.7-2.3,0.6-3.1-0.3C43.3,34.9,42.9,34.3,42.8,33.8z M45.2,35.1c0.9,0,1.7-0.8,1.7-1.7c0-0.9-0.8-1.7-1.7-1.7
				c-1,0-1.7,0.8-1.7,1.7C43.5,34.3,44.3,35.1,45.2,35.1z"/>
			<path class="st4" d="M37.2,35.6c0,1.2,0,2.5,0,3.8c-1.1-1.2-2.2-2.3-3.3-3.5c0,1.1,0,2.2,0,3.2c-0.3,0-0.5,0-0.8,0
				c0-1.2,0-2.3,0-3.5c0.5,0,0.9,0,1.4,0c0.7,0.6,1.4,1.2,2,1.8c0-0.8,0-1.9,0-3c0.2,0,0.3,0,0.5,0c0,0.3,0,0.6,0,0.9
				C37,35.5,37.2,35.5,37.2,35.6z"/>
			<path class="st5" d="M52.8,31c0.3,0,0.5,0,0.7,0c0,0.1,0,0.2,0,0.3c0,0.9,0,1.8,0,2.8c-0.1,1.1-0.9,1.8-1.9,1.7
				c-1,0-1.8-0.7-1.9-1.8c0-1,0-2,0-3c0.2,0,0.4,0,0.7,0c0,0.6,0,1.3,0,2c0,0.3,0,0.6,0,0.9c0,0.7,0.5,1.2,1.1,1.2
				c0.6,0,1.2-0.5,1.2-1.2c0-0.9,0-1.8,0-2.6C52.8,31.2,52.8,31.2,52.8,31z"/>
			<path class="st5" d="M37,35.7v-1.6c0-1,0-2,0-3.1c0.3,0,0.5,0,0.7,0c0,0.6,0,1.2,0,1.9c0.7,0,1.4,0,2.1,0c0-0.6,0-1.2,0-1.9
				c0.3,0,0.5,0,0.7,0c0,0.1,0,0.1,0,0.2c0,1.5,0,2.9,0,4.4l-0.4,0h-0.3c0-0.4,0-0.8,0-1.2c0-0.3,0-0.5,0-0.9c-0.7,0-1.4,0-2.2,0
				c0,0.7,0,1.4,0,2L37,35.7z"/>
			<path class="st5" d="M34.5,35.7c-0.5,0-0.9,0-1.4,0c-0.3,0-0.7,0-1,0c0-1.6,0-3.1,0-4.7c0.9,0,1.8,0,2.7,0c0,0.2,0,0.4,0,0.6
				c-0.6,0-1.3,0-1.9,0c0,0.4,0,0.9,0,1.3c0.6,0,1.3,0,1.9,0c0,0.2,0,0.4,0,0.6c-0.7,0-1.3,0-1.9,0c0,0.5,0,0.9,0,1.4
				c0.1,0,0.2,0,0.3,0c0.2,0,0.5,0,0.7,0c0.3,0,0.7,0,1,0c0,0.2,0,0.4,0,0.6C34.8,35.7,34.6,35.7,34.5,35.7z"/>
			<path class="st5" d="M16,28.6c-0.2,0.5-0.5,1-0.7,1.4c-0.2,0-0.5,0-0.8,0c0.8-1.6,1.5-3.2,2.3-4.9c0.8,1.7,1.6,3.3,2.3,4.9
				c-0.3,0-0.5,0-0.8,0c-0.2-0.5-0.5-1-0.7-1.4C17.1,28.6,16.6,28.6,16,28.6z M16.3,27.9c0.4,0,0.7,0,1.1,0
				c-0.2-0.4-0.4-0.8-0.6-1.3C16.6,27.1,16.4,27.5,16.3,27.9z"/>
			<path class="st5" d="M55.6,34.3c0.2,0,0.4,0,0.7,0c0.1,0.4,0.3,0.8,0.9,0.8c0.4,0,0.8-0.3,0.8-0.7c0.1-0.4-0.1-0.7-0.6-0.8
				c-0.3-0.1-0.6-0.1-0.9-0.3c-0.6-0.2-0.9-0.8-0.7-1.4c0.2-0.7,0.8-1,1.6-1c0.7,0.1,1.1,0.5,1.2,1.2c-0.2,0-0.4,0-0.7,0
				c-0.1-0.4-0.5-0.7-1-0.5c-0.7,0.3-0.4,1,0,1.1c0.3,0.1,0.6,0.2,0.8,0.2c0.6,0.2,1,0.7,1,1.3c0,0.6-0.4,1.2-1.1,1.4
				C56.6,36,55.7,35.4,55.6,34.3z"/>
			<path class="st5" d="M61.5,31.7c0,0.5,0,0.9,0,1.3c0.6,0,1.3,0,2,0c0,0.2,0,0.4,0,0.6c-0.6,0-1.3,0-1.9,0c0,0.5,0,0.9,0,1.4
				c0.7,0,1.3,0,2,0c0,0.2,0,0.4,0,0.6c-0.9,0-1.8,0-2.8,0c0-1.6,0-3.1,0-4.6c0.9,0,1.8,0,2.7,0c0,0.2,0,0.4,0,0.6
				C62.8,31.7,62.2,31.7,61.5,31.7z"/>
			<path class="st4" d="M28.7,34.8c0.4,0.4,0.7,0.7,1.1,1.1c0.5,1.1,1,2.2,1.5,3.3c-0.3,0-0.5,0-0.8,0c-0.2-0.5-0.5-0.9-0.7-1.4
				c-0.6,0-1.1,0-1.7,0c-0.2,0.5-0.5,0.9-0.7,1.4c-0.3,0-0.5,0-0.8,0C27.3,37.7,28,36.3,28.7,34.8z M29.6,37.1
				c-0.2-0.4-0.4-0.8-0.6-1.3c-0.2,0.5-0.4,0.9-0.6,1.3C28.8,37.1,29.1,37.1,29.6,37.1z"/>
			<path class="st4" d="M18.8,34.5c0.1,0.2,0.2,0.4,0.3,0.6c-0.3,0-0.8,0-1.2,0c0,0.5,0,0.9,0,1.3c0.6,0,1.3,0,1.9,0
				c0,0.2,0,0.4,0,0.7c-0.6,0-1.3,0-1.9,0c0,0.7,0,1.3,0,2c-0.3,0-0.5,0-0.8,0c0-1.5,0-3.1,0-4.7C17.7,34.5,18.3,34.5,18.8,34.5z"/>
			<path class="st5" d="M27.7,25.4c0.3,0,0.6,0,0.9,0c0.4,0.6,0.8,1.3,1.2,2c0.4-0.7,0.8-1.3,1.2-2c0.2,0,0.5,0,0.8,0
				c-0.4,0.6-1.6,2.7-1.6,2.7s0,1.6,0,1.9c-0.2,0-0.5,0-0.8,0c0-0.5,0-2,0-2L27.7,25.4z"/>
			<path class="st4" d="M23.5,34.5c1,0.1,1.5,0.6,1.5,1.5c0,0.6-0.5,1-1.1,1.2c0.5,0.6,0.9,1.1,1.4,1.7c-0.2,0.1-0.4,0.3-0.6,0.4
				c-0.7-0.9-1.4-1.8-2.1-2.8c0.4,0,0.6,0,0.9,0c0.5,0,0.8-0.3,0.8-0.7c0-0.4-0.3-0.7-0.8-0.7C23.5,35,23.5,34.7,23.5,34.5z"/>
			<path class="st4" d="M22.7,35.2l-0.2,0l0,0.4c0,1.1,0,2.1,0,3.2c0,0.2,0,0.3,0,0.5c-0.3,0-0.5,0-0.7,0c0-1.5,0-3.1,0-4.7
				c0.3,0,0.6,0,0.9,0C22.7,34.7,22.7,34.9,22.7,35.2z"/>
			<path class="st5" d="M22.7,35.2c0-0.2,0-0.4,0-0.6c0-1.1,0-2.3,0-3.5c0.2,0,0.5,0,0.7,0c0,1.2,0,2.3,0,3.5c0,0.2,0,0.4,0,0.7
				c0,0.2,0,0.3,0,0.5c-0.3,0-0.5,0-0.7,0L22.7,35.2z"/>
			<path class="st4" d="M33.8,35.1c-0.2,0-0.5,0-0.7,0c0-0.2,0-0.4,0-0.8C33.4,34.6,33.6,34.8,33.8,35.1z"/>
			<path class="st4" d="M19.6,35.2c0.1-0.2,0.2-0.4,0.3-0.6l0,0.6H19.6z"/>
			<polygon class="st4" points="29.1,34.3 29.1,34.3 29.1,34.3 			"/>
			<path class="st4" d="M41.2,36.7l1.9-2c0,0,0,0,0,0c-0.2-0.1-0.3-0.2-0.5-0.3c-0.8,0.8-1.6,1.6-2.4,2.5c0.9,0.8,1.8,1.6,2.6,2.5
				c0.2-0.2,0.3-0.3,0.5-0.5c-0.6-0.6-1.2-1.2-1.9-1.9L41.2,36.7z"/>
			<path class="st5" d="M26.5,32.6c0,1.1,0,2,0,3.1c-0.3,0-0.5,0-0.7,0c0-1.6,0-3.3,0-4.9c0,0,2.4,2.4,3.4,3.4c0,0,0,0,0,0
				c0-1.1,0-2.1,0-3.2c0.2,0,0.4,0,0.7,0c0,1.2,0,5,0,5L26.5,32.6z"/>
			<path class="st5" d="M17.7,32.3c-0.6,1.2-1.1,2.4-1.7,3.6c-0.5-1.7-1-3.3-1.5-4.9c0.3,0,0.5,0,0.8,0c0.3,1,0.6,2,0.9,3
				c0.5-1.1,1-2.2,1.6-3.3c0.5,1.1,1,2.2,1.6,3.3c0.3-1.1,0.6-2,0.9-3c0.2,0,0.5,0,0.8,0c-0.4,1.2-1.4,4.6-1.5,4.9L17.7,32.3z"/>
		</g>
		
			<radialGradient id="rect4690_00000167358072291975026630000004636439543795064473_" cx="-774.0303" cy="709.2635" r="25.807" gradientTransform="matrix(-0.8763 0.9208 1.5254 1.4541 -1721.201 -286.3683)" gradientUnits="userSpaceOnUse">
			<stop  offset="0" style="stop-color:#343434;stop-opacity:0.7333"/>
			<stop  offset="1" style="stop-color:#343434;stop-opacity:0"/>
		</radialGradient>
		
			<path id="rect4690" sodipodi:nodetypes="ccccc" style="opacity:0.5;fill:url(#rect4690_00000167358072291975026630000004636439543795064473_);" d="
			M11.1,10.7l56.1-0.2L67,53.7l-55.9,0.2V10.7z"/>
	</g>
</g>
</svg>
