<svg width="278" height="235" viewBox="0 0 278 235" fill="none" xmlns="http://www.w3.org/2000/svg">
<g clip-path="url(#clip0_30_2298)">
<path d="M277.2 75C270.9 99.5 251.5 113.1 233.7 128C233.3 128.3 232.7 128.8 232.3 129.1C221.9 136.8 221.6 136.9 225.5 149.5C231.2 167.7 232.9 186.4 232.5 205.3C232.3 214.6 220.2 228.7 209.7 231.9C207.5 232.6 205.4 233.3 203.2 234C197.4 233.9 192.1 233.7 186.2 233.6C181.5 231.8 176.7 230.1 172.1 228.1C164.1 224.6 157.3 219.5 151.4 211.6C151 211.1 150.3 211.3 150.2 211.9C150.2 212 150.2 212.1 150.2 212.2C148.8 212.1 149.4 212.2 148.1 212.1V205.9C148.1 205.5 147.7 205.2 147.4 205.3C146.3 205.4 145.7 205.5 145.1 205.7C134.5 211.3 117.4 208.1 108.2 194.7C98.1 180 94.5 163.3 93.7 145.8C93.6 142.7 93.7 139.6 93.7 136.2C93.7 135.9 93.4 135.6 93.1 135.5C92.5 135.5 92 135.4 91.7 135.6C82.1 140 72.4 144.4 62.9 149.1C61 150.1 59.3 152.6 58.6 154.7C55.7 164.2 53.3 173.8 50.7 183.4C50.3 185 49.6 186.5 48.6 187.9C48.2 188.4 47.5 188.1 47.4 187.5C47.2 176.1 51.4 165.5 53.4 154C53.5 153.6 53.1 153.2 52.7 153.2C49 153.6 45.5 154 42.1 154.3C39.3 154.5 36.4 154.6 33.7 154.3C27.2 153.7 24.7 149.1 28.2 143.7C33.3 135.7 40.2 129.6 48.4 124.9C49.4 124.3 50.6 124.1 51.9 124.1C52.5 124.1 52.8 124.9 52.3 125.2C49.4 127.5 46.4 129.8 43.8 132.4C39.7 136.4 35.4 140.4 32.1 145.1C28.8 149.7 30.1 151.3 35.9 151.4C38.1 151.4 40.2 151.3 42.4 151.2C51.1 150.7 56.6 147.2 59.6 138C67 115.4 75.8 93.2 84 70.8C84.1 70.5 84.4 70.1 84.9 69.4C85.1 69 85.7 69 85.9 69.3C87.1 70.8 88.3 72.1 89.5 73.6C89.8 73.9 90.3 73.9 90.5 73.6C100 61 107.3 46.6 119 35.1C119.5 34.6 120.3 35.1 120.1 35.8C108.8 64.8 98.3 93.9 98.1 126.6C98.1 127.1 98.7 127.4 99.1 127.1C103.7 124 107.5 121.3 111.4 118.6C114.1 116.7 116.9 114.8 119.8 113.2C121.2 112.5 123.6 111.8 124.6 112.5C125.6 113.3 126 115.7 125.8 117.3C124.8 124 123.4 130.7 122.2 137.3C122 138.6 122 139.9 122.9 141.5C126.5 129.9 130.1 118.3 133.7 106.7C135.3 106.5 135.5 106.5 137.1 106.3C138.2 108.1 139.5 109.9 140.2 111.8C141.6 115.5 142.2 119.5 143.6 123.2C146.1 129.4 149.2 130.1 153.2 124.9C156.2 121.1 158.1 116.4 160.4 112C161.1 110.7 161.6 109.4 162.1 108C163.4 108 163.5 108 164.7 108C165.1 108.9 165.4 109.8 165.5 110.7C165.7 114.3 165.3 118 165.6 121.6C165.8 123.3 166.8 125 167.6 126.7C167.7 127 168.1 127.2 168.4 127C170.1 126.3 172.2 125.9 173.3 124.6C176.1 121.4 178.4 117.7 180.8 114.2C181.7 113 182.4 111.7 183.3 110.5C184.6 110.7 184.8 110.7 186.1 110.9C186.8 113.5 187.5 116.1 188.4 118.6C189 120.3 190.1 121.9 191 123.4C191.2 123.7 191.6 123.8 191.9 123.6C193.6 122.7 195.5 122.1 196.7 120.7C205.8 110.4 208.4 98 208.1 84.7C208.1 82.6 208.1 80.4 208.1 78.3C208.1 78 208.3 77.7 208.7 77.7H209C209.3 77.7 209.6 77.9 209.7 78.2C213 95.6 216.4 112.9 219.8 131C219.9 131.4 220.3 131.6 220.7 131.5C222.7 130.8 223.8 130.5 224.7 129.9C241.2 118.5 256.4 105.7 267.8 89C272.1 82.8 274.3 75.8 274.5 68.1C274.7 60.5 270.2 53.4 263.2 50.3C258.6 48.3 253.9 46.7 249.9 45.3C249.3 45.1 249.4 44.1 250.1 44C258.8 43.3 271.3 50.4 275.3 60.1C275.8 61.4 276.4 62.7 276.9 64.1C276.8 68.2 277 71.5 277.2 75ZM120.7 118.6C120.8 118.1 120.2 117.7 119.7 118C112.1 122.9 104.8 127.6 97.7 132.4C96.8 133 96.4 135 96.5 136.3C97.1 145.1 97.3 153.9 98.7 162.5C100.8 175.7 104.7 188.4 114.3 198.4C121.4 205.8 130 208 139.8 205.1C141.8 204.5 144.3 202.9 145.1 201.1C150.1 190.1 153.1 178.9 143.7 168.4C141.7 166.2 139.9 163.8 138 161.5C136.8 160.1 135.5 158.7 134.3 157.3C134.6 157 135 156.8 135.3 156.5C143 163.2 148.9 171.5 153.1 180.8C153.3 181.2 153.7 181.3 154 181.1C159.6 177.8 161.3 173.9 160.5 167.1C159.4 157.9 160.9 148.4 161.5 139C161.5 138.3 162.7 137.6 163.7 136.9C164 136.7 164.4 136.8 164.6 137.1C165.2 138.1 165.9 139 165.8 139.9C164.9 147.2 163.4 154.5 162.7 161.8C162.4 164.6 163.3 167.6 163.9 171.3C164 171.8 164.5 172 164.9 171.7C167.3 170 169 168.9 170.6 167.6C177 162 183 156.1 189.6 150.8C193.3 147.9 197.7 145.8 201.9 143.5C206.4 141.1 211.1 139.1 215.4 136.5C216.5 135.8 217.6 133.6 217.4 132.4C215.4 123.4 213.2 114.5 211 105.5C210.9 105 210.2 104.8 209.8 105.3C208.9 106.6 208.6 108 207.9 109.1C204.8 114.5 202.1 120.3 198.1 124.9C193.9 129.7 187.8 127.7 185.6 121.6C185.4 120.9 185.2 120.2 185 119.1C184.9 118.6 184.2 118.4 183.9 118.8C182.3 120.6 181 122 179.7 123.4C178.1 125.1 176.7 127 175 128.5C169.9 132.8 166.1 131.9 163.1 126C162.6 125 162.1 124 161.5 122.7C161.3 122.3 160.7 122.2 160.4 122.6C159.8 123.4 159.3 123.9 158.9 124.5C151.3 134.4 144.7 133.6 139.8 122C138.7 119.4 138 116.6 136.9 113.1C136.7 112.5 135.9 112.5 135.7 113C134.8 115.2 134 116.8 133.6 118.4C131 127.8 128.5 137.2 125.8 146.6C125.5 147.6 124.5 148.5 123.7 149.4C123.5 149.6 123.1 149.7 122.8 149.5C121.8 148.7 120.5 148 120.2 147C119.4 144.7 118.7 142.2 118.8 139.8C119.2 133.2 120 126.3 120.7 118.6ZM164.1 181.5C163.8 181.3 163.4 181.5 163.2 181.8C159.6 189.3 155.7 196.7 152.4 204.3C151.7 206 152.1 208.9 153.2 210.5C160.2 220.8 170.2 227.5 182 230.6C207.6 237.2 227.4 224.7 229.6 198.4C230.6 186.3 228.5 174.6 225.8 163C224 155.3 221.9 147.6 219.8 139.2C219.7 138.8 219.2 138.6 218.8 138.8C215.2 141.3 212.2 143.2 209.5 145.4C208.7 146.1 208 147.6 208.1 148.7C208.8 160.2 203.1 168.7 195.6 176.3C185 187.1 178.3 188.2 164.1 181.5ZM109.9 55.5C108.6 54.8 109 55.1 107.8 54.4C104.8 58.9 101.8 63.3 98.8 67.8C93.7 75.4 87.9 82.8 93.2 93.1C92.3 93.2 91.5 92.7 91 92L88.2 87.8C87.9 87.4 87.3 87.4 87.1 87.9C77.3 106.2 68.3 124.4 62.5 144.2C62.3 144.7 62.9 145.2 63.4 145C73 141.1 81.9 136.8 90.8 132.2C92.2 131.5 93.3 129.6 93.7 128C94.4 125.3 94.6 122.5 94.9 119.7C97 102.6 99 85.5 104.9 69.2C106.5 64.6 108.2 60 109.9 55.5ZM204.8 150.6C204.9 150.1 204.4 149.7 203.9 149.9C194.9 153.8 173.7 169.8 169.3 175.7C166.7 179.2 167.5 182 171.8 183C173.9 183.5 176.5 183.4 178.6 182.6C190.6 178.1 198.4 169.4 203.3 157.8C204.2 155.8 204.4 153.4 204.8 150.6Z" fill="#311422"/>
<path d="M40.9 24C41.3 24.3 41.9 24 41.9 23.5C42.8 13.5 48 6.89999 56.3 2.49999C63.8 -1.50001 71.1 -0.50001 77.9 4.09999C82.2 6.99999 84.4 14.3 81.8 20.4C79.1 26.7 75.4 32.7 71.5 38.4C66.8 45.4 61.2 51.8 56.3 58.7C52.8 63.7 49.5 68.9 46.8 74.4C44.4 79.5 42.8 85 40.9 90.3C40.8 90.7 40.4 90.8 40 90.7C35.9 88.6 35.8 84.5 36 80.3C36.4 71.8 32.3 65.4 26.1 60.1C22.6 57.1 18.5 54.7 15 51.7C11.2 48.5 7.29998 45.3 4.19998 41.5C-2.50002 33.2 -1.20002 27.2 7.49998 21.2C17.2 14.5 25.8 15.3 37.2 21.7C38.5 22.3 39.5 23.1 40.9 24ZM39.2 75.4C39.3 75.9 40 76.1 40.3 75.6C48.5 64.1 57.2 52.6 65.1 40.7C70.4 32.8 75.3 24.5 78.9 15.8C81.4 9.89999 77.6 5.29999 71.2 3.69999C60.3 0.99999 46.5 10.7 44.8 22.3C44.1 26.7 43.3 31 42.4 35.3C42.2 36.3 41.7 37.1 41.2 38C40.9 38.5 40.2 38.4 40 37.9C39.3 35.9 39.2 34 39.4 32.2C39.9 27.2 38.1 23.6 33.3 21.5C24 17.5 15.5 18.5 7.89998 25.1C2.69998 29.7 1.89998 34.8 6.39998 40C10.1 44.3 14.6 48.2 19.2 51.6C28 58.3 36.7 64.9 39.2 75.4Z" fill="#311422"/>
</g>
<defs>
<clipPath id="clip0_30_2298">
<rect width="277.2" height="234.1" fill="white"/>
</clipPath>
</defs>
</svg>
