<svg width="274" height="23" viewBox="0 0 274 23" fill="none" xmlns="http://www.w3.org/2000/svg">
<path d="M0.944 0.983999V18H7.52C10.712 18 12.776 16.008 12.776 13.248C12.776 11.136 11.432 9.624 9.776 9.216C11.192 8.736 12.248 7.32 12.248 5.568C12.248 2.928 10.376 0.983999 7.064 0.983999H0.944ZM4.208 8.016V3.768H6.536C8.144 3.768 8.984 4.584 8.984 5.88C8.984 7.176 8.072 8.016 6.56 8.016H4.208ZM4.208 15.24V10.752H6.944C8.6 10.752 9.464 11.688 9.464 13.032C9.464 14.4 8.504 15.24 6.896 15.24H4.208Z" fill="#DEC6D0"/>
<path d="M22.8929 18H25.9409C25.8929 17.592 25.8209 16.776 25.8209 15.864V6.192H22.6289V13.056C22.6289 14.424 21.8129 15.384 20.3969 15.384C18.9089 15.384 18.2369 14.328 18.2369 13.008V6.192H15.0449V13.656C15.0449 16.224 16.6769 18.312 19.5329 18.312C20.7809 18.312 22.1489 17.832 22.7969 16.728C22.7969 17.208 22.8449 17.76 22.8929 18Z" fill="#DEC6D0"/>
<path d="M33.1634 2.664H30.2834V4.32C30.2834 5.376 29.7074 6.192 28.4594 6.192H27.8594V9.024H29.9954V14.52C29.9954 16.8 31.4354 18.168 33.7394 18.168C34.6754 18.168 35.2514 18 35.5394 17.88V15.24C35.3714 15.288 34.9394 15.336 34.5554 15.336C33.6434 15.336 33.1634 15 33.1634 13.968V9.024H35.5394V6.192H33.1634V2.664Z" fill="#DEC6D0"/>
<path d="M48.1903 22.656L55.6063 6.192H52.1982L49.2943 13.104L46.1502 6.192H42.5742L47.5903 16.512L44.8063 22.656H48.1903Z" fill="#DEC6D0"/>
<path d="M62.2814 15.456C60.7214 15.456 59.2814 14.304 59.2814 12.096C59.2814 9.864 60.7214 8.736 62.2814 8.736C63.8414 8.736 65.2814 9.864 65.2814 12.096C65.2814 14.328 63.8414 15.456 62.2814 15.456ZM62.2814 5.832C58.7534 5.832 56.0894 8.448 56.0894 12.096C56.0894 15.72 58.7534 18.36 62.2814 18.36C65.8094 18.36 68.4734 15.72 68.4734 12.096C68.4734 8.448 65.8094 5.832 62.2814 5.832Z" fill="#DEC6D0"/>
<path d="M78.6742 18H81.7222C81.6742 17.592 81.6022 16.776 81.6022 15.864V6.192H78.4102V13.056C78.4102 14.424 77.5942 15.384 76.1782 15.384C74.6902 15.384 74.0182 14.328 74.0182 13.008V6.192H70.8262V13.656C70.8262 16.224 72.4582 18.312 75.3142 18.312C76.5622 18.312 77.9302 17.832 78.5782 16.728C78.5782 17.208 78.6262 17.76 78.6742 18Z" fill="#DEC6D0"/>
<path d="M96.2424 8.784C97.8264 8.784 98.5704 9.792 98.8584 10.776L101.714 9.816C101.21 7.824 99.3864 5.832 96.1704 5.832C92.7384 5.832 90.0504 8.448 90.0504 12.096C90.0504 15.72 92.7864 18.36 96.2664 18.36C99.4104 18.36 101.258 16.344 101.786 14.376L98.9784 13.44C98.7144 14.352 97.8984 15.432 96.2664 15.432C94.6344 15.432 93.2424 14.232 93.2424 12.096C93.2424 9.96 94.6104 8.784 96.2424 8.784Z" fill="#DEC6D0"/>
<path d="M103.367 14.784C103.367 16.632 104.903 18.336 107.423 18.336C109.175 18.336 110.303 17.52 110.903 16.584C110.903 17.04 110.951 17.688 111.023 18H113.951C113.879 17.592 113.807 16.752 113.807 16.128V10.32C113.807 7.944 112.415 5.832 108.671 5.832C105.503 5.832 103.799 7.872 103.607 9.72L106.439 10.32C106.535 9.288 107.303 8.4 108.695 8.4C110.039 8.4 110.687 9.096 110.687 9.936C110.687 10.344 110.471 10.68 109.799 10.776L106.895 11.208C104.927 11.496 103.367 12.672 103.367 14.784ZM108.095 15.96C107.063 15.96 106.559 15.288 106.559 14.592C106.559 13.68 107.207 13.224 108.023 13.104L110.687 12.696V13.224C110.687 15.312 109.439 15.96 108.095 15.96Z" fill="#DEC6D0"/>
<path d="M120.216 11.208C120.216 9.84 121.032 8.76 122.424 8.76C123.96 8.76 124.608 9.792 124.608 11.112V18H127.8V10.56C127.8 7.968 126.456 5.88 123.528 5.88C122.256 5.88 120.84 6.432 120.12 7.656V6.192H117.024V18H120.216V11.208Z" fill="#DEC6D0"/>
<path d="M135.962 14.712C136.106 16.056 137.33 18.36 140.882 18.36C143.978 18.36 145.466 16.392 145.466 14.472C145.466 12.744 144.29 11.328 141.962 10.848L140.282 10.488C139.634 10.368 139.202 10.008 139.202 9.432C139.202 8.76 139.874 8.256 140.714 8.256C142.058 8.256 142.562 9.144 142.658 9.84L145.322 9.24C145.178 7.968 144.05 5.832 140.69 5.832C138.146 5.832 136.274 7.584 136.274 9.696C136.274 11.352 137.306 12.72 139.586 13.224L141.146 13.584C142.058 13.776 142.418 14.208 142.418 14.736C142.418 15.36 141.914 15.912 140.858 15.912C139.466 15.912 138.77 15.048 138.698 14.112L135.962 14.712Z" fill="#DEC6D0"/>
<path d="M151.968 2.664H149.088V4.32C149.088 5.376 148.512 6.192 147.264 6.192H146.664V9.024H148.8V14.52C148.8 16.8 150.24 18.168 152.544 18.168C153.48 18.168 154.056 18 154.344 17.88V15.24C154.176 15.288 153.744 15.336 153.36 15.336C152.448 15.336 151.968 15 151.968 13.968V9.024H154.344V6.192H151.968V2.664Z" fill="#DEC6D0"/>
<path d="M160.248 18V6.192H157.056V18H160.248ZM156.672 2.328C156.672 3.384 157.56 4.272 158.64 4.272C159.744 4.272 160.608 3.384 160.608 2.328C160.608 1.224 159.744 0.335999 158.64 0.335999C157.56 0.335999 156.672 1.224 156.672 2.328Z" fill="#DEC6D0"/>
<path d="M166.857 18V0.623999H163.665V18H166.857Z" fill="#DEC6D0"/>
<path d="M173.466 18V0.623999H170.274V18H173.466Z" fill="#DEC6D0"/>
<path d="M186.749 2.664H183.869V4.32C183.869 5.376 183.293 6.192 182.045 6.192H181.445V9.024H183.581V14.52C183.581 16.8 185.021 18.168 187.325 18.168C188.261 18.168 188.837 18 189.125 17.88V15.24C188.957 15.288 188.525 15.336 188.141 15.336C187.229 15.336 186.749 15 186.749 13.968V9.024H189.125V6.192H186.749V2.664Z" fill="#DEC6D0"/>
<path d="M198.873 6.144C198.633 6.12 198.393 6.096 198.129 6.096C197.121 6.096 195.489 6.384 194.769 7.944V6.192H191.673V18H194.865V12.6C194.865 10.056 196.281 9.264 197.913 9.264C198.201 9.264 198.513 9.288 198.873 9.36V6.144Z" fill="#DEC6D0"/>
<path d="M208.823 18H211.871C211.823 17.592 211.751 16.776 211.751 15.864V6.192H208.559V13.056C208.559 14.424 207.743 15.384 206.327 15.384C204.839 15.384 204.167 14.328 204.167 13.008V6.192H200.975V13.656C200.975 16.224 202.607 18.312 205.463 18.312C206.711 18.312 208.079 17.832 208.727 16.728C208.727 17.208 208.775 17.76 208.823 18Z" fill="#DEC6D0"/>
<path d="M214.149 14.712C214.293 16.056 215.517 18.36 219.069 18.36C222.165 18.36 223.653 16.392 223.653 14.472C223.653 12.744 222.477 11.328 220.149 10.848L218.469 10.488C217.821 10.368 217.389 10.008 217.389 9.432C217.389 8.76 218.061 8.256 218.901 8.256C220.245 8.256 220.749 9.144 220.845 9.84L223.509 9.24C223.365 7.968 222.237 5.832 218.877 5.832C216.333 5.832 214.461 7.584 214.461 9.696C214.461 11.352 215.493 12.72 217.773 13.224L219.333 13.584C220.245 13.776 220.605 14.208 220.605 14.736C220.605 15.36 220.101 15.912 219.045 15.912C217.653 15.912 216.957 15.048 216.885 14.112L214.149 14.712Z" fill="#DEC6D0"/>
<path d="M230.156 2.664H227.276V4.32C227.276 5.376 226.7 6.192 225.452 6.192H224.852V9.024H226.988V14.52C226.988 16.8 228.428 18.168 230.732 18.168C231.668 18.168 232.244 18 232.532 17.88V15.24C232.364 15.288 231.932 15.336 231.548 15.336C230.636 15.336 230.156 15 230.156 13.968V9.024H232.532V6.192H230.156V2.664Z" fill="#DEC6D0"/>
<path d="M244.294 18V11.088C244.294 9.792 245.11 8.76 246.502 8.76C247.942 8.76 248.59 9.72 248.59 10.992V18H251.758V11.088C251.758 9.816 252.574 8.76 253.942 8.76C255.406 8.76 256.03 9.72 256.03 10.992V18H259.126V10.344C259.126 7.176 257.038 5.856 254.854 5.856C253.294 5.856 252.046 6.384 251.11 7.824C250.51 6.552 249.214 5.856 247.606 5.856C246.31 5.856 244.798 6.48 244.15 7.632V6.192H241.102V18H244.294Z" fill="#DEC6D0"/>
<path d="M264.688 10.752C264.76 9.672 265.672 8.424 267.328 8.424C269.152 8.424 269.92 9.576 269.968 10.752H264.688ZM270.28 13.824C269.896 14.88 269.08 15.624 267.592 15.624C266.008 15.624 264.688 14.496 264.616 12.936H273.064C273.064 12.888 273.112 12.408 273.112 11.952C273.112 8.16 270.928 5.832 267.28 5.832C264.256 5.832 261.472 8.28 261.472 12.048C261.472 16.032 264.328 18.36 267.568 18.36C270.472 18.36 272.344 16.656 272.944 14.616L270.28 13.824Z" fill="#DEC6D0"/>
</svg>
