<svg width="206" height="23" viewBox="0 0 206 23" fill="none" xmlns="http://www.w3.org/2000/svg">
<path d="M14.472 4.29943V1.15543H0.384003V4.29943H5.76V18.1714H9.096V4.29943H14.472Z" fill="white"/>
<path d="M19.8257 11.2354C19.8977 9.93943 20.6897 8.93143 22.0337 8.93143C23.5697 8.93143 24.2177 9.96343 24.2177 11.2834V18.1714H27.4097V10.7314C27.4097 8.13943 26.0177 6.05143 23.0177 6.05143C21.8897 6.05143 20.5937 6.43543 19.8257 7.34743V0.795429H16.6337V18.1714H19.8257V11.2354Z" fill="white"/>
<path d="M33.8413 18.1714V6.36343H30.6493V18.1714H33.8413ZM30.2653 2.49943C30.2653 3.55543 31.1533 4.44343 32.2333 4.44343C33.3373 4.44343 34.2013 3.55543 34.2013 2.49943C34.2013 1.39543 33.3373 0.507429 32.2333 0.507429C31.1533 0.507429 30.2653 1.39543 30.2653 2.49943Z" fill="white"/>
<path d="M36.2507 14.8834C36.3947 16.2274 37.6187 18.5314 41.1707 18.5314C44.2667 18.5314 45.7547 16.5634 45.7547 14.6434C45.7547 12.9154 44.5787 11.4994 42.2507 11.0194L40.5707 10.6594C39.9227 10.5394 39.4907 10.1794 39.4907 9.60343C39.4907 8.93143 40.1627 8.42743 41.0027 8.42743C42.3467 8.42743 42.8507 9.31543 42.9467 10.0114L45.6107 9.41143C45.4667 8.13943 44.3387 6.00343 40.9787 6.00343C38.4347 6.00343 36.5627 7.75543 36.5627 9.86743C36.5627 11.5234 37.5947 12.8914 39.8747 13.3954L41.4347 13.7554C42.3467 13.9474 42.7067 14.3794 42.7067 14.9074C42.7067 15.5314 42.2027 16.0834 41.1467 16.0834C39.7547 16.0834 39.0587 15.2194 38.9867 14.2834L36.2507 14.8834Z" fill="white"/>
<path d="M53.5309 14.9554C53.5309 16.8034 55.0669 18.5074 57.5869 18.5074C59.3389 18.5074 60.4669 17.6914 61.0669 16.7554C61.0669 17.2114 61.1149 17.8594 61.1869 18.1714H64.1149C64.0429 17.7634 63.9709 16.9234 63.9709 16.2994V10.4914C63.9709 8.11543 62.5789 6.00343 58.8349 6.00343C55.6669 6.00343 53.9629 8.04343 53.7709 9.89143L56.6029 10.4914C56.6989 9.45943 57.4669 8.57143 58.8589 8.57143C60.2029 8.57143 60.8509 9.26743 60.8509 10.1074C60.8509 10.5154 60.6349 10.8514 59.9629 10.9474L57.0589 11.3794C55.0909 11.6674 53.5309 12.8434 53.5309 14.9554ZM58.2589 16.1314C57.2269 16.1314 56.7229 15.4594 56.7229 14.7634C56.7229 13.8514 57.3709 13.3954 58.1869 13.2754L60.8509 12.8674V13.3954C60.8509 15.4834 59.6029 16.1314 58.2589 16.1314Z" fill="white"/>
<path d="M70.3804 18.1714V6.36343H67.1884V18.1714H70.3804ZM66.8044 2.49943C66.8044 3.55543 67.6924 4.44343 68.7724 4.44343C69.8764 4.44343 70.7404 3.55543 70.7404 2.49943C70.7404 1.39543 69.8764 0.507429 68.7724 0.507429C67.6924 0.507429 66.8044 1.39543 66.8044 2.49943Z" fill="white"/>
<path d="M76.9898 11.3794C76.9898 10.0114 77.8058 8.93143 79.1978 8.93143C80.7338 8.93143 81.3818 9.96343 81.3818 11.2834V18.1714H84.5738V10.7314C84.5738 8.13943 83.2298 6.05143 80.3018 6.05143C79.0298 6.05143 77.6138 6.60343 76.8938 7.82743V6.36343H73.7978V18.1714H76.9898V11.3794Z" fill="white"/>
<path d="M85.8707 2.73943C85.8707 3.74743 86.5427 4.46743 87.6227 4.46743C87.8387 4.46743 88.0067 4.41943 88.1267 4.34743C88.0787 5.45143 87.0707 6.24343 86.1587 6.38743V7.85143C87.6707 7.70743 89.8787 6.53143 89.8787 3.31543C89.8787 2.04343 89.0627 0.98743 87.7907 0.98743C86.6627 0.98743 85.8707 1.80343 85.8707 2.73943Z" fill="white"/>
<path d="M96.3431 2.83543H93.4631V4.49143C93.4631 5.54743 92.8871 6.36343 91.6391 6.36343H91.0391V9.19543H93.1751V14.6914C93.1751 16.9714 94.6151 18.3394 96.9191 18.3394C97.8551 18.3394 98.4311 18.1714 98.7191 18.0514V15.4114C98.5511 15.4594 98.1191 15.5074 97.7351 15.5074C96.8231 15.5074 96.3431 15.1714 96.3431 14.1394V9.19543H98.7191V6.36343H96.3431V2.83543Z" fill="white"/>
<path d="M110.482 18.1714V6.36343H107.29V18.1714H110.482ZM106.906 2.49943C106.906 3.55543 107.794 4.44343 108.874 4.44343C109.978 4.44343 110.842 3.55543 110.842 2.49943C110.842 1.39543 109.978 0.507429 108.874 0.507429C107.794 0.507429 106.906 1.39543 106.906 2.49943Z" fill="white"/>
<path d="M117.091 11.3794C117.091 10.0114 117.907 8.93143 119.299 8.93143C120.835 8.93143 121.483 9.96343 121.483 11.2834V18.1714H124.675V10.7314C124.675 8.13943 123.331 6.05143 120.403 6.05143C119.131 6.05143 117.715 6.60343 116.995 7.82743V6.36343H113.899V18.1714H117.091V11.3794Z" fill="white"/>
<path d="M136.459 9.09943V18.1714H139.627V6.36343H131.731V5.06743C131.731 3.74743 132.691 3.43543 133.387 3.43543C133.915 3.43543 134.227 3.50743 134.395 3.55543V0.86743C134.131 0.74743 133.483 0.62743 132.811 0.62743C130.195 0.62743 128.515 2.35543 128.515 5.01943V6.36343H126.547V9.09943H128.515V18.1714H131.731V9.09943H136.459ZM136.075 2.47543C136.075 3.55543 136.963 4.41943 138.043 4.41943C139.123 4.41943 140.011 3.55543 140.011 2.47543C140.011 1.37143 139.123 0.483429 138.043 0.483429C136.963 0.483429 136.075 1.37143 136.075 2.47543Z" fill="white"/>
<path d="M154.312 0.795429H151.168V7.53943C150.832 6.91543 149.872 6.07543 147.832 6.07543C144.496 6.07543 142.168 8.78743 142.168 12.2434C142.168 15.8194 144.568 18.4594 147.928 18.4594C149.512 18.4594 150.712 17.7394 151.24 16.8034C151.24 17.3554 151.312 17.9314 151.36 18.1714H154.408C154.36 17.6914 154.312 16.8274 154.312 16.0354V0.795429ZM145.384 12.2434C145.384 10.1314 146.68 8.93143 148.312 8.93143C149.944 8.93143 151.216 10.1074 151.216 12.2194C151.216 14.3554 149.944 15.6034 148.312 15.6034C146.632 15.6034 145.384 14.3554 145.384 12.2434Z" fill="white"/>
<path d="M160.102 10.9234C160.174 9.84343 161.086 8.59543 162.742 8.59543C164.566 8.59543 165.334 9.74743 165.382 10.9234H160.102ZM165.694 13.9954C165.31 15.0514 164.494 15.7954 163.006 15.7954C161.422 15.7954 160.102 14.6674 160.03 13.1074H168.478C168.478 13.0594 168.526 12.5794 168.526 12.1234C168.526 8.33143 166.342 6.00343 162.694 6.00343C159.67 6.00343 156.886 8.45143 156.886 12.2194C156.886 16.2034 159.742 18.5314 162.982 18.5314C165.886 18.5314 167.758 16.8274 168.358 14.7874L165.694 13.9954Z" fill="white"/>
<path d="M174.232 18.1714V0.795429H171.04V18.1714H174.232Z" fill="white"/>
<path d="M180.841 18.1714V6.36343H177.649V18.1714H180.841ZM177.265 2.49943C177.265 3.55543 178.153 4.44343 179.233 4.44343C180.337 4.44343 181.201 3.55543 181.201 2.49943C181.201 1.39543 180.337 0.507429 179.233 0.507429C178.153 0.507429 177.265 1.39543 177.265 2.49943Z" fill="white"/>
<path d="M188.195 2.83543H185.315V4.49143C185.315 5.54743 184.739 6.36343 183.491 6.36343H182.891V9.19543H185.027V14.6914C185.027 16.9714 186.467 18.3394 188.771 18.3394C189.707 18.3394 190.283 18.1714 190.571 18.0514V15.4114C190.403 15.4594 189.971 15.5074 189.587 15.5074C188.675 15.5074 188.195 15.1714 188.195 14.1394V9.19543H190.571V6.36343H188.195V2.83543Z" fill="white"/>
<path d="M197.62 22.8274L205.036 6.36343H201.628L198.724 13.2754L195.58 6.36343H192.004L197.02 16.6834L194.236 22.8274H197.62Z" fill="white"/>
</svg>
