<svg width="285" height="24" viewBox="0 0 285 24" fill="none" xmlns="http://www.w3.org/2000/svg">
<path d="M4.368 9.99428C4.368 6.15428 7.05601 4.33028 9.67201 4.33028C12.312 4.33028 15 6.15428 15 9.99428C15 13.8343 12.312 15.6583 9.67201 15.6583C7.05601 15.6583 4.368 13.8343 4.368 9.99428ZM0.936005 10.0183C0.936005 15.4903 5.06401 18.8743 9.67201 18.8743C14.304 18.8743 18.432 15.4903 18.432 10.0183C18.432 4.52228 14.304 1.13828 9.67201 1.13828C5.06401 1.13828 0.936005 4.52228 0.936005 10.0183Z" fill="#311422"/>
<path d="M24.1851 11.5783C24.2571 10.2823 25.0491 9.27428 26.3931 9.27428C27.9291 9.27428 28.5771 10.3063 28.5771 11.6263V18.5143H31.7691V11.0743C31.7691 8.48228 30.3771 6.39428 27.3771 6.39428C26.2491 6.39428 24.9531 6.77828 24.1851 7.69028V1.13828H20.9931V18.5143H24.1851V11.5783Z" fill="#311422"/>
<path d="M34.7687 16.5943C34.7687 17.7463 35.5847 18.5863 36.7607 18.5863C37.0247 18.5863 37.2887 18.5143 37.3847 18.4423C37.3367 19.7623 36.1847 20.7943 35.1047 21.0343V22.5703C36.8807 22.3543 39.3287 20.8663 39.3287 17.3383C39.3287 15.7783 38.4407 14.5783 36.9527 14.5783C35.7047 14.5783 34.7687 15.4423 34.7687 16.5943Z" fill="#311422"/>
<path d="M52.4949 23.1703L59.9109 6.70628H56.5029L53.5989 13.6183L50.4549 6.70628H46.8789L51.8949 17.0263L49.1109 23.1703H52.4949Z" fill="#311422"/>
<path d="M66.5861 15.9703C65.0261 15.9703 63.5861 14.8183 63.5861 12.6103C63.5861 10.3783 65.0261 9.25028 66.5861 9.25028C68.1461 9.25028 69.5861 10.3783 69.5861 12.6103C69.5861 14.8423 68.1461 15.9703 66.5861 15.9703ZM66.5861 6.34628C63.0581 6.34628 60.3941 8.96228 60.3941 12.6103C60.3941 16.2343 63.0581 18.8743 66.5861 18.8743C70.1141 18.8743 72.7781 16.2343 72.7781 12.6103C72.7781 8.96228 70.1141 6.34628 66.5861 6.34628Z" fill="#311422"/>
<path d="M82.9789 18.5143H86.0269C85.9789 18.1063 85.9069 17.2903 85.9069 16.3783V6.70628H82.7149V13.5703C82.7149 14.9383 81.8989 15.8983 80.4829 15.8983C78.9949 15.8983 78.3229 14.8423 78.3229 13.5223V6.70628H75.1309V14.1703C75.1309 16.7383 76.7629 18.8263 79.6189 18.8263C80.8669 18.8263 82.2349 18.3463 82.8829 17.2423C82.8829 17.7223 82.9309 18.2743 82.9789 18.5143Z" fill="#311422"/>
<path d="M101.939 6.70628L99.3711 14.2903L97.1871 6.70628H93.8271L97.5951 18.5143H100.835L103.547 10.4503L106.307 18.5143H109.499L113.195 6.70628H110.027L107.843 14.3143L105.299 6.70628H101.939Z" fill="#311422"/>
<path d="M117.212 11.2663C117.284 10.1863 118.196 8.93828 119.852 8.93828C121.676 8.93828 122.444 10.0903 122.492 11.2663H117.212ZM122.804 14.3383C122.42 15.3943 121.604 16.1383 120.116 16.1383C118.532 16.1383 117.212 15.0103 117.14 13.4503H125.588C125.588 13.4023 125.636 12.9223 125.636 12.4663C125.636 8.67428 123.452 6.34628 119.804 6.34628C116.78 6.34628 113.996 8.79428 113.996 12.5623C113.996 16.5463 116.852 18.8743 120.092 18.8743C122.996 18.8743 124.868 17.1703 125.468 15.1303L122.804 14.3383Z" fill="#311422"/>
<path d="M135.349 6.65828C135.109 6.63428 134.869 6.61028 134.605 6.61028C133.597 6.61028 131.965 6.89828 131.245 8.45828V6.70628H128.149V18.5143H131.341V13.1143C131.341 10.5703 132.757 9.77828 134.389 9.77828C134.677 9.77828 134.989 9.80228 135.349 9.87428V6.65828Z" fill="#311422"/>
<path d="M139.805 11.2663C139.877 10.1863 140.789 8.93828 142.445 8.93828C144.269 8.93828 145.037 10.0903 145.085 11.2663H139.805ZM145.397 14.3383C145.013 15.3943 144.197 16.1383 142.709 16.1383C141.125 16.1383 139.805 15.0103 139.733 13.4503H148.181C148.181 13.4023 148.229 12.9223 148.229 12.4663C148.229 8.67428 146.045 6.34628 142.397 6.34628C139.373 6.34628 136.589 8.79428 136.589 12.5623C136.589 16.5463 139.445 18.8743 142.685 18.8743C145.589 18.8743 147.461 17.1703 148.061 15.1303L145.397 14.3383Z" fill="#311422"/>
<path d="M161.977 15.9703C160.417 15.9703 158.977 14.8183 158.977 12.6103C158.977 10.3783 160.417 9.25028 161.977 9.25028C163.537 9.25028 164.977 10.3783 164.977 12.6103C164.977 14.8423 163.537 15.9703 161.977 15.9703ZM161.977 6.34628C158.449 6.34628 155.785 8.96228 155.785 12.6103C155.785 16.2343 158.449 18.8743 161.977 18.8743C165.505 18.8743 168.169 16.2343 168.169 12.6103C168.169 8.96228 165.505 6.34628 161.977 6.34628Z" fill="#311422"/>
<path d="M173.88 11.7223C173.88 10.3543 174.696 9.27428 176.088 9.27428C177.624 9.27428 178.272 10.3063 178.272 11.6263V18.5143H181.464V11.0743C181.464 8.48228 180.12 6.39428 177.192 6.39428C175.92 6.39428 174.504 6.94628 173.784 8.17028V6.70628H170.688V18.5143H173.88V11.7223Z" fill="#311422"/>
<path d="M193.826 18.5143V11.6023C193.826 10.3063 194.642 9.27428 196.034 9.27428C197.474 9.27428 198.122 10.2343 198.122 11.5063V18.5143H201.29V11.6023C201.29 10.3303 202.106 9.27428 203.474 9.27428C204.938 9.27428 205.562 10.2343 205.562 11.5063V18.5143H208.658V10.8583C208.658 7.69028 206.57 6.37028 204.386 6.37028C202.826 6.37028 201.578 6.89828 200.642 8.33828C200.042 7.06628 198.746 6.37028 197.138 6.37028C195.842 6.37028 194.33 6.99428 193.682 8.14628V6.70628H190.634V18.5143H193.826Z" fill="#311422"/>
<path d="M215.761 23.1703L223.177 6.70628H219.769L216.865 13.6183L213.721 6.70628H210.145L215.161 17.0263L212.377 23.1703H215.761Z" fill="#311422"/>
<path d="M234.232 18.5143V11.6023C234.232 10.3063 235.048 9.27428 236.44 9.27428C237.88 9.27428 238.528 10.2343 238.528 11.5063V18.5143H241.696V11.6023C241.696 10.3303 242.512 9.27428 243.88 9.27428C245.344 9.27428 245.968 10.2343 245.968 11.5063V18.5143H249.064V10.8583C249.064 7.69028 246.976 6.37028 244.792 6.37028C243.232 6.37028 241.984 6.89828 241.048 8.33828C240.448 7.06628 239.152 6.37028 237.544 6.37028C236.248 6.37028 234.736 6.99428 234.088 8.14628V6.70628H231.04V18.5143H234.232Z" fill="#311422"/>
<path d="M255.49 18.5143V6.70628H252.298V18.5143H255.49ZM251.914 2.84228C251.914 3.89828 252.802 4.78628 253.882 4.78628C254.986 4.78628 255.85 3.89828 255.85 2.84228C255.85 1.73828 254.986 0.850281 253.882 0.850281C252.802 0.850281 251.914 1.73828 251.914 2.84228Z" fill="#311422"/>
<path d="M262.099 11.7223C262.099 10.3543 262.915 9.27428 264.307 9.27428C265.843 9.27428 266.491 10.3063 266.491 11.6263V18.5143H269.683V11.0743C269.683 8.48228 268.339 6.39428 265.411 6.39428C264.139 6.39428 262.723 6.94628 262.003 8.17028V6.70628H258.907V18.5143H262.099V11.7223Z" fill="#311422"/>
<path d="M284.179 1.13828H281.035V7.88228C280.699 7.25828 279.739 6.41828 277.699 6.41828C274.363 6.41828 272.035 9.13028 272.035 12.5863C272.035 16.1623 274.435 18.8023 277.795 18.8023C279.379 18.8023 280.579 18.0823 281.107 17.1463C281.107 17.6983 281.179 18.2743 281.227 18.5143H284.275C284.227 18.0343 284.179 17.1703 284.179 16.3783V1.13828ZM275.251 12.5863C275.251 10.4743 276.547 9.27428 278.179 9.27428C279.811 9.27428 281.083 10.4503 281.083 12.5623C281.083 14.6983 279.811 15.9463 278.179 15.9463C276.499 15.9463 275.251 14.6983 275.251 12.5863Z" fill="#311422"/>
</svg>
