<svg width="257" height="19" viewBox="0 0 257 19" fill="none" xmlns="http://www.w3.org/2000/svg">
<path d="M0.944 0.841146V17.8571H7.52C10.712 17.8571 12.776 15.8651 12.776 13.1051C12.776 10.9931 11.432 9.48115 9.776 9.07315C11.192 8.59315 12.248 7.17715 12.248 5.42515C12.248 2.78515 10.376 0.841146 7.064 0.841146H0.944ZM4.208 7.87315V3.62515H6.536C8.144 3.62515 8.984 4.44115 8.984 5.73715C8.984 7.03315 8.072 7.87315 6.56 7.87315H4.208ZM4.208 15.0971V10.6091H6.944C8.6 10.6091 9.464 11.5451 9.464 12.8891C9.464 14.2571 8.504 15.0971 6.896 15.0971H4.208Z" fill="#311422"/>
<path d="M22.8929 17.8571H25.9409C25.8929 17.4491 25.8209 16.6331 25.8209 15.7211V6.04915H22.6289V12.9131C22.6289 14.2811 21.8129 15.2411 20.3969 15.2411C18.9089 15.2411 18.2369 14.1851 18.2369 12.8651V6.04915H15.0449V13.5131C15.0449 16.0811 16.6769 18.1691 19.5329 18.1691C20.7809 18.1691 22.1489 17.6891 22.7969 16.5851C22.7969 17.0651 22.8449 17.6171 22.8929 17.8571Z" fill="#311422"/>
<path d="M33.1634 2.52115H30.2834V4.17715C30.2834 5.23315 29.7074 6.04915 28.4594 6.04915H27.8594V8.88115H29.9954V14.3771C29.9954 16.6571 31.4354 18.0251 33.7394 18.0251C34.6754 18.0251 35.2514 17.8571 35.5394 17.7371V15.0971C35.3714 15.1451 34.9394 15.1931 34.5554 15.1931C33.6434 15.1931 33.1634 14.8571 33.1634 13.8251V8.88115H35.5394V6.04915H33.1634V2.52115Z" fill="#311422"/>
<path d="M47.7103 17.8571V0.841146H44.3503V17.8571H47.7103Z" fill="#311422"/>
<path d="M60.4741 10.9211C60.5461 9.62515 61.3381 8.61715 62.6821 8.61715C64.2181 8.61715 64.8661 9.64915 64.8661 10.9691V17.8571H68.0581V10.4171C68.0581 7.82515 66.6661 5.73715 63.6661 5.73715C62.5381 5.73715 61.2421 6.12115 60.4741 7.03315V0.481146H57.2821V17.8571H60.4741V10.9211Z" fill="#311422"/>
<path d="M73.6257 10.6091C73.6977 9.52915 74.6097 8.28115 76.2657 8.28115C78.0897 8.28115 78.8577 9.43315 78.9057 10.6091H73.6257ZM79.2178 13.6811C78.8338 14.7371 78.0177 15.4811 76.5297 15.4811C74.9457 15.4811 73.6257 14.3531 73.5537 12.7931H82.0017C82.0017 12.7451 82.0498 12.2651 82.0498 11.8091C82.0498 8.01715 79.8658 5.68915 76.2178 5.68915C73.1938 5.68915 70.4098 8.13715 70.4098 11.9051C70.4098 15.8891 73.2658 18.2171 76.5058 18.2171C79.4098 18.2171 81.2818 16.5131 81.8818 14.4731L79.2178 13.6811Z" fill="#311422"/>
<path d="M83.8434 14.6411C83.8434 16.4891 85.3794 18.1931 87.8994 18.1931C89.6514 18.1931 90.7794 17.3771 91.3794 16.4411C91.3794 16.8971 91.4274 17.5451 91.4994 17.8571H94.4274C94.3554 17.4491 94.2834 16.6091 94.2834 15.9851V10.1771C94.2834 7.80115 92.8914 5.68915 89.1474 5.68915C85.9794 5.68915 84.2754 7.72915 84.0834 9.57715L86.9154 10.1771C87.0114 9.14515 87.7794 8.25715 89.1714 8.25715C90.5154 8.25715 91.1634 8.95315 91.1634 9.79315C91.1634 10.2011 90.9474 10.5371 90.2754 10.6331L87.3714 11.0651C85.4034 11.3531 83.8434 12.5291 83.8434 14.6411ZM88.5714 15.8171C87.5394 15.8171 87.0354 15.1451 87.0354 14.4491C87.0354 13.5371 87.6834 13.0811 88.4994 12.9611L91.1634 12.5531V13.0811C91.1634 15.1691 89.9154 15.8171 88.5714 15.8171Z" fill="#311422"/>
<path d="M104.701 6.00115C104.461 5.97715 104.221 5.95315 103.957 5.95315C102.949 5.95315 101.317 6.24115 100.597 7.80115V6.04915H97.5009V17.8571H100.693V12.4571C100.693 9.91315 102.109 9.12115 103.741 9.12115C104.029 9.12115 104.341 9.14515 104.701 9.21715V6.00115Z" fill="#311422"/>
<path d="M118.085 0.481146H114.941V7.22515C114.605 6.60115 113.645 5.76115 111.605 5.76115C108.269 5.76115 105.941 8.47315 105.941 11.9291C105.941 15.5051 108.341 18.1451 111.701 18.1451C113.285 18.1451 114.485 17.4251 115.013 16.4891C115.013 17.0411 115.085 17.6171 115.133 17.8571H118.181C118.133 17.3771 118.085 16.5131 118.085 15.7211V0.481146ZM109.157 11.9291C109.157 9.81715 110.453 8.61715 112.085 8.61715C113.717 8.61715 114.989 9.79315 114.989 11.9051C114.989 14.0411 113.717 15.2891 112.085 15.2891C110.405 15.2891 109.157 14.0411 109.157 11.9291Z" fill="#311422"/>
<path d="M130.669 17.8571V0.481146H127.477V17.8571H130.669Z" fill="#311422"/>
<path d="M139.391 15.3131C137.831 15.3131 136.391 14.1611 136.391 11.9531C136.391 9.72115 137.831 8.59315 139.391 8.59315C140.951 8.59315 142.391 9.72115 142.391 11.9531C142.391 14.1851 140.951 15.3131 139.391 15.3131ZM139.391 5.68915C135.863 5.68915 133.199 8.30515 133.199 11.9531C133.199 15.5771 135.863 18.2171 139.391 18.2171C142.919 18.2171 145.583 15.5771 145.583 11.9531C145.583 8.30515 142.919 5.68915 139.391 5.68915Z" fill="#311422"/>
<path d="M158.887 6.04915H155.527L152.719 13.9691L149.791 6.04915H146.287L151.111 17.8571H154.303L158.887 6.04915Z" fill="#311422"/>
<path d="M162.805 10.6091C162.877 9.52915 163.789 8.28115 165.445 8.28115C167.269 8.28115 168.037 9.43315 168.085 10.6091H162.805ZM168.397 13.6811C168.013 14.7371 167.197 15.4811 165.709 15.4811C164.125 15.4811 162.805 14.3531 162.733 12.7931H171.181C171.181 12.7451 171.229 12.2651 171.229 11.8091C171.229 8.01715 169.045 5.68915 165.397 5.68915C162.373 5.68915 159.589 8.13715 159.589 11.9051C159.589 15.8891 162.445 18.2171 165.685 18.2171C168.589 18.2171 170.461 16.5131 171.061 14.4731L168.397 13.6811Z" fill="#311422"/>
<path d="M182.865 17.8571V6.04915H179.673V17.8571H182.865ZM179.289 2.18515C179.289 3.24115 180.177 4.12915 181.257 4.12915C182.361 4.12915 183.225 3.24115 183.225 2.18515C183.225 1.08115 182.361 0.193146 181.257 0.193146C180.177 0.193146 179.289 1.08115 179.289 2.18515Z" fill="#311422"/>
<path d="M185.274 14.5691C185.418 15.9131 186.642 18.2171 190.194 18.2171C193.29 18.2171 194.778 16.2491 194.778 14.3291C194.778 12.6011 193.602 11.1851 191.274 10.7051L189.594 10.3451C188.946 10.2251 188.514 9.86515 188.514 9.28915C188.514 8.61715 189.186 8.11315 190.026 8.11315C191.37 8.11315 191.874 9.00115 191.97 9.69715L194.634 9.09715C194.49 7.82515 193.362 5.68915 190.002 5.68915C187.458 5.68915 185.586 7.44115 185.586 9.55315C185.586 11.2091 186.618 12.5771 188.898 13.0811L190.458 13.4411C191.37 13.6331 191.73 14.0651 191.73 14.5931C191.73 15.2171 191.226 15.7691 190.17 15.7691C188.778 15.7691 188.082 14.9051 188.01 13.9691L185.274 14.5691Z" fill="#311422"/>
<path d="M206.37 17.8571V16.4171C206.994 17.4251 208.242 18.1451 209.874 18.1451C213.234 18.1451 215.442 15.4811 215.442 11.9051C215.442 8.40115 213.45 5.73715 209.994 5.73715C208.242 5.73715 206.946 6.50515 206.418 7.34515V0.481146H203.274V17.8571H206.37ZM212.25 11.9291C212.25 14.0891 210.954 15.2891 209.322 15.2891C207.714 15.2891 206.37 14.0651 206.37 11.9291C206.37 9.76915 207.714 8.59315 209.322 8.59315C210.954 8.59315 212.25 9.76915 212.25 11.9291Z" fill="#311422"/>
<path d="M221.162 17.8571V0.481146H217.97V17.8571H221.162Z" fill="#311422"/>
<path d="M227.771 17.8571V6.04915H224.579V17.8571H227.771ZM224.195 2.18515C224.195 3.24115 225.083 4.12915 226.163 4.12915C227.267 4.12915 228.131 3.24115 228.131 2.18515C228.131 1.08115 227.267 0.193146 226.163 0.193146C225.083 0.193146 224.195 1.08115 224.195 2.18515Z" fill="#311422"/>
<path d="M234.38 11.0651C234.38 9.69715 235.196 8.61715 236.588 8.61715C238.124 8.61715 238.772 9.64915 238.772 10.9691V17.8571H241.964V10.4171C241.964 7.82515 240.62 5.73715 237.692 5.73715C236.42 5.73715 235.004 6.28915 234.284 7.51315V6.04915H231.188V17.8571H234.38V11.0651Z" fill="#311422"/>
<path d="M256.46 0.481146H253.316V7.22515C252.98 6.60115 252.02 5.76115 249.98 5.76115C246.644 5.76115 244.316 8.47315 244.316 11.9291C244.316 15.5051 246.716 18.1451 250.076 18.1451C251.66 18.1451 252.86 17.4251 253.388 16.4891C253.388 17.0411 253.46 17.6171 253.508 17.8571H256.556C256.508 17.3771 256.46 16.5131 256.46 15.7211V0.481146ZM247.532 11.9291C247.532 9.81715 248.828 8.61715 250.46 8.61715C252.092 8.61715 253.364 9.79315 253.364 11.9051C253.364 14.0411 252.092 15.2891 250.46 15.2891C248.78 15.2891 247.532 14.0411 247.532 11.9291Z" fill="#311422"/>
</svg>
