<svg width="175" height="24" viewBox="0 0 175 24" fill="none" xmlns="http://www.w3.org/2000/svg">
<path d="M4.304 18.3428V1.32685H0.944V18.3428H4.304Z" fill="#311422"/>
<path d="M11.8822 3.00685H9.00219V4.66285C9.00219 5.71885 8.42619 6.53485 7.17819 6.53485H6.57819V9.36685H8.71419V14.8629C8.71419 17.1429 10.1542 18.5108 12.4582 18.5108C13.3942 18.5108 13.9702 18.3428 14.2582 18.2228V15.5828C14.0902 15.6308 13.6582 15.6789 13.2742 15.6789C12.3622 15.6789 11.8822 15.3429 11.8822 14.3109V9.36685H14.2582V6.53485H11.8822V3.00685Z" fill="#311422"/>
<path d="M15.7769 2.91085C15.7769 3.91885 16.4489 4.63885 17.5289 4.63885C17.7449 4.63885 17.9129 4.59085 18.0329 4.51885C17.9849 5.62285 16.9769 6.41485 16.0649 6.55885V8.02285C17.5769 7.87885 19.7849 6.70285 19.7849 3.48685C19.7849 2.21485 18.9689 1.15885 17.6969 1.15885C16.5689 1.15885 15.7769 1.97485 15.7769 2.91085Z" fill="#311422"/>
<path d="M19.9929 15.0548C20.1369 16.3988 21.3609 18.7029 24.9129 18.7029C28.0089 18.7029 29.4969 16.7348 29.4969 14.8148C29.4969 13.0868 28.3209 11.6708 25.9929 11.1908L24.3129 10.8308C23.6649 10.7108 23.2329 10.3508 23.2329 9.77485C23.2329 9.10285 23.9049 8.59885 24.7449 8.59885C26.0889 8.59885 26.5929 9.48685 26.6889 10.1828L29.3529 9.58285C29.2089 8.31085 28.0809 6.17485 24.7209 6.17485C22.1769 6.17485 20.3049 7.92685 20.3049 10.0388C20.3049 11.6948 21.3369 13.0628 23.6169 13.5668L25.1769 13.9268C26.0889 14.1188 26.4489 14.5508 26.4489 15.0788C26.4489 15.7028 25.9449 16.2549 24.8889 16.2549C23.4969 16.2549 22.8009 15.3908 22.7289 14.4548L19.9929 15.0548Z" fill="#311422"/>
<path d="M41.1851 11.5508C41.1851 10.1829 42.0011 9.10285 43.3931 9.10285C44.9291 9.10285 45.5771 10.1348 45.5771 11.4548V18.3428H48.7691V10.9028C48.7691 8.31085 47.4251 6.22285 44.4971 6.22285C43.2251 6.22285 41.8091 6.77485 41.0891 7.99885V6.53485H37.9931V18.3428H41.1851V11.5508Z" fill="#311422"/>
<path d="M57.3127 15.7988C55.7527 15.7988 54.3127 14.6469 54.3127 12.4389C54.3127 10.2069 55.7527 9.07885 57.3127 9.07885C58.8727 9.07885 60.3127 10.2069 60.3127 12.4389C60.3127 14.6709 58.8727 15.7988 57.3127 15.7988ZM57.3127 6.17485C53.7847 6.17485 51.1207 8.79085 51.1207 12.4389C51.1207 16.0629 53.7847 18.7029 57.3127 18.7029C60.8407 18.7029 63.5047 16.0629 63.5047 12.4389C63.5047 8.79085 60.8407 6.17485 57.3127 6.17485Z" fill="#311422"/>
<path d="M69.9134 3.00685H67.0334V4.66285C67.0334 5.71885 66.4574 6.53485 65.2094 6.53485H64.6094V9.36685H66.7454V14.8629C66.7454 17.1429 68.1854 18.5108 70.4894 18.5108C71.4254 18.5108 72.0014 18.3428 72.2894 18.2228V15.5828C72.1214 15.6308 71.6894 15.6789 71.3054 15.6789C70.3934 15.6789 69.9134 15.3429 69.9134 14.3109V9.36685H72.2894V6.53485H69.9134V3.00685Z" fill="#311422"/>
<path d="M86.1643 9.12685C87.7483 9.12685 88.4923 10.1348 88.7803 11.1188L91.6363 10.1588C91.1323 8.16685 89.3082 6.17485 86.0922 6.17485C82.6602 6.17485 79.9723 8.79085 79.9723 12.4389C79.9723 16.0629 82.7082 18.7029 86.1882 18.7029C89.3322 18.7029 91.1803 16.6868 91.7083 14.7188L88.9003 13.7829C88.6363 14.6949 87.8202 15.7748 86.1882 15.7748C84.5562 15.7748 83.1643 14.5749 83.1643 12.4389C83.1643 10.3029 84.5323 9.12685 86.1643 9.12685Z" fill="#311422"/>
<path d="M97.2476 11.4068C97.3196 10.1108 98.1116 9.10285 99.4556 9.10285C100.992 9.10285 101.64 10.1348 101.64 11.4548V18.3428H104.832V10.9028C104.832 8.31085 103.44 6.22285 100.44 6.22285C99.3116 6.22285 98.0156 6.60685 97.2476 7.51885V0.966849H94.0556V18.3428H97.2476V11.4068Z" fill="#311422"/>
<path d="M110.399 11.0948C110.471 10.0148 111.383 8.76685 113.039 8.76685C114.863 8.76685 115.631 9.91885 115.679 11.0948H110.399ZM115.991 14.1668C115.607 15.2228 114.791 15.9669 113.303 15.9669C111.719 15.9669 110.399 14.8388 110.327 13.2788H118.775C118.775 13.2308 118.823 12.7508 118.823 12.2948C118.823 8.50285 116.639 6.17485 112.991 6.17485C109.967 6.17485 107.183 8.62285 107.183 12.3909C107.183 16.3749 110.039 18.7029 113.279 18.7029C116.183 18.7029 118.055 16.9988 118.655 14.9588L115.991 14.1668Z" fill="#311422"/>
<path d="M120.617 15.1269C120.617 16.9749 122.153 18.6789 124.673 18.6789C126.425 18.6789 127.553 17.8628 128.153 16.9268C128.153 17.3828 128.201 18.0308 128.273 18.3428H131.201C131.129 17.9348 131.057 17.0949 131.057 16.4708V10.6628C131.057 8.28685 129.665 6.17485 125.921 6.17485C122.753 6.17485 121.049 8.21485 120.857 10.0628L123.689 10.6628C123.785 9.63085 124.553 8.74285 125.945 8.74285C127.289 8.74285 127.937 9.43885 127.937 10.2788C127.937 10.6868 127.721 11.0228 127.049 11.1188L124.145 11.5508C122.177 11.8388 120.617 13.0148 120.617 15.1269ZM125.345 16.3028C124.313 16.3028 123.809 15.6308 123.809 14.9348C123.809 14.0228 124.457 13.5668 125.273 13.4468L127.937 13.0388V13.5668C127.937 15.6548 126.689 16.3028 125.345 16.3028Z" fill="#311422"/>
<path d="M138.14 3.00685H135.26V4.66285C135.26 5.71885 134.684 6.53485 133.436 6.53485H132.836V9.36685H134.972V14.8629C134.972 17.1429 136.412 18.5108 138.716 18.5108C139.652 18.5108 140.228 18.3428 140.516 18.2228V15.5828C140.348 15.6308 139.916 15.6789 139.532 15.6789C138.62 15.6789 138.14 15.3429 138.14 14.3109V9.36685H140.516V6.53485H138.14V3.00685Z" fill="#311422"/>
<path d="M146.419 18.3428V6.53485H143.227V18.3428H146.419ZM142.843 2.67085C142.843 3.72685 143.731 4.61485 144.811 4.61485C145.915 4.61485 146.779 3.72685 146.779 2.67085C146.779 1.56685 145.915 0.678848 144.811 0.678848C143.731 0.678848 142.843 1.56685 142.843 2.67085Z" fill="#311422"/>
<path d="M153.029 11.5508C153.029 10.1829 153.845 9.10285 155.237 9.10285C156.773 9.10285 157.421 10.1348 157.421 11.4548V18.3428H160.613V10.9028C160.613 8.31085 159.269 6.22285 156.341 6.22285C155.069 6.22285 153.653 6.77485 152.933 7.99885V6.53485H149.837V18.3428H153.029V11.5508Z" fill="#311422"/>
<path d="M163.012 18.9909C163.348 21.2469 165.508 23.2628 168.748 23.2628C173.188 23.2628 174.94 20.3109 174.94 17.0709V6.53485H171.868V7.92685C171.46 7.13485 170.38 6.31885 168.508 6.31885C165.268 6.31885 163.012 8.95885 163.012 12.0788C163.012 15.3908 165.364 17.8148 168.508 17.8148C170.212 17.8148 171.316 17.0708 171.796 16.3028V17.1668C171.796 19.4468 170.668 20.4548 168.652 20.4548C167.14 20.4548 166.108 19.5188 165.892 18.2228L163.012 18.9909ZM169.06 15.0788C167.404 15.0788 166.228 13.9268 166.228 12.0788C166.228 10.2548 167.476 9.10285 169.06 9.10285C170.596 9.10285 171.844 10.2548 171.844 12.0788C171.844 13.9028 170.692 15.0788 169.06 15.0788Z" fill="#311422"/>
</svg>
