<svg width="251" height="23" viewBox="0 0 251 23" fill="none" xmlns="http://www.w3.org/2000/svg">
<path d="M6.16801 10.5337V17.6857H9.48001V10.5337L15.48 0.669729H11.76L7.94401 7.41373L4.12801 0.669729H0.240005L6.16801 10.5337Z" fill="#311422"/>
<path d="M17.3914 10.4377C17.4634 9.35773 18.3754 8.10973 20.0314 8.10973C21.8554 8.10973 22.6234 9.26173 22.6714 10.4377H17.3914ZM22.9834 13.5097C22.5994 14.5657 21.7834 15.3097 20.2954 15.3097C18.7114 15.3097 17.3914 14.1817 17.3194 12.6217H25.7674C25.7674 12.5737 25.8154 12.0937 25.8154 11.6377C25.8154 7.84573 23.6314 5.51773 19.9834 5.51773C16.9594 5.51773 14.1754 7.96573 14.1754 11.7337C14.1754 15.7177 17.0314 18.0457 20.2714 18.0457C23.1754 18.0457 25.0474 16.3417 25.6474 14.3017L22.9834 13.5097Z" fill="#311422"/>
<path d="M27.321 14.3977C27.465 15.7417 28.689 18.0457 32.241 18.0457C35.337 18.0457 36.825 16.0777 36.825 14.1577C36.825 12.4297 35.649 11.0137 33.321 10.5337L31.641 10.1737C30.993 10.0537 30.561 9.69373 30.561 9.11773C30.561 8.44573 31.233 7.94173 32.073 7.94173C33.417 7.94173 33.921 8.82973 34.017 9.52573L36.681 8.92573C36.537 7.65373 35.409 5.51773 32.049 5.51773C29.505 5.51773 27.633 7.26973 27.633 9.38173C27.633 11.0377 28.665 12.4057 30.945 12.9097L32.505 13.2697C33.417 13.4617 33.777 13.8937 33.777 14.4217C33.777 15.0457 33.273 15.5977 32.217 15.5977C30.825 15.5977 30.129 14.7337 30.057 13.7977L27.321 14.3977Z" fill="#311422"/>
<path d="M39.1515 15.7657C39.1515 16.9177 39.9675 17.7577 41.1435 17.7577C41.4075 17.7577 41.6715 17.6857 41.7675 17.6137C41.7195 18.9337 40.5675 19.9657 39.4875 20.2057V21.7417C41.2635 21.5257 43.7115 20.0377 43.7115 16.5097C43.7115 14.9497 42.8235 13.7497 41.3355 13.7497C40.0875 13.7497 39.1515 14.6137 39.1515 15.7657Z" fill="#311422"/>
<path d="M55.9898 10.7497C56.0618 9.45373 56.8538 8.44573 58.1978 8.44573C59.7338 8.44573 60.3818 9.47773 60.3818 10.7977V17.6857H63.5738V10.2457C63.5738 7.65373 62.1818 5.56573 59.1818 5.56573C58.0538 5.56573 56.7578 5.94973 55.9898 6.86173V0.309729H52.7978V17.6857H55.9898V10.7497Z" fill="#311422"/>
<path d="M69.1414 10.4377C69.2134 9.35773 70.1254 8.10973 71.7814 8.10973C73.6054 8.10973 74.3734 9.26173 74.4214 10.4377H69.1414ZM74.7334 13.5097C74.3494 14.5657 73.5334 15.3097 72.0454 15.3097C70.4614 15.3097 69.1414 14.1817 69.0694 12.6217H77.5174C77.5174 12.5737 77.5654 12.0937 77.5654 11.6377C77.5654 7.84573 75.3814 5.51773 71.7334 5.51773C68.7094 5.51773 65.9254 7.96573 65.9254 11.7337C65.9254 15.7177 68.7814 18.0457 72.0214 18.0457C74.9254 18.0457 76.7974 16.3417 77.3974 14.3017L74.7334 13.5097Z" fill="#311422"/>
<path d="M89.2007 17.6857V0.309729H86.0087V17.6857H89.2007Z" fill="#311422"/>
<path d="M97.9221 15.1417C96.3621 15.1417 94.9221 13.9897 94.9221 11.7817C94.9221 9.54973 96.3621 8.42173 97.9221 8.42173C99.4821 8.42173 100.922 9.54973 100.922 11.7817C100.922 14.0137 99.4821 15.1417 97.9221 15.1417ZM97.9221 5.51773C94.3941 5.51773 91.7301 8.13373 91.7301 11.7817C91.7301 15.4057 94.3941 18.0457 97.9221 18.0457C101.45 18.0457 104.114 15.4057 104.114 11.7817C104.114 8.13373 101.45 5.51773 97.9221 5.51773Z" fill="#311422"/>
<path d="M111.938 15.1417C110.378 15.1417 108.938 13.9897 108.938 11.7817C108.938 9.54973 110.378 8.42173 111.938 8.42173C113.498 8.42173 114.938 9.54973 114.938 11.7817C114.938 14.0137 113.498 15.1417 111.938 15.1417ZM111.938 5.51773C108.41 5.51773 105.746 8.13373 105.746 11.7817C105.746 15.4057 108.41 18.0457 111.938 18.0457C115.466 18.0457 118.13 15.4057 118.13 11.7817C118.13 8.13373 115.466 5.51773 111.938 5.51773Z" fill="#311422"/>
<path d="M132.097 5.87773H127.921L123.841 10.2697V0.309729H120.649V17.6857H123.841V14.5657L125.161 13.1737L128.281 17.6857H132.193L127.369 10.8457L132.097 5.87773Z" fill="#311422"/>
<path d="M135.844 10.4377C135.916 9.35773 136.828 8.10973 138.484 8.10973C140.308 8.10973 141.076 9.26173 141.124 10.4377H135.844ZM141.436 13.5097C141.052 14.5657 140.237 15.3097 138.749 15.3097C137.165 15.3097 135.845 14.1817 135.773 12.6217H144.221C144.221 12.5737 144.268 12.0937 144.268 11.6377C144.268 7.84573 142.084 5.51773 138.436 5.51773C135.412 5.51773 132.628 7.96573 132.628 11.7337C132.628 15.7177 135.485 18.0457 138.725 18.0457C141.629 18.0457 143.5 16.3417 144.1 14.3017L141.436 13.5097Z" fill="#311422"/>
<path d="M158.038 0.309729H154.894V7.05373C154.558 6.42973 153.598 5.58973 151.558 5.58973C148.222 5.58973 145.894 8.30173 145.894 11.7577C145.894 15.3337 148.294 17.9737 151.654 17.9737C153.238 17.9737 154.438 17.2537 154.966 16.3177C154.966 16.8697 155.038 17.4457 155.086 17.6857H158.134C158.086 17.2057 158.038 16.3417 158.038 15.5497V0.309729ZM149.11 11.7577C149.11 9.64573 150.406 8.44573 152.038 8.44573C153.67 8.44573 154.942 9.62173 154.942 11.7337C154.942 13.8697 153.67 15.1177 152.038 15.1177C150.358 15.1177 149.11 13.8697 149.11 11.7577Z" fill="#311422"/>
<path d="M170.623 17.6857V0.309729H167.431V17.6857H170.623Z" fill="#311422"/>
<path d="M177.232 17.6857V5.87773H174.04V17.6857H177.232ZM173.656 2.01373C173.656 3.06973 174.544 3.95773 175.624 3.95773C176.728 3.95773 177.592 3.06973 177.592 2.01373C177.592 0.909729 176.728 0.0217285 175.624 0.0217285C174.544 0.0217285 173.656 0.909729 173.656 2.01373Z" fill="#311422"/>
<path d="M192.097 5.87773H187.921L183.841 10.2697V0.309729H180.649V17.6857H183.841V14.5657L185.161 13.1737L188.281 17.6857H192.193L187.369 10.8457L192.097 5.87773Z" fill="#311422"/>
<path d="M195.844 10.4377C195.916 9.35773 196.828 8.10973 198.484 8.10973C200.308 8.10973 201.076 9.26173 201.124 10.4377H195.844ZM201.436 13.5097C201.052 14.5657 200.237 15.3097 198.749 15.3097C197.165 15.3097 195.845 14.1817 195.773 12.6217H204.221C204.221 12.5737 204.268 12.0937 204.268 11.6377C204.268 7.84573 202.084 5.51773 198.436 5.51773C195.412 5.51773 192.628 7.96573 192.628 11.7337C192.628 15.7177 195.485 18.0457 198.725 18.0457C201.629 18.0457 203.5 16.3417 204.1 14.3017L201.436 13.5097Z" fill="#311422"/>
<path d="M216.792 22.3417L224.208 5.87773H220.8L217.896 12.7897L214.752 5.87773H211.176L216.192 16.1977L213.408 22.3417H216.792Z" fill="#311422"/>
<path d="M230.883 15.1417C229.323 15.1417 227.883 13.9897 227.883 11.7817C227.883 9.54973 229.323 8.42173 230.883 8.42173C232.443 8.42173 233.883 9.54973 233.883 11.7817C233.883 14.0137 232.443 15.1417 230.883 15.1417ZM230.883 5.51773C227.355 5.51773 224.691 8.13373 224.691 11.7817C224.691 15.4057 227.355 18.0457 230.883 18.0457C234.411 18.0457 237.075 15.4057 237.075 11.7817C237.075 8.13373 234.411 5.51773 230.883 5.51773Z" fill="#311422"/>
<path d="M247.276 17.6857H250.324C250.276 17.2777 250.204 16.4617 250.204 15.5497V5.87773H247.012V12.7417C247.012 14.1097 246.196 15.0697 244.78 15.0697C243.292 15.0697 242.62 14.0137 242.62 12.6937V5.87773H239.428V13.3417C239.428 15.9097 241.06 17.9977 243.916 17.9977C245.164 17.9977 246.532 17.5177 247.18 16.4137C247.18 16.8937 247.228 17.4457 247.276 17.6857Z" fill="#311422"/>
</svg>
