<?xml version="1.0" encoding="UTF-8"?><svg id="Layer_2" xmlns="http://www.w3.org/2000/svg" xmlns:xlink="http://www.w3.org/1999/xlink" viewBox="0 0 1220.06 196.34"><defs><style>.cls-1{fill:url(#linear-gradient);}</style><linearGradient id="linear-gradient" x1="0" y1="98.17" x2="1220.06" y2="98.17" gradientUnits="userSpaceOnUse"><stop offset="0" stop-color="#ae2896"/><stop offset="1" stop-color="#509bf5"/></linearGradient></defs><g id="Layer_1-2"><path class="cls-1" d="m1218.56,61.11c-.29-.06-.57-.84-.59-1.32-.12-2.33-.89-4.44-1.82-6.56-1.62-3.68-3.18-7.4-4.55-11.19-.95-2.62-.38-3.74,2.09-5.09.48-.27,1.07-.34,1.72-.54-.7-1.83-2.19-.75-3.5-.99.04-3.26,2.13-6.33,1.25-9.7-.14-.05-.27-.1-.41-.16-.6,1.41-1.19,2.82-1.84,4.34-.95-1.95-1.19-4.16-3.18-5.32-.12.54-.1,1.02.02,1.47.24.84.63,1.64.78,2.49.1.59-.09,1.24-.15,1.86-.48-.26-.95-.52-1.43-.78-.44-.23-.86-.51-1.32-.66-1.22-.41-1.67-.26-2.15.54.74.38,1.49.77,2.24,1.16-.04.09-.09.19-.14.28-.63-.17-1.25-.36-1.89-.49-.35-.07-.71-.03-1.07-.04.21.32.4.65.64.94.16.18.39.31.61.43.98.54,1.26,1.34,1.28,2.47.02,1.61.23,3.23.55,4.81.17.82.18,1.33-.64,1.71-.88.41-.85,1.02-.4,1.84.54,1.01,1.01,2.09,1.28,3.2.72,2.94,1.36,5.89,1.95,8.86.85,4.28,1.62,8.57,2.41,12.87.05.3-.08.63-.15,1.12-2.27-1.02-4.16.33-6.01.74.58-.78,1.39-1.5,1.73-2.4.67-1.74,1.23-3.54,1.59-5.37,1-5.17-3.41-10.06-8.59-9.42-2.03.25-4.05.93-5.94,1.73-2.15.91-3.41,2.73-3.8,5.07-.19,1.11-.4,2.21-.53,3.33-.15,1.26-.23,2.53-.34,3.8,1.73.65.48,2.29,1.1,3.31.02.04.04.07.07.1,1.32,1.42.7,3.14.97,4.91-1.16-.46-2.06-.86-2.99-1.17-.74-.24-1.1-.65-1.08-1.44.04-2.16-.05-4.33.07-6.48.29-4.98.56-9.97,1.05-14.93.29-2.95-.4-6.02.92-8.88.11-.24-.34-1.02-.64-1.1-.96-.24-.91-.81-.92-1.6-.01-1.57-.25-3.13-.28-4.7-.02-.64.08-1.37.4-1.9.46-.78,1.15-1.43,1.74-2.13-.1-.14-.2-.28-.29-.43-1.02.53-2.04,1.07-3.07,1.6.49-.73,1.16-1.21,1.79-1.74.22-.18.31-.51.47-.77-.29-.1-.66-.35-.86-.26-.95.44-1.88.94-2.78,1.49-.35.22-.58.62-.99,1.09-1.17-2.34.36-4.39.1-6.71-2.32,1.42-1.85,3.96-2.82,6-.79-1.43-1.47-2.66-2.15-3.89-.17.07-.35.14-.52.21-.33,3.36,1.76,6.13,2.65,9.3-.92.14-1.73.34-2.55.35-.35,0-.86-.29-1.02-.6-2.04-3.81-3.99-7.66-6.05-11.46-.82-1.51-1.2-2.96-.54-4.63.52-1.32.56-2.66,0-4.01-.28-.69-.38-1.45-.66-2.14-.6-1.5-1.23-3-1.91-4.47-.44-.95-1.26-.78-2.05-.55-.88.25-.7.83-.5,1.48.27.88.45,1.78.66,2.67-.04.02-.08.04-.12.07-.5-.73-1-1.46-1.5-2.19-.16.07-.31.15-.47.22.5,1.74,1,3.49,1.49,5.23-.14.07-.29.13-.43.2-.75-.86-1.51-1.72-2.26-2.59-.11.07-.22.13-.33.2.21.6.32,1.26.66,1.78.99,1.53,1.35,3.18,1.34,4.98,0,.59.1,1.31.44,1.76,2.08,2.81,3.05,5.96,3.76,9.38.86,4.13,2.41,8.11,3.64,12.17.21.71.56,1.49.45,2.16-.41,2.41-1.73,4.42-3.13,6.67-.15-.47-.26-.65-.26-.83.01-1.08.06-2.16.09-3.24.1-3.46-1.16-5.32-4.47-6.26-1.36-.38-2.82-.41-4.3-.61,0-1.56-.25-3.27,1.69-4.39-1.39-.82-1.09-1.68-.48-2.67.35-.57.45-1.29.68-2.02-2.51-.66-1.95,2.08-3.39,2.67-1.04-1.39-2.33-.66-3.54-.17-.9.36-1.34.12-1.53-.76-.22-.97-.46-1.94-.6-2.93-.1-.68-.19-1.3-1.04-1.23-.8.07-.85.71-.76,1.31.37,2.55.73,5.1,1.15,7.64.35,2.11.68,4.16-.29,6.24-.76,1.61-1.26,3.34-1.92,5-.5,1.26-1.06,2.5-1.59,3.74-.51-.49-.72-.92-.88-1.37-1.57-4.29-3.16-8.58-4.68-12.89-.15-.43-.03-1.05.18-1.48,1.25-2.58,2.65-5.09,3.83-7.7.59-1.31,1.24-2.34,2.62-2.95.81-.35,1.51-1.04,2.14-1.69,2.03-2.07,3.81-4.38,6.43-5.85,1.17-.66,1.07-1.36,0-2.5-.35.23-.72.5-1.1.72-.71.42-1.4.91-2.17,1.18-.28.1-1.06-.33-1.08-.57-.1-1.03-.65-2.3.92-2.81.1-.03.13-.26.28-.6-1.85.02-1.79-1.06-1.67-2.38.12-1.38-.04-2.79-.09-4.18-.13,0-.26,0-.39,0-.7,1.07-1.33,2.19-2.11,3.2-1.06,1.38-1.75,2.9-1.55,4.62.3,2.54-.81,4.33-2.48,6.08-2.61,2.74-5.02,5.65-7.53,8.49-.21.23-.45.43-.76.72-3.84-5.65-8.73-10.03-14.22-13.82-1.51-1.04-2.78-2.44-4.43-3.92.5-.33.79-.48,1.05-.69.78-.61,1.66-1.15,2.29-1.9.29-.34.08-1.1.09-1.66-.53,0-1.1-.15-1.57,0-.51.17-.94.61-1.72,1.16-.45-1.32-.82-2.42-1.22-3.51-.11-.29-.26-.74-.46-.78-1.49-.32-1.27-1.3-1.11-2.41.23-1.59.21-3.18-.82-4.75-.7,1.47-1.33,2.77-2.02,4.23-.69-.64-1.08-1.06-1.54-1.41-.56-.44-1.82-.04-2.4.7-.53.68,0,1,.42,1.43.62.65,1.16,1.38,1.73,2.07-.08.08-.17.16-.25.24l-2.09-1.56c-.13.07-.27.13-.4.2.16.52.21,1.11.51,1.53.48.67,1.13,1.21,1.7,1.82.51.54.73,1.14.33,2.02-.84-.54-1.58-1.01-2.49-1.59-.24,1.44.67,2,1.39,2.46,1.09.69.92,1.25.17,2.03-1.07,1.11-2.06,2.29-3.12,3.41-4.72,4.96-8.56,10.5-11.23,16.83-.16.39-.38.75-.6,1.18-2.13-3.38-4.18-6.6-6.2-9.84-.39-.62-.74-.98-1.59-.78-.99.23-1.52-.34-1.29-1.37.26-1.17.63-2.32.92-3.49.14-.56.39-1.19.25-1.69-.78-2.79-1.64-5.56-2.54-8.32-.11-.32-.63-.67-1-.71-1.8-.23-2.38.63-1.79,2.56.19.63.43,1.25.64,1.88-.11.04-.22.09-.33.13-.23-.47-.4-.97-.7-1.39-.24-.34-.62-.57-.94-.85-.07.41-.25.83-.2,1.22.07.53.34,1.02.48,1.54.38,1.43.74,2.86,1.11,4.3-.09.02-.18.04-.27.06-.91-1.43-1.82-2.86-2.72-4.29-.18.07-.36.15-.54.22.21.79.31,1.63.66,2.35.92,1.88,1.51,3.71.76,5.86-.25.73.12,1.77.44,2.57.28.71.86,1.32,1.36,1.92.42.51.59.91.05,1.5-.23.26-.22.89-.09,1.28.18.54.61.99.88,1.5,2.85,5.45,5.66,10.91,8.55,16.34.56,1.06.69,2.07.62,3.22-.33,5.69-.62,11.38-.9,17.07-.04.83,0,1.67,0,2.51-.15.06-.31.12-.46.18-1.16-.91-2.37-1.78-3.46-2.76-.26-.24-.32-.93-.2-1.33.73-2.26,1.01-4.65,2.54-6.69,1.27-1.7.52-9.44-.61-11.3-1.33-2.18-3.56-2.63-5.76-3.04-3.83-.72-7.73,1.51-8.66,5.05-.41,1.55-.26,3.23-.53,4.82-.28,1.67,0,3.19.54,4.76.7,2.03,1.23,4.12,1.81,6.19.26.91-.03,1.63-.83,2.15-1.86,1.18-3.68,2.42-5.58,3.52-1.42.81-2.95,1.43-4.44,2.13-.8-2.18-.83-4.74-.04-6.51,4.24-9.53,8.02-19.25,11.63-29.04.28-.77.5-1.46-.2-2.18-.24-.25-.24-.82-.2-1.22.12-1.31.57-2.65.43-3.93-.34-3.26-1.04-6.49-.49-9.79,0-.04,0-.08,0-.12-.07-.6-.12-1.17-.96-1.17-.84,0-1.22.37-1.28,1.18-.05.66-.16,1.32-.2,1.99-.05.79-.17,1.39-1.24,1.21-1.98-.32-2.07-.37-1.89-1.63.06-.42,0-.87,0-1.57-.78.38-1.34.65-1.92.93-1.76-1-2.63-3.47-5.03-3.39.55,1.54.85,3.09,1.62,4.35.93,1.53,2.17,2.9,3.43,4.19,1.21,1.23,2.19,2.48,2.24,4.29.02.86-.04,1.49-1.05,1.78-.39.11-.73.66-.94,1.09-1.26,2.62-2.53,5.24-3.69,7.91-1.02,2.35-2.39,4.43-4.36,6.16.27-1.15.7-2.23,1.15-3.3,1.88-4.44,2.43-8.95.95-13.63-.24-.75-.61-1.01-1.35-1.21-.84-.23-1.73-.64-2.34-1.24-.56-.56-.95-.68-1.57-.29-.93.58-1.86.72-2.76-.03-.78-.64-1.38-.56-2.11.2-1,1.04-1.75.83-2.15-.54-.49-1.67-.87-3.38-1.28-5.08-.34-1.41-.54-2.88-1.05-4.23-.21-.57-1-1.18-1.6-1.27-.46-.07-1.22.53-1.52,1.03-.25.42-.11,1.14,0,1.69.75,3.92,1.5,7.84,2.33,11.75.21.97.13,1.57-.9,1.91-.74.24-1.37.7-1.24,1.63.53,3.83.79,7.73,3.4,10.92,1.41,1.73,1.86,3.7,1.67,5.95-.5,5.88-.65,11.81-2.36,17.53-.43,1.43-.64,2.93-.95,4.39-.12,0-.25.02-.37.02-.3-.66-.73-1.3-.89-2-.64-2.79-1.08-5.62-1.82-8.38-.88-3.25-1.25-6.52-1.24-9.87,0-.94-.5-1.86-.68-2.81-.1-.53.01-1.1-.01-1.66-.02-.57.09-1.26-.19-1.67-.69-.99-.93-1.98-.81-3.16.44-4.53.39-9.06-.17-13.59-.32-2.64-.77-5.34-.51-7.95.42-4.29,1.38-8.52,2.09-12.78.12-.74.14-1.49.2-2.23-.17-.04-.33-.09-.5-.13-1.65,1.7-1.39,4.32-2.66,6.2-.13-.01-.25-.02-.38-.03.26-2.84.52-5.67.77-8.46-1.37-.43-1.67.32-1.79,1.22-.2,1.53-.35,3.06-.56,4.59-.1.68-.31,1.35-.47,2.02-.14-.02-.27-.03-.41-.05-.09-.68-.22-1.36-.25-2.04-.07-1.66-.04-3.33-.15-4.99-.03-.39-.46-.75-.7-1.12-.32.32-.78.6-.93.99-.17.44-.08.98-.08,1.48,0,2.05,0,4.1,0,6.47-.34-.54-.61-.83-.72-1.18-.46-1.42-.88-2.86-1.29-4.29-.24-.84-.54-1.5-1.91-1.05.33,1.83.67,3.69,1.01,5.55.25,1.34.63,2.68.71,4.03.07,1.32-.71,1.79-1.97,1.38-.67-.22-1.3-.54-1.97-.77-1.28-.43-2.3.05-3.49,1.09.96.31,1.72.41,2.31.77,1.91,1.17,3.71,2.51,5.64,3.64,1.22.72,1.59,1.65,1.49,2.98-.38,4.73-.7,9.46-1.07,14.19-.34,4.3-.24,8.63-1.34,12.88-.39,1.51-.13,3.33.32,4.87.76,2.6.79,5.15.36,7.89-1.8-1.07-3.44-2.23-5.05-3.45-.21-.16-.36-.62-.29-.87.6-2.2.91-4.59,1.99-6.53,1.1-1.96,1.2-3.82,1.04-5.87-.12-1.45-.29-2.9-.36-4.36-.11-2.24-1.27-3.76-3.22-4.66-1.08-.5-2.24-.92-3.41-1.13-5.36-.96-10.14,2.32-9.94,8.04.04,1.2-.27,2.41-.18,3.61.1,1.35.09,2.91.78,3.96,1.13,1.73,1.4,3.61,1.86,5.48.58,2.36-.59,4.18-3.1,4.84-.1-.39-.16-.81-.32-1.18-.75-1.66-1.46-3.34-2.33-4.93-.95-1.74-2.15-3.35-3.06-5.11-1.79-3.47-3.48-6.99-5.17-10.51-1.42-2.96-2.76-5.95-4.17-8.92-.71-1.49-.71-2.84.43-4.15.49-.56.8-1.26,1.2-1.89,1.1-1.76,2.07-3.63,4.02-4.67.17-.09.37-.49.31-.58-.16-.25-.44-.53-.71-.57-1.12-.18-2.15.04-2.99.86-.48.47-.94.95-1.45,1.37-1.12.91-2.24.56-2.68-.83-.19-.59-.3-1.21-.41-1.82-.41-2.33-.76-4.67-1.25-6.98-.09-.41-.74-.69-1.14-1.03-.15.49-.45.98-.43,1.47.09,2.05.28,4.09.43,6.14-.14.03-.28.07-.41.1-.23-.45-.5-.89-.69-1.36-.76-1.89-1.46-3.8-2.24-5.68-.29-.7-.63-1.8-1.57-1.4-.93.39-.34,1.35-.07,2.06.04.12.11.23.15.34.6,1.68,1.23,3.35,1.79,5.05.15.44.12.95.17,1.43-.56-.26-.85-.56-1.05-.91-.98-1.69-1.87-3.44-2.92-5.07-.31-.48-1.07-.68-1.62-1,0,.56-.16,1.21.06,1.66.99,2.01,2.09,3.97,3.14,5.95.17.32.28.66.42,1l-.37.25c-1.69-1.82-3.37-3.65-5.06-5.47-.18.1-.35.19-.53.29.2.6.31,1.26.64,1.78.62.98,1.47,1.82,2.06,2.82,1.88,3.18,3.7,6.4,5.48,9.63.44.79.68,1.69.97,2.56,1.78,5.35,3.53,10.72,5.35,16.07.35,1.04.96,1.99,1.37,2.82-1.64.24-3.24.38-4.79.71-1.48.32-2.2,1.47-2.34,2.91-.21,2.28-.34,4.56.86,6.7.45.81.64,1.8.82,2.74.07.38-.05.99-.32,1.21-1.02.82-2.14,1.52-3.41,2.38-.29-.76-.58-1.27-.68-1.82-.71-3.92-1.34-7.86-2.1-11.78-.2-1.04.14-1.66.87-2.26,1.41-1.16,3-1.88,4.99-1.94-.79-2.08-2.64-1.37-4.1-1.88.13-.44.21-.87.37-1.27,1-2.51,2.04-5,3.01-7.52.27-.7.54-1.51-.47-2.4-.92,1.63-1.78,3.16-2.6,4.62-.6-2.02-1.13-3.98-1.78-5.9-.15-.43-.73-.71-1.12-1.06-.11.09-.23.18-.34.28-.01,2.5,1.26,5.05-.23,7.63-.23-.34-.47-.59-.57-.88-.58-1.77-2.06-2.28-3.65-2.58-.31-.06-.66.13-.99.2.16.31.26.68.49.91.59.6,1.25,1.14,1.88,1.7-.06.07-.11.15-.17.22-1.08-.64-2.16-1.29-3.24-1.93-.12.13-.23.27-.35.4.34.53.65,1.07,1.02,1.58.51.71,1.11,1.35,1.55,2.1.16.27.09.89-.13,1.12-.82.87-1.74,1.65-2.8,2.62-.03-.87-.08-1.75-.08-2.63,0-.83.16-1.84-.89-2.01-.27-.04-.78,1.05-1.07,1.68-.22.48-.27,1.04-.48,1.87-.53-.93-.8-1.61-1.24-2.14-.41-.48-.99-.82-1.54-1.15-.06-.04-.64.49-.6.64.6,2.11,1,4.35,1.99,6.27,1.58,3.04,1.41,5.89.02,8.84-.4.84-.79,1.67-1.19,2.51-.12-.01-.24-.02-.36-.04-.13-.4-.33-.8-.39-1.21-.43-3.01-.8-6.02-1.24-9.02-.79-5.37-2.3-10.55-5.54-14.95-2.23-3.03-4.94-5.72-7.55-8.44-1.17-1.22-1.87-2.48-1.87-4.17,0-2.22-1.83-3.44-2.82-5.19-.32,1.81.21,3.91-2.3,4.87.12-.57.09-1.06.31-1.39.67-1.03,1.36-1.99.35-3.2-.26-.31-.41-.94-.67-.98-.39-.06-1.04.16-1.23.47-.79,1.27-1.53,2.58-2.12,3.94-.37.85-.67,1.86-.57,2.75.19,1.67-.29,3-1.25,4.29-1.54,2.07-3,4.19-4.5,6.29-.13.18-.35.3-.59.5-.11-.22-.22-.35-.25-.5-1.59-7-4.53-13.38-8.96-19.03-1.97-2.52-4.15-4.88-6.23-7.32-.98-1.15-1.66-2.42-1.4-3.98.66-3.95-2.04-6.71-3.49-10.21-.81,1.47-1.05,2.84-.89,4.23.17,1.44.13,2.62-1.57,3.02-.04.01-.06.13-.19.42.26.2.83.42.87.71.13.94.07,1.91.09,2.86-.72-.12-1.48-.13-2.13-.4-.68-.28-1.21-.89-1.88-1.2-.34-.16-.93-.11-1.22.1-.19.13-.17.8-.01,1.11.28.54.65,1.13,1.15,1.43,2.27,1.36,3.81,3.42,5.49,5.38,1.01,1.18,2.34,2.07,3.52,3.1.46.41,1.05.78,1.31,1.3,2.38,4.84,4.65,9.74,7.06,14.57.65,1.31.97,2.54.51,3.94-1.28,3.91-2.54,7.83-3.85,11.72-.78,2.32-1.24,4.66-.72,7.11.14.67.35,1.33.59,2.2-2.16.13-4.16.21-6.03-.8-.77-.42-.94-1.12-.71-1.93.35-1.24.66-2.5,1.09-3.71.47-1.32.86-2.74,1.67-3.85.97-1.33,1.48-2.69,1.41-4.27-.13-2.66-.19-5.34-.57-7.96-.17-1.2-.8-2.54-1.64-3.4-2.59-2.66-5.77-4.1-9.57-3.43-3.97.7-7.51,2.34-8.56,6.59-.71,2.9-.73,6.01-.78,9.03-.02,1.2.69,2.43,1.17,3.6.26.64.91,1.15,1.08,1.8.51,1.88.89,3.8,1.25,5.72.07.38-.04,1.03-.3,1.2-1.15.76-2.38,1.39-3.86,2.22.27-3.52-.69-6.37-2.03-9.14-1.43-2.96-2.78-5.95-4.25-8.89-1.03-2.05-1.17-3.91-.23-6.16,1.72-4.13,3.27-8.38,4.43-12.7.89-3.34,2.24-6.32,4.33-9.02.33-.43.61-1.05.59-1.57-.05-1.81.42-3.44,1.31-5,.43-.76.72-1.6,1.07-2.4-.16-.11-.32-.21-.49-.32-.74.88-1.47,1.76-2.3,2.75-.8-2.39,1.49-4.06,1.18-6.15-.13-.04-.26-.09-.39-.13l-1.67,2.3c.11-1.05.5-1.96.71-2.91.1-.44-.01-1.27-.27-1.39-.55-.25-1.29-.27-1.89-.13-.33.08-.63.63-.8,1.04-.97,2.29-1.97,4.58-2.8,6.92-.3.85-.47,1.94-.19,2.76.89,2.66.18,4.88-1.43,6.97-.28.36-.51.76-.77,1.14-2.9,4.29-5.41,8.77-6.9,13.78-.11.38-.31.74-.54,1.26-2.04-1.48-3.91-2.92-5.87-4.24-1.64-1.11-3.38-2.08-5.08-3.1-1.45-.88-3.11-1.53-4.32-2.67-1.57-1.46-3.34-2.42-5.26-3.22-1.04-.43-2.32-.63-1.68-2.65-.83.69-1.28,1.07-1.74,1.45-1.49-1.43-1.11-3.36-1.53-5.15-1.37.69-.72,2.03-1.3,2.98-.97-1.04-1.39-2.19-1.54-3.49-.04-.37-.33-.71-.51-1.07-.23.35-.61.69-.66,1.07-.11.75-.03,1.52-.03,2.28-.1.02-.2.04-.3.06l-2-2.75c-.12.08-.24.17-.36.25.19,3.12,2.92,4.83,4.34,7.4-.9.18-1.71.15-2.52.19-1.08.05-1.42-.37-1.11-1.42.16-.56.15-1.17.21-1.75-.14-.08-.29-.16-.43-.24-.98.97-1.96,1.94-3.12,3.1-.15-2.98-.29-5.7-.44-8.59-.64.15-1.02.3-1.41.33-.41.03-.86-.18-1.22-.05-.23.08-.44.58-.42.88.04.51.26,1.01.4,1.5q-1.51.58-1.01,2.01c.11.31.33.62.33.93,0,.31-.1.81-.3.9-.76.32-.61.79-.51,1.42.12.74.31,1.74-.06,2.23-2.68,3.54-5.31,7.15-8.32,10.41-2.59,2.8-5.65,5.15-8.61,7.79.59-4.2-.11-8.63,2.54-12.48.74-1.08,1.07-2.4,2.68-2.66.43-.07.76-.81,1.13-1.25-.53-.23-1.04-.61-1.59-.67-1.19-.12-2.4-.07-3.6-.12-.75-.03-1.12-.43-1.03-1.22.11-.95.28-1.9.22-2.84-.03-.43-.47-1.08-.83-1.17-.37-.1-.98.28-1.31.62-.37.39-.55.98-.81,1.48-.35-.56-.47-1.08-.45-1.58.03-1.04.18-2.08.17-3.11,0-.38-.29-1-.56-1.07-.45-.12-1.14-.06-1.46.23-.43.38-.6,1.05-.89,1.6-.24.44-.49.87-.73,1.3-.15-.02-.29-.03-.44-.05-.22-.77-.46-1.54-.64-2.32-.19-.81-.25-1.65-.49-2.44-.12-.37-.49-.83-.84-.92-.86-.24-1.58-.04-1.58,1.1,0,1.43,0,2.85,0,4.28-.14.01-.28.02-.42.03-.44-.69-.81-1.45-1.34-2.06-.55-.64-1.19-1.29-1.92-1.67-.69-.36-1.58-.55-2.22.2.72,1.15,1.53,2.17,2.05,3.32,1.24,2.73,2.59,5.36,4.46,7.75,1.62,2.06,1.86,4.46.91,6.97-.95,2.52-2.06,5.03-2.67,7.64-1.35,5.78-3.43,11.28-5.76,16.72-.74,1.72-.97,3.66-1.49,5.49-.2.7-.55,1.36-.83,2.04-.42,1.01-.86,2.02-1.27,3.04-.11.26-.16.54-.24.82-.36-.81-.53-1.59-.54-2.36-.03-5.54-.02-11.08,0-16.62,0-.35.21-.7.28-1.06.3-1.5.66-2.99.82-4.5.05-.45-.39-1.09-.78-1.43-1.33-1.12-2.74-2.14-4.14-3.18-.21-.16-.53-.18-.8-.23-.59-.1-1.24-.07-1.78-.3-.99-.42-1.79-.24-2.47.52-.71.78-1.37,1.6-2.05,2.41-.87-1.18-1.66-2.35-2.56-3.43-.56-.67-1.39-1.07-2.21-.42-.78.62-.49,1.41-.05,2.13.94,1.52,1.98,2.98,2.79,4.57,1.08,2.11,2.39,3.98,4.29,5.43.34.26.66.79.67,1.2.13,4,.19,8.02-1.06,11.88-1.34,4.14-1.82,8.35-1.47,12.67.03.42,0,.85,0,1.27-.11,0-.22.01-.33.02-.55-2.7-1.16-5.39-1.64-8.11-1.45-8.24-3.02-16.43-5.97-24.31-1.3-3.46-1.84-7.09-1.51-10.8.14-1.57-.23-2.98-1.06-4.28-.92-1.44-1.85-2.87-2.85-4.24-.41-.56-.96-1.08-1.57-1.38-.29-.15-1.05.09-1.26.39-.64.89-1.12,1.9-1.64,2.87-.59,1.09-1.18,2.18-1.71,3.3-.61,1.27-.25,2.23.88,3.12,1.75,1.38,3.2,3.02,3.56,5.38.32,2.1.81,4.17,1.09,6.27.28,2.08.41,4.18.64,6.64-2.83-2.3-5.83-3.08-9.03-3.22-.02-.42-.06-.71-.06-1,.01-6.38-1.32-12.46-3.84-18.31-.54-1.26-.97-2.56-1.48-3.83-.45-1.12-.33-2.16.14-3.25.4-.94.98-2,.87-2.94-.32-2.76-.9-5.49-1.49-8.2-.23-1.04-1.25-.66-1.9-.54-.3.06-.61.72-.68,1.15-.11.73-.03,1.5-.03,2.25-.08,0-.16.01-.24.02-.18-.6-.35-1.2-.55-1.85-.26.11-.54.19-.53.24.17,1.74.37,3.47.57,5.21-.09.06-.17.12-.26.18-.67-.86-1.34-1.73-2.01-2.59l-.39.25c.09.38.14.78.28,1.15.62,1.66.98,3.31.64,5.12-.15.79.08,1.75.43,2.5,1.11,2.4,2.03,4.81,1.87,7.54-.06,1.07.09,2.17.26,3.23.57,3.53,1.17,7.06,1.79,10.58.32,1.83-.68,4.19-2.29,5.11-2.06-3.99-4.13-7.97-6.16-11.97-.16-.32-.14-.8-.07-1.18.53-2.88,1.09-5.75,1.65-8.7-1.95-.59-2.12,1.66-3.3,2.64-.14-.62-.24-1.03-.41-1.78-.35.61-.55.94-.72,1.29-.64,1.28-1.85,1.36-2.67.16-.33-.48-.69-.94-.96-1.46-.54-1.03-1.08-1.39-1.69-.12-1.24-.6-1.98-1.97-3.54-1.81.28.71.64,1.29,1.12,1.76,2.92,2.81,4.84,6.34,7,9.68.64.99,1.11,2.18,1.34,3.34,1,5.01,1.89,10.05,2.77,15.09.08.45-.05,1.02-.28,1.43-1.37,2.42-1.88,4.98-1.86,7.78.01,1.45-.66,2.96-1.29,4.33-.22.49-1.22.62-1.86.91-.17-.57-.55-1.16-.48-1.69.18-1.48.51-2.95.86-4.4.18-.75.53-1.45.84-2.17.44-1.06,1.22-2.08,1.3-3.16.15-1.92-.16-3.88-.18-5.82-.06-6.12-5.79-10.53-11.75-9-4.69,1.2-6.92,3.69-7.11,7.92-.03.71.03,1.42-.03,2.12-.06.71-.23,1.41-.35,2.11-.14.02-.27.04-.41.06-1.88-3.4-3.81-6.78-5.59-10.23-.3-.59-.13-1.57.12-2.27,1.72-4.75,2.91-9.63,3.62-14.63.05-.37.29-.75.53-1.06.91-1.17,2.01-2.22,2.77-3.49,1.31-2.17,2.34-4.51,4.3-6.22.18-.16.39-.4.4-.62.03-.48-.05-.98-.08-1.46-.49.08-1.08.02-1.44.28-.56.4-.94,1.04-1.44,1.54-.89.91-1.71.78-1.95-.45-.18-.89.14-1.87.25-2.92-1.7.23-1.7-1.23-1.92-2.55-.12-.69-.31-1.38-.56-2.04-.15-.4-.48-.74-.79-1.19-.5,1.53-.98,2.81-1.31,4.12-.23.9-.49,1.92-.29,2.78.72,3.16.53,6.09-1.48,8.75-.17.23-.33.49-.45.75-1.51,3.1-3.16,6.14-4.49,9.31-1.81,4.31-2.35,8.9-2.53,13.55-.02.42-.18.83-.28,1.24-.33-2.05-.09-4.13-2.01-5.43-.18.03-.36.07-.54.1.28,1.74.57,3.48.85,5.22-.51-.05-.74-.17-.85-.36-.59-1-1.14-2.02-1.75-3-.15-.24-.51-.35-.77-.52-.15.31-.47.67-.41.93.17.72.51,1.39.78,2.09.28.73.56,1.45.84,2.18-.14.09-.29.19-.43.28-.93-.86-1.85-1.73-2.81-2.55-.3-.25-.73-.35-1.1-.52.11.39.12.86.36,1.14,1.62,1.94,2.9,4.04,3.44,6.56.22,1,.7,1.94.99,2.93.1.32-.06.7-.04,1.06.03.7.02,1.41.17,2.08.1.44.43.82.77,1.42-2.36-.25-4.17.58-5.9,1.93-.09-.5-.16-.78-.19-1.07-.38-3.6-.7-7.21-1.16-10.8-1.38-10.91-5.61-20.55-12.96-28.78-1.28-1.43-2.54-2.87-3.85-4.26-1.4-1.48-1.82-3.19-1.56-5.18.1-.76.15-1.69-.2-2.3-1.59-2.81-3.32-5.55-5.04-8.3-.67-1.07-1.54-.47-2.31-.11-.91.43-.47,1.12-.18,1.7.51,1.01,1.07,2,1.73,3.22-1.35-.55-1.31-2.45-3.21-2.2,1.06,1.97,2.01,3.75,2.97,5.52-.13.11-.26.22-.39.32-1.05-.82-2.1-1.63-3.15-2.45-.12.11-.24.22-.36.33.51.76.93,1.59,1.53,2.27,1.18,1.31,1.83,2.81,2.29,4.5.26.98.87,1.92,1.49,2.76,1.29,1.72,3.13,3.17,3.96,5.07,2.6,5.93,5.71,11.55,9.05,17.07.44.73.63,1.87.43,2.7-1,4.12-2.22,8.18-3.27,12.29-.44,1.72-.8,3.49-.92,5.25-.16,2.42-.28,2.59-2.6,1.78-.16-.06-.31-.12-.47-.18-1.08-.4-1.46-1.12-1.15-2.26.5-1.84.94-3.71,1.45-5.55.15-.55.37-1.14.73-1.56,1.09-1.26,1.38-2.74,1.34-4.31-.07-2.54-.16-5.08-.35-7.61-.17-2.31-1.19-4.18-3.37-5.16-1.28-.57-2.63-1.03-3.98-1.38-5.05-1.31-10.75,2.36-10.8,8.66,0,1.16,0,2.34-.18,3.48-.43,2.62-.16,5.03,1.62,7.12.15.17.22.44.26.67.29,1.64.53,3.28.85,4.91.4,2.04.02,2.88-1.78,3.78-.79.4-1.39.33-1.89-.47-2.5-4.03-5.03-8.04-7.54-12.06-.68-1.08-.72-2.21-.45-3.47,1.22-5.69,2.36-11.39,3.54-17.09.09-.43.2-.98.5-1.23,2.12-1.78,3.08-4.27,4.28-6.65.76-1.5,1.8-2.87,2.74-4.28.34-.52.96-.95,1.07-1.5.11-.54-.25-1.19-.4-1.79-.46.16-1.03.19-1.35.5-.7.65-1.23,1.47-1.92,2.13-.25.24-.84.37-1.15.25-.89-.37-1.42-2.32-.98-3.17.19-.37.29-.78.43-1.18-.44-.03-.88-.05-1.32-.08-.16,0-.32-.02-.52-.04-.78-2.09-.46-4.59-2.48-6.46-.12.56-.2.9-.27,1.24-.21,1.01-.25,2.1-.66,3.03-.72,1.63-.68,3.22-.31,4.88.18.81.46,1.63.47,2.44.02,1.13.05,2.34-.31,3.38-.56,1.6-1.42,3.09-2.21,4.6-4.23,8-6.8,16.42-6.7,25.56.02,1.63,0,3.27,0,4.88-3-.86-3.54-1.78-2.72-4.76.08-.28.11-.59.25-.83,1.31-2.25.96-4.65.64-7.05-.24-1.78-1.07-2.74-2.84-3.22-.75-.2-1.5-.36-2.51-.59,1.18-2.72,2.25-5.3,3.42-7.83.72-1.55,1.62-3.01,2.53-4.68-.07-.04-.34-.28-.66-.41-1.27-.51-2.12.18-2.94,1.04-.99,1.04-2.85,1-3.75-.06-2.59-3.03-5.15-6.07-7.75-9.08-.43-.5-.97-.9-1.73-1.6-.08,1.06-.13,1.68-.19,2.36-.83-.22-1.61-.89-2.3.04,1.7,2.44,3.3,4.87,5.03,7.19.6.81.8,1.28-.01,2.06-1.27,1.23-1.34,2.13-.48,3.68.28.5.66.96,1.02,1.41,1.56,1.96,1.7,4.3,1.25,6.54-.19.95-.2,1.69,0,2.56.2.9.25,1.84.37,2.81h-4.12c-.09-.57-.15-1.07-.24-1.56-1.23-6.42-3.3-12.53-6.72-18.15-1.14-1.87-2.05-3.81-1.49-6.13.11-.46,0-1-.09-1.49-.43-2.37-.9-4.74-1.35-7.1-.15-.79-.58-1.18-1.41-1.31-.8-.13-1.75-.32-2.29-.84-.96-.91-1.67-.81-2.5.04-.1.1-.27.14-.56.29-.06-.55-.09-.99-.15-1.43-.4-2.84-.78-5.69-1.25-8.51-.07-.42-.6-.77-.92-1.16-.36.41-.8.77-1.04,1.24-.17.34-.09.82-.09,1.23.06,2.79.14,5.57.19,8.36,0,.47-.08.93-.12,1.4-.14.07-.28.13-.42.2-1.69-2.08-3.39-4.16-5.08-6.24-.43-.53-.93-1.25-1.58-.7-.39.33-.59,1.31-.4,1.81.48,1.27,1.21,2.45,1.88,3.65,1.07,1.92,2.17,3.83,3.26,5.74,1.42,2.49,2.75,5.04,4.31,7.43,1.36,2.08,2.31,4.25,2.97,6.66,1.53,5.64,2.76,11.32,2.9,17.18.07,2.98.95,5.73,2.29,8.35,1.13,2.21,1.52,4.57,1.34,7.02-.03.41-.17.82-.26,1.23-.12.03-.23.06-.35.09-1.63-2.19-3.37-4.3-4.87-6.58-1.97-2.98-3.76-6.07-5.6-9.14-1.88-3.13-3.73-6.28-5.54-9.45-.24-.42-.39-1.15-.19-1.52,1.5-2.78,2.19-6.07,4.93-8.1.58-.43.41-1.05-.24-1.02-.89.04-1.84.29-2.62.72-.57.31-.9,1.07-1.37,1.6-.93,1.04-2.21.88-2.81-.39-.28-.59-.4-1.27-.56-1.91-.51-1.93-.98-3.87-1.51-5.79-.24-.86-.66-1.62-1.95-1.58-.18,2.47,1.42,4.81.46,7.6-.32-.67-.52-1.09-.73-1.51-.9-1.82-1.75-3.67-2.73-5.45-.22-.4-.89-.54-1.35-.8-.02.54-.21,1.14-.03,1.6.44,1.12,1.08,2.16,1.57,3.26.5,1.12.93,2.28,1.38,3.42-.17.11-.33.22-.5.34-.32-.43-.66-.84-.96-1.28-1.03-1.46-2.06-2.92-3.06-4.41-.4-.59-.84-1.21-1.55-.74-.22.15-.05,1.03.08,1.54.1.38.42.71.65,1.05.84,1.24,1.7,2.46,2.53,3.71.3.45.5.95.75,1.43-.11.09-.21.17-.32.26-.56-.46-1.15-.87-1.66-1.37-.95-.94-1.82-1.94-2.77-2.87-.19-.19-.56-.18-.85-.27-.07.31-.28.7-.17.91.32.61.76,1.17,1.19,1.71,1.31,1.66,2.67,3.28,3.95,4.96.91,1.19,1.77,2.42,2.55,3.69.98,1.58,2.03,3.14,2.75,4.84,2.28,5.4,4.15,10.98,7.5,15.87.51.75.29,1.03-.44,1.52-.9.6-1.91,1.41-2.26,2.35-.85,2.29-.91,4.68.1,7.02.51,1.17.97,2.38,1.31,3.62.3,1.08-.08,1.99-1.26,2.69-.16-.68-.29-1.24-.43-1.78-.7-2.73-1.27-5.5-2.15-8.18-1.1-3.35-2.49-6.61-3.66-9.94-.32-.91-.37-1.94-.39-2.92-.05-2.26-.02-4.53-.02-6.77-3.01-.64-5.43.28-7.6,1.99-1.08.85-1.45,3.05-.77,4.24.59,1.04,1.13,2.24,2.01,2.97,1.52,1.26,1.39,2.77,1.28,4.48-.74-.17-1.42-.46-2.1-.46-1.28,0-2.57.04-3.85.19v-2.58c-.51.19-1.06.59-1.5.49-.29-.06-.57-.84-.59-1.32-.12-2.33-.89-4.44-1.82-6.56-1.62-3.68-3.18-7.4-4.55-11.19-.95-2.62-.38-3.74,2.09-5.09.48-.27,1.07-.34,1.72-.54-.7-1.83-2.19-.75-3.5-.99.04-3.26,2.13-6.33,1.25-9.7-.14-.05-.27-.1-.41-.16-.6,1.41-1.19,2.82-1.84,4.34-.95-1.95-1.19-4.16-3.18-5.32-.12.54-.1,1.02.02,1.47.24.84.63,1.64.78,2.49.1.59-.09,1.24-.15,1.86-.48-.26-.95-.52-1.43-.78-.44-.23-.86-.51-1.32-.66-1.22-.41-1.67-.26-2.15.54.74.38,1.49.77,2.24,1.16-.04.09-.09.19-.14.28-.63-.17-1.25-.36-1.89-.49-.35-.07-.71-.03-1.07-.04.21.32.4.65.64.94.16.18.39.31.61.43.98.54,1.26,1.34,1.28,2.47.02,1.61.23,3.23.55,4.81.17.82.18,1.33-.64,1.71-.88.41-.85,1.02-.4,1.84.54,1.01,1.01,2.09,1.28,3.2.72,2.94,1.36,5.89,1.95,8.86.85,4.28,1.62,8.57,2.41,12.87.05.3-.08.63-.15,1.12-2.27-1.02-4.16.33-6.01.74.58-.78,1.39-1.5,1.73-2.4.67-1.74,1.23-3.54,1.59-5.37,1-5.17-3.41-10.06-8.59-9.42-2.03.25-4.05.93-5.94,1.73-2.15.91-3.41,2.73-3.8,5.07-.19,1.11-.4,2.21-.53,3.33-.15,1.26-.23,2.53-.34,3.8,1.73.65.48,2.29,1.1,3.31.02.04.04.07.07.1,1.32,1.42.7,3.14.97,4.91-1.16-.46-2.06-.86-2.99-1.17-.74-.24-1.1-.65-1.08-1.44.04-2.16-.05-4.33.07-6.48.29-4.98.56-9.97,1.05-14.93.29-2.95-.4-6.02.92-8.88.11-.24-.34-1.02-.64-1.1-.96-.24-.91-.81-.92-1.6-.01-1.57-.25-3.13-.28-4.7-.02-.64.08-1.37.4-1.9.46-.78,1.15-1.43,1.74-2.13-.1-.14-.2-.28-.29-.43-1.02.53-2.04,1.07-3.07,1.6.49-.73,1.16-1.21,1.79-1.74.22-.18.31-.51.47-.77-.29-.1-.66-.35-.86-.26-.95.44-1.88.94-2.78,1.49-.35.22-.58.62-.99,1.09-1.17-2.34.36-4.39.1-6.71-2.32,1.42-1.85,3.96-2.82,6-.79-1.43-1.47-2.66-2.15-3.89-.17.07-.35.14-.52.21-.33,3.36,1.76,6.13,2.65,9.3-.92.14-1.73.34-2.55.35-.35,0-.86-.29-1.02-.6-2.04-3.81-3.99-7.66-6.05-11.46-.82-1.51-1.2-2.96-.54-4.63.52-1.32.56-2.66,0-4.01-.28-.69-.38-1.45-.66-2.14-.6-1.5-1.23-3-1.91-4.47-.44-.95-1.26-.78-2.05-.55-.88.25-.7.83-.5,1.48.27.88.45,1.78.66,2.67-.04.02-.08.04-.12.07-.5-.73-1-1.46-1.5-2.19-.16.07-.31.15-.47.22.5,1.74,1,3.49,1.49,5.23-.14.07-.29.13-.43.2-.75-.86-1.51-1.72-2.26-2.59-.11.07-.22.13-.33.2.21.6.32,1.26.66,1.78.99,1.53,1.35,3.18,1.34,4.98,0,.59.1,1.31.44,1.76,2.08,2.81,3.05,5.96,3.76,9.38.86,4.13,2.41,8.11,3.64,12.17.21.71.56,1.49.45,2.16-.41,2.41-1.73,4.42-3.13,6.67-.15-.47-.26-.65-.26-.83.01-1.08.06-2.16.09-3.24.1-3.46-1.16-5.32-4.47-6.26-1.36-.38-2.82-.41-4.3-.61,0-1.56-.25-3.27,1.69-4.39-1.39-.82-1.09-1.68-.48-2.67.35-.57.45-1.29.68-2.02-2.51-.66-1.95,2.08-3.39,2.67-1.04-1.39-2.33-.66-3.54-.17-.9.36-1.34.12-1.53-.76-.22-.97-.46-1.94-.6-2.93-.1-.68-.19-1.3-1.04-1.23-.8.07-.85.71-.76,1.31.37,2.55.73,5.1,1.15,7.64.35,2.11.68,4.16-.29,6.24-.76,1.61-1.26,3.34-1.92,5-.5,1.26-1.06,2.5-1.59,3.74-.51-.49-.72-.92-.88-1.37-1.57-4.29-3.16-8.58-4.68-12.89-.15-.43-.03-1.05.18-1.48,1.25-2.58,2.65-5.09,3.83-7.7.59-1.31,1.24-2.34,2.62-2.95.81-.35,1.51-1.04,2.14-1.69,2.03-2.07,3.81-4.38,6.43-5.85,1.17-.66,1.07-1.36,0-2.5-.35.23-.72.5-1.1.72-.71.42-1.4.91-2.17,1.18-.28.1-1.06-.33-1.08-.57-.1-1.03-.65-2.3.92-2.81.1-.03.13-.26.28-.6-1.85.02-1.79-1.06-1.67-2.38.12-1.38-.04-2.79-.09-4.18-.13,0-.26,0-.39,0-.7,1.07-1.33,2.19-2.11,3.2-1.06,1.38-1.75,2.9-1.55,4.62.3,2.54-.81,4.33-2.48,6.08-2.61,2.74-5.02,5.65-7.52,8.49-.21.23-.45.43-.76.72-3.84-5.65-8.73-10.03-14.22-13.82-1.51-1.04-2.78-2.44-4.43-3.92.5-.33.79-.48,1.05-.69.78-.61,1.66-1.15,2.29-1.9.29-.34.08-1.1.09-1.66-.53,0-1.1-.15-1.57,0-.51.17-.94.61-1.72,1.16-.45-1.32-.82-2.42-1.22-3.51-.11-.29-.26-.74-.46-.78-1.49-.32-1.27-1.3-1.11-2.41.23-1.59.21-3.18-.82-4.75-.7,1.47-1.33,2.77-2.02,4.23-.69-.64-1.08-1.06-1.54-1.41-.56-.44-1.82-.04-2.4.7-.53.68,0,1,.42,1.43.62.65,1.16,1.38,1.73,2.07-.08.08-.17.16-.25.24-.7-.52-1.39-1.04-2.09-1.56-.13.07-.27.13-.4.2.16.52.21,1.11.51,1.53.48.67,1.13,1.21,1.7,1.82.51.54.73,1.14.33,2.02-.84-.54-1.58-1.01-2.49-1.59-.24,1.44.67,2,1.39,2.46,1.09.69.92,1.25.17,2.03-1.07,1.11-2.06,2.29-3.12,3.41-4.72,4.96-8.56,10.5-11.23,16.83-.16.39-.38.75-.6,1.18-2.13-3.38-4.18-6.6-6.2-9.84-.39-.62-.74-.98-1.59-.78-.99.23-1.52-.34-1.29-1.37.26-1.17.63-2.32.92-3.49.14-.56.39-1.19.25-1.69-.78-2.79-1.64-5.56-2.54-8.32-.11-.32-.63-.67-1-.71-1.8-.23-2.38.63-1.79,2.56.19.63.43,1.25.64,1.88-.11.04-.22.09-.33.13-.23-.47-.4-.97-.7-1.39-.24-.34-.62-.57-.94-.85-.07.41-.25.83-.2,1.22.07.53.34,1.02.48,1.54.38,1.43.74,2.86,1.11,4.3-.09.02-.18.04-.27.06-.91-1.43-1.82-2.86-2.72-4.29l-.54.22c.21.79.31,1.63.66,2.35.92,1.88,1.51,3.71.76,5.86-.25.73.12,1.77.44,2.57.28.71.86,1.32,1.36,1.92.42.51.59.91.05,1.5-.23.26-.22.89-.09,1.28.18.54.61.99.88,1.5,2.85,5.45,5.66,10.91,8.55,16.34.56,1.06.69,2.07.62,3.22-.33,5.69-.62,11.38-.9,17.07-.04.83,0,1.67,0,2.51-.15.06-.31.12-.46.18-1.16-.91-2.37-1.78-3.46-2.76-.26-.24-.32-.93-.2-1.33.73-2.26,1.01-4.65,2.54-6.69,1.27-1.7.52-9.44-.62-11.3-1.33-2.18-3.56-2.63-5.76-3.04-3.83-.72-7.73,1.51-8.66,5.05-.41,1.55-.26,3.23-.53,4.82-.28,1.67,0,3.19.54,4.76.7,2.03,1.23,4.12,1.81,6.19.26.91-.03,1.63-.83,2.15-1.86,1.18-3.68,2.42-5.58,3.52-1.42.81-2.95,1.43-4.44,2.13-.8-2.18-.83-4.74-.04-6.51,4.24-9.53,8.02-19.25,11.63-29.04.28-.77.5-1.46-.2-2.18-.24-.25-.24-.82-.2-1.22.12-1.31.57-2.65.43-3.93-.34-3.26-1.04-6.49-.49-9.79,0-.04,0-.08,0-.12-.07-.6-.12-1.17-.96-1.17-.84,0-1.22.37-1.28,1.18-.05.66-.16,1.32-.2,1.99-.05.79-.17,1.39-1.24,1.21-1.98-.32-2.07-.37-1.89-1.63.06-.42,0-.87,0-1.57-.78.38-1.34.65-1.92.93-1.76-1-2.63-3.47-5.03-3.39.55,1.54.85,3.09,1.62,4.35.93,1.53,2.17,2.9,3.43,4.19,1.21,1.23,2.19,2.48,2.24,4.29.02.86-.04,1.49-1.05,1.78-.39.11-.73.66-.94,1.09-1.26,2.62-2.53,5.24-3.69,7.91-1.02,2.35-2.39,4.43-4.36,6.16.27-1.15.7-2.23,1.15-3.3,1.88-4.44,2.43-8.95.95-13.63-.24-.75-.61-1.01-1.35-1.21-.84-.23-1.73-.64-2.34-1.24-.56-.56-.95-.68-1.57-.29-.93.58-1.86.72-2.76-.03-.78-.64-1.38-.56-2.11.2-1,1.04-1.75.83-2.15-.54-.49-1.67-.87-3.38-1.28-5.08-.34-1.41-.54-2.88-1.05-4.23-.21-.57-1-1.18-1.6-1.27-.46-.07-1.22.53-1.52,1.03-.25.42-.11,1.14,0,1.69.75,3.92,1.5,7.84,2.33,11.75.21.97.13,1.57-.9,1.91-.74.24-1.37.7-1.24,1.63.53,3.83.79,7.73,3.4,10.92,1.41,1.73,1.86,3.7,1.67,5.95-.5,5.88-.65,11.81-2.36,17.53-.43,1.43-.64,2.93-.95,4.39-.12,0-.25.02-.37.02-.3-.66-.73-1.3-.89-2-.64-2.79-1.08-5.62-1.82-8.38-.88-3.25-1.25-6.52-1.24-9.87,0-.94-.5-1.86-.68-2.81-.1-.53.01-1.1,0-1.66-.02-.57.09-1.26-.19-1.67-.69-.99-.93-1.98-.81-3.16.44-4.53.39-9.06-.17-13.59-.32-2.64-.77-5.34-.51-7.95.42-4.29,1.38-8.52,2.09-12.78.12-.74.14-1.49.2-2.23l-.5-.13c-1.65,1.7-1.39,4.32-2.66,6.2-.13-.01-.25-.02-.38-.03.26-2.84.52-5.67.77-8.46-1.37-.43-1.67.32-1.79,1.22-.2,1.53-.35,3.06-.56,4.59-.1.68-.31,1.35-.47,2.02-.14-.02-.27-.03-.41-.05-.09-.68-.22-1.36-.25-2.04-.07-1.66-.04-3.33-.15-4.99-.03-.39-.46-.75-.7-1.12-.32.32-.78.6-.93.99-.17.44-.08.98-.08,1.48,0,2.05,0,4.1,0,6.47-.34-.54-.61-.83-.72-1.18-.46-1.42-.88-2.86-1.29-4.29-.24-.84-.54-1.5-1.91-1.05.33,1.83.67,3.69,1.01,5.55.25,1.34.63,2.68.71,4.03.07,1.32-.71,1.79-1.97,1.38-.67-.22-1.3-.54-1.97-.77-1.28-.43-2.3.05-3.49,1.09.96.31,1.72.41,2.31.77,1.91,1.17,3.71,2.51,5.64,3.64,1.22.72,1.59,1.65,1.49,2.98-.38,4.73-.7,9.46-1.07,14.19-.34,4.3-.24,8.63-1.34,12.88-.39,1.51-.13,3.33.32,4.87.76,2.6.79,5.15.36,7.89-1.8-1.07-3.44-2.23-5.05-3.45-.21-.16-.36-.62-.29-.87.6-2.2.91-4.59,1.99-6.53,1.1-1.96,1.2-3.82,1.04-5.87-.12-1.45-.29-2.9-.36-4.36-.11-2.24-1.27-3.76-3.22-4.66-1.08-.5-2.24-.92-3.41-1.13-5.36-.96-10.14,2.32-9.94,8.04.04,1.2-.27,2.41-.18,3.61.1,1.35.09,2.91.78,3.96,1.13,1.73,1.4,3.61,1.86,5.48.58,2.36-.59,4.18-3.1,4.84-.1-.39-.16-.81-.32-1.18-.75-1.66-1.46-3.34-2.33-4.93-.95-1.74-2.15-3.35-3.06-5.11-1.79-3.47-3.48-6.99-5.17-10.51-1.42-2.96-2.76-5.95-4.17-8.92-.71-1.49-.71-2.84.43-4.15.49-.56.8-1.26,1.2-1.89,1.1-1.76,2.07-3.63,4.02-4.67.17-.09.37-.49.31-.58-.16-.25-.44-.53-.71-.57-1.12-.18-2.15.04-2.99.86-.48.47-.94.95-1.45,1.37-1.12.91-2.24.56-2.68-.83-.19-.59-.3-1.21-.41-1.82-.41-2.33-.76-4.67-1.25-6.98-.09-.41-.74-.69-1.14-1.03-.15.49-.45.98-.43,1.47.09,2.05.28,4.09.43,6.14-.14.03-.28.07-.41.1-.23-.45-.5-.89-.69-1.36-.76-1.89-1.46-3.8-2.24-5.68-.29-.7-.63-1.8-1.57-1.4-.93.39-.34,1.35-.07,2.06.04.12.11.23.15.34.6,1.68,1.23,3.35,1.79,5.05.15.44.12.95.17,1.43-.56-.26-.85-.56-1.05-.91-.98-1.69-1.87-3.44-2.92-5.07-.31-.48-1.07-.68-1.62-1,0,.56-.16,1.21.06,1.66.99,2.01,2.09,3.97,3.14,5.95.17.32.28.66.42,1-.12.08-.25.16-.37.25-1.69-1.82-3.37-3.65-5.06-5.47-.18.1-.35.19-.53.29.2.6.31,1.26.64,1.78.62.98,1.47,1.82,2.06,2.82,1.88,3.18,3.7,6.4,5.48,9.63.44.79.68,1.69.97,2.56,1.78,5.35,3.53,10.72,5.35,16.07.35,1.04.96,1.99,1.37,2.82-1.64.24-3.24.38-4.79.71-1.48.32-2.2,1.47-2.34,2.91-.21,2.28-.34,4.56.86,6.7.45.81.64,1.8.82,2.74.07.38-.05.99-.32,1.21-1.02.82-2.14,1.52-3.41,2.38-.29-.76-.58-1.27-.68-1.82-.71-3.92-1.34-7.86-2.1-11.78-.2-1.04.14-1.66.87-2.26,1.41-1.16,3-1.88,4.99-1.94-.79-2.08-2.64-1.37-4.1-1.88.13-.44.21-.87.37-1.27,1-2.51,2.04-5,3.01-7.52.27-.7.54-1.51-.47-2.4-.92,1.63-1.78,3.16-2.6,4.62-.6-2.02-1.13-3.98-1.78-5.9-.15-.43-.73-.71-1.12-1.06-.11.09-.23.18-.34.28-.01,2.5,1.26,5.05-.23,7.63-.23-.34-.47-.59-.57-.88-.58-1.77-2.06-2.28-3.65-2.58-.31-.06-.66.13-.99.2.16.31.26.68.49.91.59.6,1.25,1.14,1.88,1.7-.06.07-.11.15-.17.22-1.08-.64-2.16-1.29-3.24-1.93l-.35.4c.34.53.65,1.07,1.01,1.58.51.71,1.11,1.35,1.55,2.1.16.27.09.89-.13,1.12-.82.87-1.74,1.65-2.8,2.62-.03-.87-.08-1.75-.08-2.63,0-.83.16-1.84-.89-2.01-.27-.04-.78,1.05-1.07,1.68-.22.48-.27,1.04-.48,1.87-.53-.93-.8-1.61-1.24-2.14-.41-.48-.99-.82-1.54-1.15-.06-.04-.64.49-.6.64.6,2.11,1,4.35,1.99,6.27,1.58,3.04,1.41,5.89.02,8.84-.4.84-.79,1.67-1.19,2.51-.12-.01-.24-.02-.36-.04-.13-.4-.33-.8-.39-1.21-.43-3.01-.8-6.02-1.24-9.02-.79-5.37-2.3-10.55-5.54-14.95-2.23-3.03-4.94-5.72-7.55-8.44-1.17-1.22-1.87-2.48-1.87-4.17,0-2.22-1.83-3.44-2.82-5.19-.32,1.81.21,3.91-2.3,4.87.12-.57.09-1.06.31-1.39.67-1.03,1.36-1.99.35-3.2-.26-.31-.41-.94-.67-.98-.39-.06-1.04.16-1.23.47-.79,1.27-1.53,2.58-2.12,3.94-.37.85-.67,1.86-.57,2.75.19,1.67-.29,3-1.25,4.29-1.54,2.07-3,4.19-4.5,6.29-.13.18-.35.3-.59.5-.11-.22-.22-.35-.25-.5-1.59-7-4.53-13.38-8.96-19.03-1.97-2.52-4.14-4.88-6.23-7.32-.98-1.15-1.66-2.42-1.4-3.98.66-3.95-2.04-6.71-3.49-10.21-.81,1.47-1.05,2.84-.89,4.23.17,1.44.13,2.62-1.57,3.02-.04.01-.06.13-.19.42.26.2.83.42.87.71.13.94.07,1.91.09,2.86-.72-.12-1.48-.13-2.13-.4-.68-.28-1.21-.89-1.88-1.2-.34-.16-.93-.11-1.22.1-.19.13-.17.8-.01,1.11.28.54.65,1.13,1.15,1.43,2.27,1.36,3.81,3.42,5.49,5.38,1.01,1.18,2.34,2.07,3.52,3.1.46.41,1.05.78,1.31,1.3,2.38,4.84,4.65,9.74,7.06,14.57.65,1.31.97,2.54.51,3.94-1.28,3.91-2.54,7.83-3.85,11.72-.78,2.32-1.24,4.66-.72,7.11.14.67.35,1.33.59,2.2-2.16.13-4.16.21-6.03-.8-.77-.42-.94-1.12-.71-1.93.35-1.24.66-2.5,1.09-3.71.47-1.32.86-2.74,1.67-3.85.97-1.33,1.48-2.69,1.41-4.27-.13-2.66-.19-5.34-.57-7.96-.17-1.2-.8-2.54-1.64-3.4-2.59-2.66-5.77-4.1-9.57-3.43-3.97.7-7.51,2.34-8.56,6.59-.71,2.9-.73,6.01-.78,9.03-.02,1.2.69,2.43,1.17,3.6.26.64.91,1.15,1.08,1.8.51,1.88.89,3.8,1.25,5.72.07.38-.04,1.03-.3,1.2-1.15.76-2.38,1.39-3.86,2.22.27-3.52-.69-6.37-2.03-9.14-1.43-2.96-2.78-5.95-4.25-8.89-1.03-2.05-1.17-3.91-.23-6.16,1.72-4.13,3.27-8.38,4.43-12.7.89-3.34,2.24-6.32,4.33-9.02.33-.43.61-1.05.59-1.57-.05-1.81.42-3.44,1.31-5,.43-.76.72-1.6,1.07-2.4-.16-.11-.32-.21-.49-.32-.74.88-1.47,1.76-2.3,2.75-.8-2.39,1.49-4.06,1.18-6.15-.13-.04-.26-.09-.39-.13l-1.67,2.3c.11-1.05.5-1.96.71-2.91.1-.44-.01-1.27-.27-1.39-.55-.25-1.29-.27-1.89-.13-.33.08-.63.63-.8,1.04-.97,2.29-1.97,4.58-2.8,6.92-.3.85-.47,1.94-.19,2.76.89,2.66.18,4.88-1.43,6.97-.28.36-.51.76-.77,1.14-2.9,4.29-5.41,8.77-6.9,13.78-.11.38-.31.74-.54,1.26-2.04-1.48-3.91-2.92-5.87-4.24-1.64-1.11-3.38-2.08-5.08-3.1-1.45-.88-3.11-1.53-4.32-2.67-1.57-1.46-3.34-2.42-5.26-3.22-1.04-.43-2.32-.63-1.68-2.65-.83.69-1.28,1.07-1.74,1.45-1.49-1.43-1.11-3.36-1.53-5.15-1.37.69-.72,2.03-1.3,2.98-.97-1.04-1.39-2.19-1.54-3.49-.04-.37-.33-.71-.51-1.07-.23.35-.61.69-.66,1.07-.11.75-.03,1.52-.03,2.28l-.3.06-2-2.75c-.12.08-.24.17-.36.25.19,3.12,2.92,4.83,4.34,7.4-.9.18-1.71.15-2.52.19-1.08.05-1.42-.37-1.11-1.42.16-.56.15-1.17.21-1.75-.14-.08-.29-.16-.43-.24-.98.97-1.96,1.94-3.12,3.1-.15-2.98-.29-5.7-.44-8.59-.64.15-1.02.3-1.41.33-.41.03-.86-.18-1.22-.05-.23.08-.44.58-.42.88.04.51.26,1.01.4,1.5q-1.51.58-1.01,2.01c.11.31.33.62.33.93,0,.31-.1.81-.3.9-.76.32-.61.79-.51,1.42.12.74.31,1.74-.06,2.23-2.68,3.54-5.31,7.15-8.32,10.41-2.59,2.8-5.65,5.15-8.61,7.79.59-4.2-.11-8.63,2.54-12.48.74-1.08,1.07-2.4,2.68-2.66.43-.07.76-.81,1.13-1.25-.53-.23-1.04-.61-1.59-.67-1.19-.12-2.4-.07-3.6-.12-.75-.03-1.12-.43-1.03-1.22.11-.95.28-1.9.22-2.84-.03-.43-.47-1.08-.83-1.17-.37-.1-.98.28-1.31.62-.37.39-.55.98-.81,1.48-.35-.56-.47-1.08-.45-1.58.03-1.04.18-2.08.17-3.11,0-.38-.29-1-.56-1.07-.45-.12-1.14-.06-1.46.23-.43.38-.6,1.05-.89,1.6-.24.44-.49.87-.73,1.3-.15-.02-.29-.03-.44-.05-.22-.77-.46-1.54-.64-2.32-.19-.81-.25-1.65-.49-2.44-.12-.37-.49-.83-.84-.92-.86-.24-1.58-.04-1.58,1.1,0,1.43,0,2.85,0,4.28-.14.01-.28.02-.42.03-.44-.69-.81-1.45-1.34-2.06-.55-.64-1.19-1.29-1.92-1.67-.69-.36-1.58-.55-2.22.2.72,1.15,1.53,2.17,2.05,3.32,1.24,2.73,2.59,5.36,4.46,7.75,1.62,2.06,1.86,4.46.91,6.97-.95,2.52-2.06,5.03-2.67,7.64-1.35,5.78-3.43,11.28-5.76,16.72-.74,1.72-.97,3.66-1.49,5.49-.2.7-.55,1.36-.83,2.04-.42,1.01-.86,2.02-1.27,3.04-.11.26-.16.54-.24.82-.36-.81-.53-1.59-.54-2.36-.03-5.54-.02-11.08,0-16.62,0-.35.21-.7.28-1.06.3-1.5.66-2.99.82-4.5.05-.45-.39-1.09-.78-1.43-1.33-1.12-2.74-2.14-4.14-3.18-.21-.16-.53-.18-.8-.23-.59-.1-1.24-.07-1.78-.3-.99-.42-1.79-.24-2.47.52-.71.78-1.37,1.6-2.05,2.41-.87-1.18-1.66-2.35-2.56-3.43-.56-.67-1.39-1.07-2.21-.42-.78.62-.49,1.41-.05,2.13.94,1.52,1.98,2.98,2.79,4.57,1.08,2.11,2.39,3.98,4.29,5.43.34.26.66.79.67,1.2.13,4,.19,8.02-1.06,11.88-1.34,4.14-1.82,8.35-1.47,12.67.03.42,0,.85,0,1.27-.11,0-.22.01-.33.02-.55-2.7-1.16-5.39-1.64-8.11-1.45-8.24-3.02-16.43-5.97-24.31-1.3-3.46-1.84-7.09-1.51-10.8.14-1.57-.23-2.98-1.06-4.28-.92-1.44-1.85-2.87-2.85-4.24-.41-.56-.96-1.08-1.57-1.38-.29-.15-1.05.09-1.26.39-.64.89-1.12,1.9-1.64,2.87-.59,1.09-1.18,2.18-1.71,3.3-.61,1.27-.25,2.23.88,3.12,1.75,1.38,3.2,3.02,3.56,5.38.32,2.1.81,4.17,1.09,6.27.28,2.08.41,4.18.64,6.64-2.83-2.3-5.83-3.08-9.03-3.22-.02-.42-.06-.71-.06-1,.01-6.38-1.32-12.46-3.84-18.31-.54-1.26-.97-2.56-1.48-3.83-.45-1.12-.33-2.16.14-3.25.4-.94.98-2,.87-2.94-.32-2.76-.9-5.49-1.49-8.2-.23-1.04-1.25-.66-1.9-.54-.3.06-.61.72-.68,1.15-.11.73-.03,1.5-.03,2.25-.08,0-.16.01-.24.02-.18-.6-.35-1.2-.55-1.85-.26.11-.54.19-.53.24.17,1.74.37,3.47.57,5.21-.09.06-.17.12-.26.18-.67-.86-1.34-1.73-2.01-2.59l-.39.25c.09.38.14.78.28,1.15.62,1.66.98,3.31.64,5.12-.15.79.08,1.75.43,2.5,1.11,2.4,2.03,4.81,1.87,7.54-.06,1.07.09,2.17.26,3.23.57,3.53,1.17,7.06,1.79,10.58.32,1.83-.68,4.19-2.29,5.11-2.06-3.99-4.13-7.97-6.16-11.97-.16-.32-.14-.8-.07-1.18.53-2.88,1.09-5.75,1.65-8.7-1.95-.59-2.12,1.66-3.3,2.64-.14-.62-.24-1.03-.41-1.78-.35.61-.55.94-.72,1.29-.64,1.28-1.85,1.36-2.67.16-.33-.48-.69-.94-.96-1.46-.54-1.03-1.08-1.39-1.69-.12-1.24-.6-1.98-1.97-3.54-1.81.28.71.64,1.29,1.12,1.76,2.92,2.81,4.84,6.34,7,9.68.64.99,1.11,2.18,1.34,3.34,1,5.01,1.89,10.05,2.77,15.09.08.45-.05,1.02-.28,1.43-1.37,2.42-1.88,4.98-1.86,7.78.01,1.45-.66,2.96-1.29,4.33-.22.49-1.22.62-1.86.91-.17-.57-.55-1.16-.48-1.69.18-1.48.51-2.95.86-4.4.18-.75.53-1.45.84-2.17.45-1.06,1.22-2.08,1.3-3.16.15-1.92-.16-3.88-.18-5.82-.06-6.12-5.79-10.53-11.75-9-4.69,1.2-6.92,3.69-7.11,7.92-.03.71.03,1.42-.03,2.12-.06.71-.23,1.41-.35,2.11-.14.02-.27.04-.41.06-1.88-3.4-3.81-6.78-5.59-10.23-.3-.59-.13-1.57.12-2.27,1.72-4.75,2.91-9.63,3.62-14.63.05-.37.29-.75.53-1.06.91-1.17,2.01-2.22,2.77-3.49,1.31-2.17,2.34-4.51,4.3-6.22.18-.16.39-.4.4-.62.03-.48-.05-.98-.08-1.46-.49.08-1.08.02-1.44.28-.56.4-.94,1.04-1.44,1.54-.89.91-1.71.78-1.95-.45-.18-.89.14-1.87.25-2.92-1.7.23-1.7-1.23-1.92-2.55-.12-.69-.31-1.38-.56-2.04-.15-.4-.48-.74-.79-1.19-.5,1.53-.98,2.81-1.31,4.12-.23.9-.49,1.92-.29,2.78.72,3.16.53,6.09-1.48,8.75-.17.23-.33.49-.45.75-1.51,3.1-3.16,6.14-4.49,9.31-1.81,4.31-2.35,8.9-2.53,13.55-.02.42-.18.83-.28,1.24-.33-2.05-.09-4.13-2.01-5.43-.18.03-.36.07-.54.1.28,1.74.57,3.48.85,5.22-.51-.05-.74-.17-.85-.36-.59-1-1.14-2.02-1.75-3-.15-.24-.51-.35-.77-.52-.15.31-.47.67-.41.93.17.72.51,1.39.78,2.09.28.73.56,1.45.84,2.18l-.43.28c-.93-.86-1.85-1.73-2.81-2.55-.3-.25-.73-.35-1.1-.52.11.39.12.86.36,1.14,1.62,1.94,2.9,4.04,3.44,6.56.22,1,.7,1.94.99,2.93.09.32-.06.7-.04,1.06.03.7.02,1.41.17,2.08.1.44.43.82.77,1.42-2.36-.25-4.17.58-5.9,1.93-.09-.5-.16-.78-.19-1.07-.38-3.6-.7-7.21-1.16-10.8-1.38-10.91-5.61-20.55-12.96-28.78-1.28-1.43-2.54-2.87-3.85-4.26-1.4-1.48-1.82-3.19-1.56-5.18.1-.76.15-1.69-.2-2.3-1.59-2.81-3.32-5.55-5.04-8.3-.67-1.07-1.54-.47-2.31-.11-.91.43-.47,1.12-.18,1.7.51,1.01,1.07,2,1.73,3.22-1.35-.55-1.31-2.45-3.21-2.2,1.06,1.97,2.01,3.75,2.97,5.52-.13.11-.26.22-.39.32-1.05-.82-2.1-1.63-3.15-2.45-.12.11-.24.22-.36.33.51.76.93,1.59,1.53,2.27,1.18,1.31,1.83,2.81,2.29,4.5.26.98.87,1.92,1.49,2.76,1.29,1.72,3.13,3.17,3.96,5.07,2.6,5.93,5.71,11.55,9.05,17.07.44.73.63,1.87.43,2.7-1,4.12-2.22,8.18-3.27,12.29-.44,1.72-.8,3.49-.92,5.25-.16,2.42-.28,2.59-2.6,1.78-.16-.06-.31-.12-.47-.18-1.08-.4-1.46-1.12-1.15-2.26.5-1.84.94-3.71,1.45-5.55.15-.55.37-1.14.73-1.56,1.09-1.26,1.38-2.74,1.34-4.31-.07-2.54-.16-5.08-.35-7.61-.17-2.31-1.19-4.18-3.37-5.16-1.28-.57-2.63-1.03-3.98-1.38-5.05-1.31-10.75,2.36-10.8,8.66,0,1.16,0,2.34-.18,3.48-.43,2.62-.16,5.03,1.62,7.12.15.17.22.44.26.67.29,1.64.53,3.28.85,4.91.4,2.04.02,2.88-1.78,3.78-.79.4-1.39.33-1.89-.47-2.5-4.03-5.03-8.04-7.54-12.06-.68-1.08-.72-2.21-.45-3.47,1.22-5.69,2.36-11.39,3.54-17.09.09-.43.2-.98.5-1.23,2.12-1.78,3.08-4.27,4.28-6.65.76-1.5,1.8-2.87,2.74-4.28.34-.52.96-.95,1.07-1.5.11-.54-.25-1.19-.4-1.79-.46.16-1.03.19-1.35.5-.7.65-1.23,1.47-1.92,2.13-.25.24-.84.37-1.15.25-.89-.37-1.42-2.32-.98-3.17.19-.37.29-.78.43-1.18-.44-.03-.88-.05-1.32-.08-.16,0-.32-.02-.52-.04-.78-2.09-.46-4.59-2.48-6.46-.12.56-.2.9-.27,1.24-.21,1.01-.25,2.1-.66,3.03-.72,1.63-.68,3.22-.31,4.88.18.81.46,1.63.47,2.44.02,1.13.05,2.34-.31,3.38-.56,1.6-1.42,3.09-2.21,4.6-4.23,8-6.8,16.42-6.7,25.56.02,1.63,0,3.27,0,4.88-3-.86-3.54-1.78-2.72-4.76.08-.28.11-.59.25-.83,1.31-2.25.96-4.65.64-7.05-.24-1.78-1.07-2.74-2.84-3.22-.75-.2-1.5-.36-2.51-.59,1.18-2.72,2.25-5.3,3.42-7.83.72-1.55,1.62-3.01,2.53-4.68-.07-.04-.34-.28-.66-.41-1.27-.51-2.12.18-2.94,1.04-.99,1.04-2.85,1-3.75-.06-2.59-3.03-5.15-6.07-7.75-9.08-.43-.5-.97-.9-1.73-1.6-.08,1.06-.13,1.68-.19,2.36-.83-.22-1.61-.89-2.3.04,1.7,2.44,3.3,4.87,5.03,7.19.6.81.8,1.28-.01,2.06-1.27,1.23-1.34,2.13-.48,3.68.28.5.66.96,1.02,1.41,1.55,1.96,1.7,4.3,1.25,6.54-.19.95-.2,1.69,0,2.56.2.9.25,1.84.37,2.81h-4.12c-.09-.57-.15-1.07-.24-1.56-1.23-6.42-3.3-12.53-6.72-18.15-1.14-1.87-2.05-3.81-1.49-6.13.11-.46,0-1-.09-1.49-.43-2.37-.9-4.74-1.35-7.1-.15-.79-.58-1.18-1.41-1.31-.8-.13-1.75-.32-2.29-.84-.96-.91-1.67-.81-2.5.04-.1.1-.27.14-.56.29-.06-.55-.09-.99-.15-1.43-.4-2.84-.78-5.69-1.25-8.51-.07-.42-.6-.77-.92-1.16-.36.41-.8.77-1.04,1.24-.17.34-.09.82-.09,1.23.06,2.79.14,5.57.19,8.36,0,.47-.08.93-.12,1.4-.14.07-.28.13-.42.2-1.69-2.08-3.39-4.16-5.08-6.24-.43-.53-.93-1.25-1.58-.7-.39.33-.59,1.31-.4,1.81.48,1.27,1.21,2.45,1.88,3.65,1.07,1.92,2.17,3.83,3.26,5.74,1.42,2.49,2.75,5.04,4.31,7.43,1.36,2.08,2.31,4.25,2.97,6.66,1.53,5.64,2.76,11.32,2.9,17.18.07,2.98.95,5.73,2.29,8.35,1.13,2.21,1.52,4.57,1.34,7.02-.03.41-.17.82-.26,1.23-.12.03-.23.06-.35.09-1.63-2.19-3.37-4.3-4.87-6.58-1.97-2.98-3.76-6.07-5.6-9.14-1.88-3.13-3.73-6.28-5.54-9.45-.24-.42-.39-1.15-.19-1.52,1.5-2.78,2.19-6.07,4.93-8.1.58-.43.41-1.05-.24-1.02-.89.04-1.84.29-2.62.72-.57.31-.9,1.07-1.37,1.6-.93,1.04-2.21.88-2.81-.39-.28-.59-.4-1.27-.56-1.91-.51-1.93-.98-3.87-1.51-5.79-.24-.86-.66-1.62-1.95-1.58-.18,2.47,1.42,4.81.46,7.6-.32-.67-.52-1.09-.73-1.51-.9-1.82-1.75-3.67-2.73-5.45-.22-.4-.89-.54-1.35-.8-.02.54-.21,1.14-.03,1.6.44,1.12,1.08,2.16,1.57,3.26.5,1.12.93,2.28,1.38,3.42-.17.11-.33.22-.5.34-.32-.43-.66-.84-.96-1.28-1.03-1.46-2.06-2.92-3.06-4.41-.4-.59-.84-1.21-1.55-.74-.22.15-.05,1.03.08,1.54.1.38.42.71.65,1.05.84,1.24,1.7,2.46,2.53,3.71.3.45.5.95.75,1.43-.11.09-.21.17-.32.26-.56-.46-1.15-.87-1.66-1.37-.95-.94-1.82-1.94-2.77-2.87-.19-.19-.56-.18-.85-.27-.07.31-.28.7-.17.91.32.61.76,1.17,1.19,1.71,1.31,1.66,2.67,3.28,3.95,4.96.91,1.19,1.77,2.42,2.55,3.69.98,1.58,2.03,3.14,2.75,4.84,2.28,5.4,4.15,10.98,7.5,15.87.51.75.29,1.03-.44,1.52-.9.6-1.91,1.41-2.26,2.35-.85,2.29-.91,4.68.1,7.02.51,1.17.97,2.38,1.31,3.62.3,1.08-.08,1.99-1.26,2.69-.16-.68-.29-1.24-.43-1.78-.7-2.73-1.27-5.5-2.15-8.18-1.1-3.35-2.49-6.61-3.66-9.94-.32-.91-.37-1.94-.39-2.92-.05-2.26-.02-4.53-.02-6.77-3.01-.64-5.43.28-7.6,1.99-1.08.85-1.45,3.05-.77,4.24.59,1.04,1.13,2.24,2.01,2.97,1.52,1.26,1.39,2.77,1.28,4.48-.74-.17-1.42-.46-2.1-.46-1.43,0-2.88.04-4.3.24-1.08.15-1.56.92-1.54,2.07.05,2.83-.09,5.67.06,8.5.08,1.5.62,2.98.89,4.47.1.57.1,1.19-.01,1.76-.26,1.32-.87,2.63-.88,3.95-.04,20.89-.04,41.78-.04,62.67h0v49.68h1220.03V60.62c-.51.19-1.06.59-1.5.49ZM114.35,81.19c-.19-.02-.38-.05-.57-.07.17-1.39.35-2.78.52-4.17.15.02.31.04.46.05-.14,1.4.51,2.88-.42,4.19Zm23.98-8.29c-.38-.26-.9-.43-1.11-.79-.28-.48-.42-1.09-.44-1.65-.06-1.51-.02-3.02-.02-4.53.18-.03.37-.06.55-.1.57,1.95,1.18,3.88,1.66,5.85.08.33-.41.81-.64,1.21Zm45.59,7.66c-1.55-1.12-3.07-2.27-4.62-3.39-.65-.46-.74-1.01-.54-1.74.51-1.8.97-3.61,1.49-5.41.17-.59.46-1.15.74-1.71.68-1.39,1.38-2.77,2.01-4.03,1.78,5.1,1.19,10.71,1.47,16.31-.25-.01-.45.04-.55-.04Zm40.75-8.4c.79,1.6,1.01,3.48,1.43,5.25.05.22-.16.57-.35.75-2.42,2.39-5.49,3.74-8.55,5.45,1.28-3.51.71-3.24-.31-4.95,1.27-.45,1.94-1.22,1.99-2.73.02-.77.99-1.57,1.64-2.25.72-.76,1.12-1.48.6-2.54-.21-.42-.16-.97-.23-1.46-.43-2.77.48-5.36,1.12-7.97.35-1.43.92-2.8,1.49-4.49,1.03.92,1.81,1.62,2.76,2.48-2.82,2.21-2.2,5.42-2.58,8.32-.19,1.45.31,2.77.99,4.14Zm24.03,9.48c-.32.61-.43,1.34-.58,2.03-.16.68-.52.95-1.16.65-3.72-1.71-7.63-3.07-10.85-5.75-.74-.62-.99-1.24-.62-2.16.78-1.91,1.58-3.81,2.23-5.77.39-1.16.5-2.41.75-3.71,1.98.67,3.19,2.1,4.4,3.53,1.6,1.91,3.18,3.84,4.78,5.74,1.36,1.62,2.14,3.31,1.05,5.43Zm-2.84-28.39l.7-.12c.18,1.09.36,2.17.55,3.26-.22.04-.44.08-.66.11-.2-1.08-.39-2.17-.59-3.25Zm23.45-8.2c-1.76-3.82-3.51-7.65-6.67-10.57-3.85-3.54-8.55-3.04-12.42.15-1.09.9-2.16,1.85-3.07,2.92-.65.76-1.24,1.7-1.5,2.65-.72,2.62-.92,5.3-.62,8.04.17,1.55-.11,3.14-.16,4.71-.03,1.18,0,2.37,0,3.83-.24-.02-.68,0-1.08-.11-3.22-.84-6.02-2.55-8.88-4.16-2.42-1.37-2.3-1.28-1.2-3.82,2.09-4.83,5.49-8.69,8.82-12.62.85-1.01,2.1-2.14,2.16-3.26.1-2.04,1.51-2.95,2.48-4.31.71-1,1.09-2.23,1.7-3.32.2-.36.72-.85,1.02-.81,3.18.44,6.35.98,9.58,1.51-.27,2.85.36,3.31,2.63,4.39,2.56,1.21,5.07,2.73,7.21,4.58,2.33,2.01,4.2,4.55,6.25,6.83-2.04,1.65-3.82,3.1-5.76,4.67-.19-.51-.31-.92-.49-1.31Zm5.83,6.34c-.64-.26-1.28-.52-1.92-.78,0-.15,0-.31-.01-.46.66-.42,1.33-.83,1.99-1.25.13.07.26.14.39.22-.15.76-.3,1.52-.45,2.28Zm-2.34-4.04c-.28-1.25.87-2.61,2.74-3.2.83,1.87.32,2.44-2.74,3.2Zm71.79-18.36c.28.28.55.57.96.99-.47.53-.79.9-1.11,1.27-.32-.37-.93-.81-.88-1.11.08-.43.66-.77,1.03-1.15Zm11.62,20.67c-.43,2.45-.97,4.89-1.58,7.31-.68,2.69-.45,5.23.62,7.79.42,1.01.39,2.24.4,3.37,0,.78-.55,1.15-1.38,1.02-3-.48-3.27-1.12-2.92-3.49.26-1.81.37-3.64.6-5.45.04-.29.34-.77.56-.79,1.39-.16,1.2-1.33,1.42-2.18.23-.87.65-1.76-.6-2.46-.46-.26-.53-1.4-.6-2.15-.25-2.52-1.25-4.46-3.56-5.77-3.54-2-10.73.75-10.28,5.96.21,2.44.32,4.89.55,7.33.07.68.3,1.43.71,1.97,1.08,1.45.97,3.04.79,4.66-.03.25-.09.49-.18.72-.31.81-1.67,1.67-2.29,1.27-.52-.33-.77-1.08-1.02-1.46.24-1.23.31-2.12.59-2.93.75-2.21.56-4.3-.33-6.43-.91-2.18-1.64-4.44-2.5-6.65-.55-1.41-.38-2.66.29-4.05,1.56-3.25,2.84-6.64,4.39-9.9.72-1.51,1.78-2.87,2.78-4.23.55-.75,1.22-.61,1.91,0,1.54,1.38,3.13,2.68,4.69,4.03.34.29.66.64.89,1.02,1.89,3.08,3.79,6.15,5.59,9.28.36.62.57,1.5.45,2.19Zm15.19,28.72c-1.61.58-3.24,1.1-4.97,1.68,1.61-2.66,3.26-5.37,4.91-8.08l.4.06c.08,1.89.17,3.79.2,5.68,0,.22-.31.57-.54.66Zm20.42-9.7c.2-.97.41-1.94.62-2.91.09,0,.17,0,.26,0,.23.9.41,1.83.71,2.71.28.83.69,1.62,1.06,2.46-1.85.38-2.98-.69-2.66-2.26Zm133.36-28.66c-.08.64-.41,1.25-.62,1.88-.15-.01-.3-.02-.45-.03-.14-.45-.3-.89-.41-1.34-.69-2.85-2.36-4.8-5.14-5.78-3.91-1.38-7.83-2-11.75-.11-3.66,1.76-5.39,4.76-5.43,8.8-.02,1.36-.28,2.72-.3,4.08-.04,2.4-.12,4.86,2.01,6.61.06.05.15.11.16.18.48,2.15.96,4.31,1.44,6.46-.18.09-.37.19-.55.28-.58-.67-1.2-1.31-1.73-2.01-.85-1.13-1.7-2.27-2.44-3.47-.37-.6-.53-1.35-.76-2.04-.28-.86-.41-1.79-.84-2.57-.76-1.38-1.72-2.65-2.54-4-.52-.85-.99-1.73-1.4-2.64-1.15-2.56-.94-4.87.54-7.43,2.58-4.44,4.69-9.16,7.07-13.73.35-.67,1.06-1.16,1.66-1.69.92-.81,1.93-1.53,2.81-2.39.47-.46.74-.57,1.34-.19,2.35,1.49,4.17,3.44,5.84,5.69,3.1,4.16,6.52,8.09,9.83,12.09.83,1,1.82,1.91,1.65,3.35Zm18.84,24.51c.43-2.56,1.75-4.7,2.82-7.1,1.29,3.34.74,5.81-2.82,7.1Zm28.57-23.59c-.53,2.93-1.1,5.85-1.66,8.78-.02.1-.15.18-.3.36-.76-4.17-1.5-8.25-2.27-12.48,1.66.29,3.02,1.06,4.02,2.42.17.24.27.63.22.92Zm150.79,40.25c-.19-.02-.38-.05-.57-.07.17-1.39.35-2.78.52-4.17.15.02.31.04.46.05-.14,1.4.51,2.88-.42,4.19Zm23.98-8.29c-.38-.26-.9-.43-1.11-.79-.28-.48-.42-1.09-.44-1.65-.06-1.51-.02-3.02-.02-4.53.18-.03.37-.06.55-.1.57,1.95,1.18,3.88,1.66,5.85.08.33-.41.81-.64,1.21Zm45.59,7.66c-1.55-1.12-3.07-2.27-4.62-3.39-.65-.46-.74-1.01-.54-1.74.51-1.8.97-3.61,1.49-5.41.17-.59.46-1.15.74-1.71.68-1.39,1.38-2.77,2.01-4.03,1.78,5.1,1.19,10.71,1.47,16.31-.25-.01-.45.04-.55-.04Zm40.75-8.4c.79,1.6,1.01,3.48,1.43,5.25.05.22-.16.57-.35.75-2.42,2.39-5.49,3.74-8.55,5.45,1.28-3.51.71-3.24-.31-4.95,1.27-.45,1.94-1.22,1.99-2.73.02-.77.99-1.57,1.64-2.25.72-.76,1.12-1.48.6-2.54-.21-.42-.16-.97-.23-1.46-.43-2.77.48-5.36,1.12-7.97.35-1.43.92-2.8,1.49-4.49,1.03.92,1.81,1.62,2.76,2.48-2.82,2.21-2.2,5.42-2.58,8.32-.19,1.45.31,2.77.99,4.14Zm24.03,9.48c-.32.61-.43,1.34-.58,2.03-.16.68-.52.95-1.16.65-3.72-1.71-7.63-3.07-10.85-5.75-.74-.62-.99-1.24-.62-2.16.78-1.91,1.58-3.81,2.23-5.77.39-1.16.5-2.41.75-3.71,1.98.67,3.19,2.1,4.4,3.53,1.6,1.91,3.18,3.84,4.78,5.74,1.36,1.62,2.14,3.31,1.05,5.43Zm-2.84-28.39l.7-.12c.18,1.09.36,2.17.55,3.26-.22.04-.44.08-.65.11-.2-1.08-.39-2.17-.59-3.25Zm23.45-8.2c-1.76-3.82-3.51-7.65-6.67-10.57-3.85-3.54-8.55-3.04-12.42.15-1.09.9-2.16,1.85-3.07,2.92-.65.76-1.24,1.7-1.5,2.65-.72,2.62-.92,5.3-.62,8.04.17,1.55-.11,3.14-.16,4.71-.03,1.18,0,2.37,0,3.83-.24-.02-.68,0-1.08-.11-3.22-.84-6.02-2.55-8.88-4.16-2.42-1.37-2.3-1.28-1.2-3.82,2.09-4.83,5.49-8.69,8.82-12.62.85-1.01,2.1-2.14,2.16-3.26.11-2.04,1.51-2.95,2.48-4.31.71-1,1.09-2.23,1.7-3.32.2-.36.72-.85,1.02-.81,3.18.44,6.35.98,9.58,1.51-.27,2.85.36,3.31,2.63,4.39,2.56,1.21,5.07,2.73,7.21,4.58,2.33,2.01,4.2,4.55,6.25,6.83-2.04,1.65-3.82,3.1-5.76,4.67-.19-.51-.31-.92-.49-1.31Zm5.83,6.34c-.64-.26-1.28-.52-1.92-.78,0-.15,0-.31-.01-.46l1.99-1.25c.13.07.26.14.39.22-.15.76-.3,1.52-.45,2.28Zm-2.34-4.04c-.28-1.25.87-2.61,2.74-3.2.83,1.87.32,2.44-2.74,3.2Zm71.79-18.36c.28.28.55.57.96.99-.47.53-.79.9-1.11,1.27-.32-.37-.93-.81-.88-1.11.08-.43.66-.77,1.03-1.15Zm11.62,20.67c-.43,2.45-.97,4.89-1.58,7.31-.68,2.69-.45,5.23.62,7.79.42,1.01.39,2.24.4,3.37,0,.78-.55,1.15-1.38,1.02-3-.48-3.27-1.12-2.92-3.49.26-1.81.37-3.64.6-5.45.04-.29.34-.77.56-.79,1.39-.16,1.2-1.33,1.42-2.18.23-.87.65-1.76-.6-2.46-.46-.26-.53-1.4-.6-2.15-.25-2.52-1.25-4.46-3.56-5.77-3.54-2-10.73.75-10.28,5.96.21,2.44.32,4.89.55,7.33.07.68.3,1.43.71,1.97,1.08,1.45.97,3.04.79,4.66-.03.25-.09.49-.18.72-.31.81-1.67,1.67-2.29,1.27-.52-.33-.77-1.08-1.02-1.46.24-1.23.31-2.12.59-2.93.75-2.21.56-4.3-.33-6.43-.91-2.18-1.64-4.44-2.5-6.65-.55-1.41-.38-2.66.29-4.05,1.56-3.25,2.84-6.64,4.39-9.9.72-1.51,1.78-2.87,2.78-4.23.55-.75,1.22-.61,1.91,0,1.54,1.38,3.13,2.68,4.69,4.03.34.29.66.64.89,1.02,1.89,3.08,3.79,6.15,5.59,9.28.36.62.57,1.5.45,2.19Zm15.19,28.72c-1.61.58-3.24,1.1-4.97,1.68,1.61-2.66,3.26-5.37,4.91-8.08.13.02.27.04.4.06.08,1.89.17,3.79.2,5.68,0,.22-.31.57-.54.66Zm20.42-9.7c.2-.97.41-1.94.62-2.91.09,0,.17,0,.26,0,.23.9.41,1.83.71,2.71.28.83.69,1.62,1.06,2.46-1.85.38-2.98-.69-2.66-2.26Zm133.36-28.66c-.08.64-.41,1.25-.62,1.88-.15-.01-.3-.02-.45-.03-.14-.45-.3-.89-.41-1.34-.69-2.85-2.36-4.8-5.14-5.78-3.91-1.38-7.83-2-11.75-.11-3.66,1.76-5.39,4.76-5.43,8.8-.02,1.36-.28,2.72-.3,4.08-.04,2.4-.12,4.86,2.01,6.61.06.05.15.11.16.18.48,2.15.96,4.31,1.44,6.46-.18.09-.37.19-.55.28-.58-.67-1.2-1.31-1.73-2.01-.85-1.13-1.7-2.27-2.44-3.47-.37-.6-.53-1.35-.76-2.04-.28-.86-.41-1.79-.84-2.57-.76-1.38-1.72-2.65-2.54-4-.52-.85-.99-1.73-1.4-2.64-1.15-2.56-.94-4.87.54-7.43,2.58-4.44,4.69-9.16,7.07-13.73.35-.67,1.06-1.16,1.66-1.69.92-.81,1.93-1.53,2.81-2.39.47-.46.74-.57,1.34-.19,2.35,1.49,4.17,3.44,5.84,5.69,3.1,4.16,6.52,8.09,9.83,12.09.83,1,1.82,1.91,1.65,3.35Zm18.84,24.51c.43-2.56,1.75-4.7,2.82-7.1,1.29,3.34.74,5.81-2.82,7.1Zm28.57-23.59c-.53,2.93-1.1,5.85-1.66,8.78-.02.1-.15.18-.3.36-.76-4.17-1.5-8.25-2.27-12.48,1.66.29,3.02,1.06,4.02,2.42.17.24.27.63.22.92Z"/></g></svg>